<?xml version="1.0" encoding="UTF-8" standalone="no"?>
<svg
   xmlns:dc="http://purl.org/dc/elements/1.1/"
   xmlns:cc="http://creativecommons.org/ns#"
   xmlns:rdf="http://www.w3.org/1999/02/22-rdf-syntax-ns#"
   xmlns:svg="http://www.w3.org/2000/svg"
   xmlns="http://www.w3.org/2000/svg"
   xmlns:sodipodi="http://sodipodi.sourceforge.net/DTD/sodipodi-0.dtd"
   xmlns:inkscape="http://www.inkscape.org/namespaces/inkscape"
   version="1.1"
   id="Layer_1"
   x="0px"
   y="0px"
   width="100px"
   height="100px"
   viewBox="0 0 100 100"
   enable-background="new 0 0 100 100"
   xml:space="preserve"
   inkscape:version="0.48.3.1 r9886"
   sodipodi:docname="12.svg"><metadata
   id="metadata3004"><rdf:RDF><cc:Work
       rdf:about=""><dc:format>image/svg+xml</dc:format><dc:type
         rdf:resource="http://purl.org/dc/dcmitype/StillImage" /></cc:Work></rdf:RDF></metadata><defs
   id="defs3002" /><sodipodi:namedview
   pagecolor="#ffffff"
   bordercolor="#666666"
   borderopacity="1"
   objecttolerance="10"
   gridtolerance="10"
   guidetolerance="10"
   inkscape:pageopacity="0"
   inkscape:pageshadow="2"
   inkscape:window-width="640"
   inkscape:window-height="480"
   id="namedview3000"
   showgrid="false"
   inkscape:zoom="2.36"
   inkscape:cx="50"
   inkscape:cy="50"
   inkscape:window-x="0"
   inkscape:window-y="0"
   inkscape:window-maximized="0"
   inkscape:current-layer="Layer_1" />
<path
   sodipodi:type="arc"
   style="fill:#FFFFFF;stroke:#0000ff;stroke-width:3.5;stroke-miterlimit:4;stroke-dasharray:none"
   id="path4175"
   sodipodi:cx="50.845425"
   sodipodi:cy="48.303154"
   sodipodi:rx="46.608307"
   sodipodi:ry="46.184593"
   d="m 97.453732,48.303154 a 46.608307,46.184593 0 1 1 -93.2166142,0 46.608307,46.184593 0 1 1 93.2166142,0 z"
   transform="matrix(1.0337773,0,0,1.0432615,-2.5628462,-0.39281887)" /><path
   d="m 36.642624,71.230569 v 3.955785 c 0,4.382686 2.207639,6.498109 5.41297,8.125418 3.288803,1.672623 6.905135,2.391279 10.697951,2.391279 3.793611,0 7.409943,-0.718656 10.698746,-2.391279 3.204536,-1.627309 5.414561,-3.742732 5.414561,-8.125418 l -0.0016,-3.955785 -0.706731,7.95e-4 c -0.979407,2.652824 -2.133708,4.770632 -4.70624,6.078363 -3.288803,1.669443 -6.905135,2.388098 -10.697951,2.388098 -3.792816,0 -7.409148,-0.718655 -10.697951,-2.388893 -2.574122,-1.308526 -3.728423,-3.427924 -4.707829,-6.081543 l -0.705936,0.0032 z"
   id="path2996"
   inkscape:connector-curvature="0"
   style="fill:#0000ff" />
<path
   d="m 77.73239,27.978476 c -1.373714,-3.243489 -3.357966,-6.165015 -5.809662,-8.616711 -2.453287,-2.453287 -5.374018,-4.438334 -8.618302,-5.810458 -3.2419,-1.370533 -6.807353,-2.129732 -10.550086,-2.129732 -3.742732,0 -7.307391,0.759199 -10.550881,2.129732 -3.243489,1.372124 -6.165015,3.357171 -8.617506,5.810458 -2.452492,2.451696 -4.436744,5.373222 -5.809663,8.616711 -1.372918,3.244285 -2.130527,6.808943 -2.130527,10.551676 0,3.742733 1.125682,12.078024 2.130527,15.451889 0.894345,3.001818 2.594792,6.866976 4.993225,8.616712 0.808488,0.58987 3.09165,1.372123 3.873904,1.997767 2.336425,2.857927 2.207639,6.498903 5.41297,8.126213 3.288803,1.671828 6.905135,2.389689 10.697951,2.389689 3.793611,0 7.409943,-0.717861 10.698746,-2.389689 3.205331,-1.62731 3.07575,-5.268286 5.412971,-8.126213 0.781458,-0.625644 3.067005,-1.407897 3.873903,-1.997767 2.398433,-1.749736 4.09888,-5.614099 4.993225,-8.616712 1.004051,-3.373865 2.130527,-11.709156 2.130527,-15.451889 -7.95e-4,-3.742733 -0.759199,-7.308186 -2.131322,-10.551676 z M 47.444716,50.080314 c 0,3.417588 -2.770481,6.187274 -6.188864,6.187274 -3.416794,0 -6.18807,0.496858 -6.18807,-2.92073 v -2.200486 c 0,-3.417588 2.770481,-6.189659 6.18807,-6.189659 3.417588,0 6.188864,-0.496858 6.188864,2.922321 v 2.20128 z m 8.51893,13.186216 c -0.222593,0.383972 -0.697986,0.623259 -1.372123,0.623259 0,0 -1.097858,-0.255187 -1.837978,-0.255187 -0.740915,0 -1.837182,0.255187 -1.837182,0.255187 -0.674137,0 -1.148736,-0.239287 -1.370534,-0.623259 -0.222592,-0.384767 -0.192383,-0.913424 0.14548,-1.499319 l 0.918989,-2.407973 0.918989,-2.408768 c 0.336273,-0.58351 0.781458,-0.875265 1.225053,-0.875265 0.44439,0 0.88878,0.29096 1.225848,0.875265 l 0.918989,2.408768 0.918989,2.407973 c 0.335478,0.585895 0.366482,1.114552 0.14548,1.499319 z m 14.477252,-9.918877 c 0,3.417588 -2.771276,2.92073 -6.188864,2.92073 -3.416794,0 -6.188865,-2.769686 -6.188865,-6.187274 v -2.200485 c 0,-3.419179 2.772071,-2.922321 6.188865,-2.922321 3.417588,0 6.188864,2.771276 6.188864,6.189659 v 2.199691 z"
   id="path2998"
   inkscape:connector-curvature="0"
   style="fill:#0000ff" />
</svg>