<?xml version="1.0" encoding="UTF-8" standalone="no"?>
<!-- Generator: Adobe Illustrator 15.1.0, SVG Export Plug-In . SVG Version: 6.00 Build 0)  -->

<svg
   xmlns:dc="http://purl.org/dc/elements/1.1/"
   xmlns:cc="http://creativecommons.org/ns#"
   xmlns:rdf="http://www.w3.org/1999/02/22-rdf-syntax-ns#"
   xmlns:svg="http://www.w3.org/2000/svg"
   xmlns="http://www.w3.org/2000/svg"
   xmlns:sodipodi="http://sodipodi.sourceforge.net/DTD/sodipodi-0.dtd"
   xmlns:inkscape="http://www.inkscape.org/namespaces/inkscape"
   version="1.1"
   id="Layer_1"
   x="0px"
   y="0px"
   width="100"
   height="100"
   viewBox="0 0 99.999996 100"
   enable-background="new 0 0 73.439 100"
   xml:space="preserve"
   inkscape:version="0.48.3.1 r9886"
   sodipodi:docname="19.svg"><metadata
   id="metadata3073"><rdf:RDF><cc:Work
       rdf:about=""><dc:format>image/svg+xml</dc:format><dc:type
         rdf:resource="http://purl.org/dc/dcmitype/StillImage" /></cc:Work></rdf:RDF></metadata><defs
   id="defs3071" /><sodipodi:namedview
   pagecolor="#ffffff"
   bordercolor="#666666"
   borderopacity="1"
   objecttolerance="10"
   gridtolerance="10"
   guidetolerance="10"
   inkscape:pageopacity="0"
   inkscape:pageshadow="2"
   inkscape:window-width="640"
   inkscape:window-height="480"
   id="namedview3069"
   showgrid="false"
   inkscape:zoom="2.36"
   inkscape:cx="36.719501"
   inkscape:cy="50"
   inkscape:window-x="0"
   inkscape:window-y="0"
   inkscape:window-maximized="0"
   inkscape:current-layer="Layer_1" />
<path
   sodipodi:type="arc"
   style="fill:#FFFFFF;stroke:#0000ff;stroke-width:3.5;stroke-miterlimit:4;stroke-dasharray:none"
   id="path4175"
   sodipodi:cx="50.845425"
   sodipodi:cy="48.303154"
   sodipodi:rx="46.608307"
   sodipodi:ry="46.184593"
   d="m 97.453732,48.303154 a 46.608307,46.184593 0 1 1 -93.2166142,0 46.608307,46.184593 0 1 1 93.2166142,0 z"
   transform="matrix(1.0337773,0,0,1.0432615,-2.5628482,-0.39281887)" /><path
   d="m 70.991996,38.650754 h -7.023339 v -7.922199 c 0.568833,-1.299054 0.724826,-2.53708 0.724826,-3.496113 0,-4.007599 -3.526905,-7.302461 -8.523777,-8.002119 -0.286592,-0.08718 -1.042616,-0.657519 -1.59331,-1.075281 -1.728263,-1.307046 -4.095012,-3.097242 -7.220687,-3.097242 -3.348421,0 -5.83561,1.891184 -7.834504,3.409655 -1.179021,0.895825 -2.397223,1.822891 -3.190975,1.822891 -0.463627,0 -1.067286,-0.112618 -1.705045,-0.231767 -0.786498,-0.146035 -1.599842,-0.297881 -2.432774,-0.297881 -0.89243,0 -1.652081,0.175822 -2.321764,0.538367 -3.599461,1.951487 -3.599461,5.570386 -3.599461,6.93265 0,1.426926 0.243785,2.697645 0.725552,3.824509 v 5.113394 7.986135 c 0,12.29888 0,34.474353 0,34.481619 0,5.01095 8.276363,9.074493 18.485597,9.074493 10.209958,0 18.486322,-4.064269 18.486322,-9.074493 0,-0.0022 0,-2.007432 0,-5.141727 h 7.023339 c 1.813152,0 5.142707,-0.864585 7.071222,-6.657293 0.961356,-2.891631 1.49246,-6.714689 1.49246,-10.76588 -7.27e-4,-8.422058 -2.250661,-17.421718 -8.563682,-17.421718 z M 29.89604,40.972779 v -6.406637 c 0.630505,0.449003 1.34082,0.854412 2.139651,1.21187 0.591324,0.264461 2.597475,1.830883 1.629589,4.636783 l -0.02756,0.07048 c -0.284416,0.725814 -0.502806,1.482868 -0.686372,2.253002 -1.168137,-0.52093 -2.195518,-1.114513 -3.055295,-1.765493 z m 11.239518,10.449107 c -0.346089,0.08937 -0.697981,0.13441 -1.047698,0.13441 -0.623248,0 -1.510598,-0.145308 -2.19189,-0.840607 -0.76328,-0.780305 -1.148548,-2.13385 -1.113722,-3.915328 0.01815,-0.922706 0.124794,-1.811992 0.303282,-2.668584 0.148736,-0.710558 0.343911,-1.399317 0.601481,-2.055384 0.037,-0.09591 0.06385,-0.166376 0.07909,-0.212876 1.709399,-4.952827 -1.284227,-8.865975 -3.955706,-10.061135 -2.668578,-1.195159 -3.19025,-2.5814 -3.19025,-4.570667 0,-1.784384 0.333028,-2.566869 1.29511,-3.090704 7.25e-4,0 0.07618,-0.0247 0.27716,-0.0247 0.430978,0 1.015772,0.108987 1.63612,0.224501 0.766906,0.142402 1.636117,0.305146 2.500974,0.305146 2.258641,0 4.068891,-1.376793 5.821099,-2.709269 1.707222,-1.298328 3.319397,-2.524002 5.204379,-2.524002 1.668043,0 3.225076,1.177722 4.59927,2.216675 1.17104,0.885653 2.27678,1.721901 3.556653,1.902083 2.799903,0.393785 4.831447,1.950762 4.831447,3.699545 0,2.55815 -2.018484,4.436984 -6.001761,5.586371 -1.522933,0.440284 -1.998894,1.96166 -2.459618,3.433632 -0.14366,0.4599 -0.378014,1.208964 -0.602934,1.692113 -0.615268,-0.302968 -1.495361,-0.793383 -2.091765,-1.125412 -2.209304,-1.231486 -3.058198,-1.668136 -3.901289,-1.73062 l -0.08635,-0.0065 -0.12189,0.0022 -0.04427,7.26e-4 c -0.538359,0.0065 -1.025204,0.213603 -1.401766,0.544179 l -0.18429,0.20997 c -0.283691,0.32331 -0.446215,0.645895 -0.524574,1.031688 -0.129873,0.645895 -0.02466,1.467612 0.141484,2.765214 0.159621,1.241657 0.426624,3.335548 0.449115,5.422173 0.03193,2.939583 -0.428801,5.864635 -2.376906,6.365222 z m 18.981874,-9.802487 c -2.923972,1.831609 -7.27583,3.103055 -12.258191,3.412562 -0.0073,-1.469066 -0.124065,-2.889452 -0.257571,-4.113673 2.096118,1.158105 3.042963,1.604202 3.952079,1.604202 2.924697,0 3.898387,-3.11032 4.478828,-4.968086 0.07255,-0.23104 0.166151,-0.530374 0.251767,-0.775944 2.050408,-0.666965 3.598008,-1.511932 4.784285,-2.436091 v 6.621691 c -0.298202,0.224501 -0.614542,0.443917 -0.951197,0.655339 z M 70.775055,66.96259 h -6.806398 c 0,-6.870894 0,-15.428817 0,-21.778782 h 6.807124 c 0.81697,0.761415 2.254288,4.588105 2.254288,10.886485 0,6.302014 -1.437318,10.130156 -2.255014,10.892297 z"
   id="path3067"
   inkscape:connector-curvature="0"
   style="fill:#0000ff" />
</svg>