<?xml version="1.0" encoding="UTF-8" standalone="no"?>
<svg
   xmlns:dc="http://purl.org/dc/elements/1.1/"
   xmlns:cc="http://creativecommons.org/ns#"
   xmlns:rdf="http://www.w3.org/1999/02/22-rdf-syntax-ns#"
   xmlns:svg="http://www.w3.org/2000/svg"
   xmlns="http://www.w3.org/2000/svg"
   xmlns:sodipodi="http://sodipodi.sourceforge.net/DTD/sodipodi-0.dtd"
   xmlns:inkscape="http://www.inkscape.org/namespaces/inkscape"
   version="1.1"
   id="Livello_1"
   x="0px"
   y="0px"
   width="100px"
   height="100px"
   viewBox="0 0 100 100"
   enable-background="new 0 0 100 100"
   xml:space="preserve"
   inkscape:version="0.48.3.1 r9886"
   sodipodi:docname="47.svg"><metadata
   id="metadata3851"><rdf:RDF><cc:Work
       rdf:about=""><dc:format>image/svg+xml</dc:format><dc:type
         rdf:resource="http://purl.org/dc/dcmitype/StillImage" /></cc:Work></rdf:RDF></metadata><defs
   id="defs3849" /><sodipodi:namedview
   pagecolor="#ffffff"
   bordercolor="#666666"
   borderopacity="1"
   objecttolerance="10"
   gridtolerance="10"
   guidetolerance="10"
   inkscape:pageopacity="0"
   inkscape:pageshadow="2"
   inkscape:window-width="640"
   inkscape:window-height="480"
   id="namedview3847"
   showgrid="false"
   inkscape:zoom="2.36"
   inkscape:cx="50"
   inkscape:cy="50"
   inkscape:window-x="0"
   inkscape:window-y="0"
   inkscape:window-maximized="0"
   inkscape:current-layer="Livello_1" />
<path
   sodipodi:type="arc"
   style="fill:#FFFFFF;stroke:#0000ff;stroke-width:3.5;stroke-miterlimit:4;stroke-dasharray:none"
   id="path4175"
   sodipodi:cx="50.845425"
   sodipodi:cy="48.303154"
   sodipodi:rx="46.608307"
   sodipodi:ry="46.184593"
   d="m 97.453732,48.303154 a 46.608307,46.184593 0 1 1 -93.2166142,0 46.608307,46.184593 0 1 1 93.2166142,0 z"
   transform="matrix(1.0337773,0,0,1.0432615,-2.5628462,-0.39281887)" /><path
   d="m 79.711599,74.880114 c 0,-0.01028 -2.087506,-1.912403 -4.386169,-4.251407 -1.807685,-1.835153 -3.767298,-3.996478 -4.841953,-5.539793 -0.558786,-2.823113 -1.301259,-5.61361 -2.164759,-8.014415 -0.621446,-1.738159 -1.401686,-3.571595 -2.254886,-5.398165 -0.247205,-0.715005 -0.511577,-1.38881 -0.793115,-1.999955 -0.259222,-0.557928 -0.570803,-1.038603 -0.908135,-1.472929 -0.506426,-0.973369 -1.011995,-1.934722 -1.511554,-2.860881 0.584536,-0.01116 1.200832,-0.127037 1.838585,-0.374241 1.135598,-0.497843 2.002532,-1.454904 3.054869,-2.646294 1.539022,-1.800818 3.274605,-4.181023 5.059116,-6.223038 1.760476,-2.051458 3.625671,-3.717514 4.971564,-4.09433 0.638612,-0.191412 0.999978,-0.861784 0.807707,-1.499539 -0.196562,-0.633462 -0.866934,-0.995686 -1.508979,-0.798265 -1.516705,0.462651 -2.86174,1.509837 -4.17244,2.76818 -1.954464,1.890945 -3.810217,4.332092 -5.447949,6.392991 -0.808566,1.024013 -1.57078,1.954464 -2.224843,2.646294 -0.644622,0.701272 -1.229158,1.142464 -1.443745,1.219716 -0.381966,0.149353 -0.717582,0.201711 -1.025729,0.202571 -0.534752,0.0069 -1.026587,-0.181113 -1.442029,-0.419734 0.09785,-0.444626 0.151929,-0.907276 0.157079,-1.370785 -0.0077,-1.661766 -0.60342,-3.181904 -1.605974,-4.445396 2.361322,-1.19139 5.639361,-3.225679 8.045317,-6.249648 2.04974,-2.6111 3.75099,-6.174112 5.415331,-9.200655 0.830883,-1.500396 1.638591,-2.872039 2.423122,-3.879743 0.778524,-1.013711 1.530439,-1.600822 2.03944,-1.736442 0.637755,-0.186262 0.99912,-0.866934 0.80685,-1.494388 -0.187979,-0.641187 -0.860068,-0.999978 -1.501255,-0.816291 -1.322718,0.417158 -2.315829,1.391386 -3.24628,2.565608 -1.385377,1.789661 -2.628269,4.175016 -3.910643,6.573247 -1.271217,2.393938 -2.573334,4.792169 -3.915794,6.491702 -1.765627,2.250594 -4.262567,3.96987 -6.314882,5.1089 -0.633463,0.345057 -1.218858,0.637754 -1.729576,0.871226 -0.369949,-0.257506 -0.769082,-0.481535 -1.180231,-0.696123 2.446297,-1.005986 4.071155,-2.960449 4.068579,-6.14407 0.0026,-3.171604 -1.605973,-5.126926 -4.032529,-6.141495 l -0.345057,-2.351021 c 1.17079,-0.73389 4.101198,-2.313255 8.174928,-2.654019 0.661788,-0.05064 1.155339,-0.638613 1.09783,-1.300401 -0.05322,-0.659212 -0.63518,-1.157056 -1.294392,-1.09783 -6.144071,0.515011 -9.908795,3.461727 -10.021238,3.541553 -0.339908,0.266089 -0.515869,0.696981 -0.451493,1.121863 l 0.308147,2.053174 c -0.781957,-0.122743 -1.594813,-0.180253 -2.446297,-0.180253 -0.845475,0 -1.6652,0.05751 -2.435998,0.180253 l 0.297848,-2.053174 c 0.0618,-0.427458 -0.111586,-0.855774 -0.451493,-1.121863 -0.100426,-0.07982 -3.872017,-3.031692 -10.02038,-3.541553 -0.660071,-0.05837 -1.239457,0.441192 -1.297826,1.096114 -0.05322,0.669512 0.441193,1.249757 1.102981,1.30555 2.71582,0.225746 4.92693,1.002553 6.437626,1.715843 0.760498,0.356215 1.340743,0.690971 1.731293,0.938176 l -0.348491,2.347588 c -2.430848,1.016287 -4.028237,2.970749 -4.025663,6.143212 -0.0026,3.182762 1.622283,5.137225 4.073731,6.148362 -0.414583,0.212871 -0.812858,0.430033 -1.18624,0.696981 -2.169051,-1.021437 -5.733779,-3.031694 -8.044458,-5.986134 -1.800818,-2.26347 -3.496919,-5.768114 -5.196452,-8.860749 -0.847192,-1.551039 -1.709833,-3.00766 -2.63256,-4.197333 -0.923584,-1.18109 -1.915838,-2.162184 -3.247996,-2.574192 -0.638613,-0.18712 -1.308127,0.175103 -1.496963,0.816291 -0.186262,0.632604 0.173386,1.30555 0.813716,1.494388 0.502993,0.135618 1.254907,0.723589 2.029139,1.736442 1.178515,1.513271 2.41454,3.8291 3.685756,6.227331 1.28495,2.405955 2.619684,4.89002 4.156131,6.852209 2.403381,3.020534 5.683137,5.060833 8.047034,6.249647 -1.002554,1.263492 -1.598249,2.784489 -1.606832,4.446255 0.0026,0.465225 0.06437,0.925301 0.149353,1.361343 -0.409433,0.250638 -0.907276,0.448917 -1.432587,0.428316 -0.308148,0 -0.645479,-0.05064 -1.029161,-0.210295 -0.303857,-0.07982 -1.19654,-0.856634 -2.127851,-1.977639 -1.446319,-1.680649 -3.201645,-4.084888 -5.071132,-6.236772 -1.887513,-2.143301 -3.821376,-4.092614 -6.091712,-4.805045 -0.632604,-0.19742 -1.308125,0.164803 -1.504687,0.798266 -0.191412,0.637754 0.169953,1.308125 0.805132,1.502113 0.885817,0.262655 2.03429,1.060921 3.200788,2.196518 1.763909,1.699534 3.581895,4.077164 5.225636,6.161238 0.829165,1.036886 1.619706,2.00768 2.363896,2.805946 0.763073,0.788823 1.433444,1.427436 2.295228,1.79996 0.632605,0.24463 1.254909,0.361366 1.841162,0.372525 -0.500419,0.925301 -1.005987,1.88837 -1.511556,2.860881 -0.33819,0.434324 -0.648053,0.915859 -0.908992,1.472928 -0.28583,0.614579 -0.536469,1.292676 -0.787107,1.999956 -0.85835,1.826569 -1.636015,3.66258 -2.260036,5.398165 -0.864359,2.401663 -1.600823,5.191302 -2.164759,8.014415 -1.073797,1.542455 -3.031693,3.702064 -4.841953,5.538933 -2.294371,2.342439 -4.380162,4.241967 -4.385311,4.252267 -0.48926,0.447201 -0.52617,1.206841 -0.0764,1.698676 0.242054,0.263513 0.56136,0.392266 0.890967,0.392266 0.286689,0 0.584536,-0.107294 0.811141,-0.31759 0.01287,-0.0086 2.124417,-1.949313 4.479729,-4.337244 0.789682,-0.81629 1.604257,-1.672066 2.376771,-2.526124 -0.05236,0.415441 -0.105576,0.840325 -0.143344,1.24375 -0.563078,5.930341 0.0369,10.191191 1.784511,12.667531 1.135596,1.619707 2.805946,2.502091 4.707192,2.503808 0.0455,-0.0018 0.08326,0.0034 0.127894,0 2.092658,-0.04463 3.879743,-0.858351 5.357821,-2.421406 0.38025,0.460075 0.766507,0.904701 1.148473,1.298684 2.914098,3.040276 5.775838,4.439387 5.860815,4.477154 0.164804,0.08584 0.339907,0.127036 0.521019,0.127036 0.181111,0 0.367373,-0.04206 0.532176,-0.127036 0.07982,-0.03777 2.956159,-1.436878 5.858241,-4.474579 0.38454,-0.396558 0.772514,-0.838608 1.151048,-1.301259 1.478936,1.563914 3.271172,2.37763 5.361254,2.423981 0.03605,-0.0043 0.08155,-0.0026 0.119311,-0.0026 1.904679,0 3.582754,-0.890968 4.716634,-2.503808 1.742451,-2.47634 2.339863,-6.741482 1.781077,-12.667531 -0.04292,-0.409433 -0.09185,-0.828308 -0.14077,-1.240316 0.769941,0.849766 1.578506,1.7064 2.376772,2.521832 2.347587,2.389647 4.46428,4.332094 4.47458,4.341535 0.235188,0.207721 0.526168,0.313299 0.813715,0.313299 0.329607,0.0018 0.654921,-0.127037 0.891827,-0.389692 0.444625,-0.490117 0.416299,-1.247183 -0.07725,-1.699533 z M 57.325827,46.341688 c -0.580244,0.415441 -1.234308,0.750199 -1.941588,1.020578 -0.223171,-5.742362 -0.339906,-10.497622 -0.339906,-10.497622 0,0 1.993947,3.067744 4.372436,7.264218 -0.340766,0.574236 -0.776808,1.106413 -1.301259,1.581939 -0.114161,-0.0077 -0.188838,-0.0069 -0.188838,-0.0069 -0.334756,-0.0052 -0.606853,0.266089 -0.608569,0.592261 0,0.01631 0.0077,0.0309 0.0077,0.0455 z M 43.507248,79.333235 C 42.430877,77.293796 41.64892,74.878398 41.476392,72.056143 l 4.89517,0.0034 c -0.444625,2.672902 -1.066071,5.224777 -2.00253,7.272801 l -0.861784,8.58e-4 z m 2.287504,-33.630159 0,0 c -0.0052,0 -0.07982,0 -0.196563,0.01029 -0.521019,-0.47896 -0.957919,-1.010278 -1.301258,-1.58194 2.379346,-4.199049 4.369002,-7.266792 4.369002,-7.266792 0,0 -0.111587,4.754402 -0.329607,10.502772 -0.708139,-0.27038 -1.361344,-0.611145 -1.951889,-1.026587 0.0026,-0.01287 0.01116,-0.03261 0.01029,-0.04292 0.0018,-0.328748 -0.27038,-0.599986 -0.599986,-0.594835 z m -1.6652,0.23433 c -0.304715,0.06609 -0.645479,0.173386 -0.99912,0.297847 0.164803,-0.314156 0.339907,-0.623162 0.50471,-0.921009 0.154503,0.208579 0.32274,0.418874 0.49441,0.623162 z m 5.793005,16.433972 c 0.180254,-2.090082 0.339907,-4.627366 0.478959,-7.279668 h 2.914958 c 0.131328,2.653161 0.292697,5.184435 0.47295,7.279668 H 49.922557 z M 47.379265,49.314155 c 0.168237,-0.09785 0.325315,-0.196563 0.490118,-0.276388 0.01029,-0.01029 0.01631,-0.01631 0.02318,-0.01803 0.125319,-0.06781 0.255788,-0.127035 0.382824,-0.181111 -0.06695,1.656615 -0.145919,3.363875 -0.225746,5.049674 l -4.204199,-0.0026 c 0.480676,-1.103839 1.012853,-2.007682 1.587089,-2.751872 0.0369,-0.04806 0.07382,-0.09098 0.111586,-0.133044 0.08927,-0.122744 0.188837,-0.237763 0.287547,-0.340764 0.05837,-0.06867 0.120169,-0.13562 0.186262,-0.206863 0.07982,-0.07982 0.154504,-0.154504 0.229179,-0.229179 0.07468,-0.06867 0.149354,-0.143345 0.223172,-0.212871 0.07382,-0.06352 0.148494,-0.127895 0.228321,-0.186262 0.0721,-0.0618 0.149353,-0.127895 0.22403,-0.191412 0.09013,-0.06352 0.181111,-0.127895 0.271239,-0.186262 0.06609,-0.04463 0.127893,-0.08927 0.185402,-0.133045 z m 0.606854,5.776697 c -0.138194,2.679769 -0.297847,5.222202 -0.478101,7.279668 h -5.653952 c 0.339906,-2.978476 0.856633,-5.376706 1.514988,-7.279668 h 4.617065 z m -0.589686,8.482216 c -0.218021,2.249735 -0.460077,4.784444 -0.82745,7.27366 h -5.137226 c -0.0034,-0.0077 0.0026,-0.01373 -0.0026,-0.03005 0,-0.50986 0.01116,-1.015429 0.01803,-1.512413 0,-0.112444 0,-0.218021 0,-0.330465 0.01374,-0.444625 0.02146,-0.872942 0.03948,-1.299542 0.0052,-0.144203 0.0052,-0.287547 0.01029,-0.4369 0.01631,-0.399991 0.03261,-0.798266 0.05322,-1.191391 0.0052,-0.133043 0.01545,-0.272097 0.0206,-0.405141 0.02747,-0.324456 0.0369,-0.632604 0.07039,-0.94161 0.0095,-0.148494 0.01631,-0.302998 0.03176,-0.441192 0.01545,-0.23433 0.0369,-0.457501 0.05837,-0.686679 h 5.665112 z m 8.732854,14.019434 c 0.19227,0.616294 0.397416,1.18624 0.616296,1.739017 h -9.769742 c 0.218021,-0.549345 0.430891,-1.123581 0.617154,-1.739017 0.526169,-1.723568 0.909851,-3.615372 1.217998,-5.530351 l 6.095145,8.59e-4 c 0.308148,1.91412 0.696122,3.811074 1.223149,5.529492 z m 3.217097,1.739875 c -0.941611,-2.048024 -1.556189,-4.602473 -2.007682,-7.272801 l 4.90118,-0.0034 c -0.179395,2.821397 -0.957919,5.244519 -2.020557,7.276234 h -0.872941 z m -2.198235,-8.485649 c -0.369949,-2.485782 -0.610287,-5.023065 -0.82745,-7.27366 h 5.668545 c 0.02145,0.271238 0.04807,0.537327 0.06437,0.818866 0.0052,0.06867 0.01545,0.143345 0.01545,0.212871 0.03261,0.357074 0.05322,0.712431 0.07296,1.08238 0.0086,0.10901 0.01803,0.226604 0.02232,0.349349 0.01716,0.387115 0.03777,0.792256 0.05322,1.200831 8.58e-4,0.149353 0.01116,0.297848 0.01374,0.444626 0.01373,0.412007 0.02832,0.831741 0.03434,1.263491 -8.59e-4,0.138194 0,0.27553 0.0052,0.419733 0.006,0.451492 0.006,0.909851 0.01116,1.382802 -0.0026,0.02318 -0.0026,0.0455 -0.0052,0.06781 l 0.0052,0.01716 c -0.0052,0.0052 -0.0052,0.0052 -0.0026,0.01373 H 57.148169 z M 56.209114,62.372236 C 56.02886,60.313913 55.868348,57.771479 55.730154,55.09171 h 4.6102 c 0.666938,1.901246 1.192248,4.302051 1.520996,7.279668 l -5.652236,8.58e-4 z m -0.543336,-8.483933 c -0.07982,-1.685799 -0.159653,-3.393059 -0.225746,-5.048816 0.134761,0.06095 0.270381,0.121028 0.402567,0.188837 l 0.0043,-8.58e-4 c 0.164803,0.09013 0.327031,0.188837 0.488401,0.287547 0.05923,0.03605 0.109869,0.0824 0.165661,0.121886 0.09527,0.06352 0.196563,0.133044 0.297848,0.207721 0.06867,0.05236 0.138195,0.111585 0.212012,0.175962 0.08069,0.06352 0.162229,0.125319 0.236905,0.199136 0.07124,0.06095 0.143345,0.127895 0.210296,0.194846 0.08498,0.08498 0.169953,0.158795 0.243772,0.249781 0.0618,0.06095 0.117593,0.122743 0.178537,0.188836 0.100426,0.111586 0.200853,0.23433 0.300421,0.353641 0.03261,0.0369 0.06695,0.0824 0.100427,0.127035 0.57252,0.737323 1.103838,1.641165 1.585373,2.754446 h -4.200808 z m 4.412779,-8.575777 c 0.166519,0.300423 0.337331,0.608571 0.510718,0.926161 -0.354499,-0.13047 -0.69698,-0.23433 -1.008561,-0.300423 0.177678,-0.205146 0.345056,-0.415441 0.497843,-0.625738 z M 38.912499,83.789789 c -0.02403,8.6e-4 -0.04206,0.01029 -0.07382,0.01029 -5.340654,0 -4.925213,-11.095035 -2.845431,-20.098269 0.707281,-1.823994 1.315851,-4.187891 1.935581,-6.520887 1.110704,-2.941566 2.648009,-6.138061 4.20849,-9.107953 0.466084,-0.310723 0.955343,-0.534752 1.415419,-0.70728 0.619729,-0.225746 1.193966,-0.342482 1.599965,-0.399133 0.02403,-0.0069 0.04034,-0.0077 0.05064,-0.0077 0.558787,0.44205 1.18624,0.835174 1.851462,1.159632 -0.0052,0 -0.0052,0.0052 -0.01374,0.0077 -1.036888,0.601703 -1.999956,1.45662 -2.831697,2.624835 -0.02661,0.02661 -0.04807,0.05837 -0.06437,0.09013 -0.127035,0.175103 -0.238622,0.351065 -0.361365,0.536469 -0.05837,0.111585 -0.127895,0.20772 -0.185404,0.314155 -0.01716,0.02661 -0.0369,0.06953 -0.06352,0.09614 -0.03261,0.07382 -0.07211,0.151928 -0.117594,0.223171 -0.263514,0.475526 -0.514151,0.986244 -0.736464,1.544172 -0.09871,0.226605 -0.196563,0.458359 -0.284973,0.699555 -0.0018,0.0086 -0.0018,0.0146 -0.01029,0.02146 l -0.302999,0.813716 h 0.0206 c -0.648913,1.96648 -1.145897,4.368144 -1.462628,7.280526 l -0.01116,-8.58e-4 -0.04206,0.488401 c -0.01287,0.08927 -0.0206,0.182828 -0.02918,0.269521 -0.02832,0.332182 -0.06095,0.672089 -0.09013,1.016287 -0.0077,0.119311 -0.01631,0.233472 -0.01803,0.352782 -0.03176,0.414584 -0.06437,0.835175 -0.09013,1.271217 -0.0026,0.08326 -0.006,0.164804 -0.01029,0.243771 -0.02661,0.41115 -0.0369,0.824017 -0.05322,1.255767 -0.0077,0.07124 -0.01116,0.149353 -0.01631,0.230038 -0.01287,0.458359 -0.02145,0.934743 -0.03261,1.412844 -0.0052,0.133045 -0.0052,0.260938 -0.0052,0.399132 -0.0069,0.407717 -0.01287,0.823159 -0.01287,1.242034 0,0.08927 0.0018,0.17167 -0.0026,0.263513 0.0052,0.03605 0.0026,0.06695 0.0026,0.09871 0.0026,0.193129 0.01287,0.384541 0.02318,0.554494 l 0.01374,0.589687 0,0 c 0.172529,2.789638 0.893543,5.211044 1.890945,7.272801 l -0.02747,8.59e-4 0.48926,0.893542 c 0.01631,0.03605 0.0369,0.06781 0.05922,0.104718 0.179396,0.331324 0.376816,0.644621 0.573378,0.963928 -1.09182,1.51928 -2.492649,2.467756 -4.33896,2.496082 z m 25.964234,0.01029 c -0.01974,0 -0.04979,-0.0095 -0.07725,-0.0095 -1.830861,-0.02918 -3.242847,-0.977661 -4.342393,-2.495224 0.207721,-0.325314 0.410291,-0.65578 0.601703,-0.999978 0.01116,-0.02661 0.02661,-0.04292 0.03605,-0.06866 l 0.494409,-0.893543 h -0.03176 c 0.996545,-2.061757 1.719275,-4.484021 1.88837,-7.271085 l 0.0077,-0.0018 0.01287,-0.588828 c 0.0095,-0.188838 0.01716,-0.394841 0.02232,-0.600846 -0.0026,-0.02403 0,-0.03261 0,-0.05321 -0.0026,-0.0455 -0.0026,-0.0824 0,-0.126178 -0.0026,-0.497843 -0.006,-0.980235 -0.01374,-1.444603 -0.0026,-0.09956 -0.0026,-0.188837 -0.0086,-0.279822 -0.0052,-0.509861 -0.0206,-1.020579 -0.0369,-1.510697 0,-0.03261 -0.0026,-0.06095 -0.0034,-0.09785 -0.01803,-0.492693 -0.04206,-0.963068 -0.06352,-1.436878 -0.0043,-0.03261 -0.0052,-0.06781 -0.0086,-0.108151 -0.02489,-0.462651 -0.0515,-0.925303 -0.08927,-1.367352 0,-0.07468 -0.01116,-0.148495 -0.01631,-0.22918 -0.03176,-0.414583 -0.06867,-0.824016 -0.107295,-1.223149 0,-0.02918 -0.0026,-0.05837 -0.0026,-0.07897 l -0.05322,-0.543335 h -0.01116 c -0.315015,-2.912382 -0.807708,-5.308037 -1.461771,-7.279668 h 0.0206 l -0.302863,-0.803341 c -0.101289,-0.282397 -0.20772,-0.548485 -0.317589,-0.80084 -0.109011,-0.252355 -0.224889,-0.508144 -0.341624,-0.752774 -0.03777,-0.07982 -0.07382,-0.169953 -0.120169,-0.248062 -0.07124,-0.156221 -0.157078,-0.300423 -0.236046,-0.448917 -0.04292,-0.08498 -0.09013,-0.163945 -0.132186,-0.249781 -0.02747,-0.03605 -0.05493,-0.07468 -0.06953,-0.111586 -0.05837,-0.09013 -0.116735,-0.191412 -0.175961,-0.281538 -0.121887,-0.196562 -0.24463,-0.382824 -0.373383,-0.563936 -0.0206,-0.0206 -0.03004,-0.05322 -0.04979,-0.0721 -0.840324,-1.175082 -1.803393,-2.031716 -2.84543,-2.631703 l -0.0086,-0.0077 c 0.670372,-0.325315 1.293534,-0.717581 1.85232,-1.158773 0.01545,-8.58e-4 0.02489,-8.58e-4 0.04463,0.0069 0.73389,0.106434 1.91927,0.382824 3.023109,1.114138 1.557905,2.962167 3.09607,6.158662 4.206774,9.08907 0.613721,2.343296 1.2283,4.707193 1.936438,6.531186 2.079783,9.004094 2.499516,20.09827 -2.846289,20.09827 z"
   id="path3845"
   inkscape:connector-curvature="0"
   style="fill:#0000ff" />
</svg>