<?xml version="1.0" encoding="UTF-8" standalone="no"?>
<svg
   xmlns:dc="http://purl.org/dc/elements/1.1/"
   xmlns:cc="http://creativecommons.org/ns#"
   xmlns:rdf="http://www.w3.org/1999/02/22-rdf-syntax-ns#"
   xmlns:svg="http://www.w3.org/2000/svg"
   xmlns="http://www.w3.org/2000/svg"
   xmlns:sodipodi="http://sodipodi.sourceforge.net/DTD/sodipodi-0.dtd"
   xmlns:inkscape="http://www.inkscape.org/namespaces/inkscape"
   version="1.1"
   id="Layer_1"
   x="0px"
   y="0px"
   width="100.0px"
   height="100px"
   viewBox="0 0 102 102"
   enable-background="new 0 0 102 102"
   xml:space="preserve"
   inkscape:version="0.48.3.1 r9886"
   sodipodi:docname="56.svg"><metadata
   id="metadata3979"><rdf:RDF><cc:Work
       rdf:about=""><dc:format>image/svg+xml</dc:format><dc:type
         rdf:resource="http://purl.org/dc/dcmitype/StillImage" /></cc:Work></rdf:RDF></metadata><defs
   id="defs3977" /><sodipodi:namedview
   pagecolor="#ffffff"
   bordercolor="#666666"
   borderopacity="1"
   objecttolerance="10"
   gridtolerance="10"
   guidetolerance="10"
   inkscape:pageopacity="0"
   inkscape:pageshadow="2"
   inkscape:window-width="1024"
   inkscape:window-height="550"
   id="namedview3975"
   showgrid="false"
   inkscape:zoom="2.36"
   inkscape:cx="50"
   inkscape:cy="50"
   inkscape:window-x="0"
   inkscape:window-y="0"
   inkscape:window-maximized="1"
   inkscape:current-layer="Layer_1" />
<path
   sodipodi:type="arc"
   style="fill:#FFFFFF;stroke:#0000ff;stroke-width:3.5;stroke-miterlimit:4;stroke-dasharray:none"
   id="path4175"
   sodipodi:cx="50.845425"
   sodipodi:cy="48.303154"
   sodipodi:rx="46.608307"
   sodipodi:ry="46.184593"
   d="m 97.453732,48.303154 a 46.608307,46.184593 0 1 1 -93.2166142,0 46.608307,46.184593 0 1 1 93.2166142,0 z"
   transform="matrix(1.0544528,0,0,1.0641267,-2.614103,-0.40067235)" /><path
   d="m 86.930812,28.352997 v -0.01839 l -0.0104,0.0072 L 50.980716,57.8197 v -16.415162 -0.01119 h -0.0056 C 47.612295,33.697859 39.9384,28.318617 31.004445,28.318617 c -12.032935,8e-4 -21.7888075,9.755872 -21.7888075,21.790407 0,8.933955 5.3800415,16.60785 13.0739245,19.969876 v 8.398269 H 50.981517 V 67.981731 L 78.015245,40.947203 h 8.901177 0.0152 v -0.01839 c 1.39597,-1.715793 2.23788,-3.902509 2.23788,-6.287509 0,-2.384999 -0.84271,-4.573314 -2.23868,-6.288308 z M 36.699501,37.59717 v 3.796171 H 22.289562 v 25.198007 c -5.904533,-3.13416 -9.935767,-9.345714 -9.935767,-16.482324 0,-10.284362 8.367088,-18.651449 18.65145,-18.651449 6.201959,0 11.70193,3.046211 15.094338,7.717068 -2.948669,-1.014604 -6.106815,-1.577473 -9.400082,-1.577473 z"
   id="path3973"
   inkscape:connector-curvature="0"
   style="fill:#0000ff" />
</svg>