<?xml version="1.0" encoding="UTF-8" standalone="no"?>
<!-- Generator: Adobe Illustrator 14.0.0, SVG Export Plug-In . SVG Version: 6.00 Build 43363)  -->

<svg
   xmlns:dc="http://purl.org/dc/elements/1.1/"
   xmlns:cc="http://creativecommons.org/ns#"
   xmlns:rdf="http://www.w3.org/1999/02/22-rdf-syntax-ns#"
   xmlns:svg="http://www.w3.org/2000/svg"
   xmlns="http://www.w3.org/2000/svg"
   xmlns:sodipodi="http://sodipodi.sourceforge.net/DTD/sodipodi-0.dtd"
   xmlns:inkscape="http://www.inkscape.org/namespaces/inkscape"
   version="1.0"
   id="Layer_1"
   x="0px"
   y="0px"
   width="100"
   height="100"
   viewBox="0 0 100 100"
   enable-background="new 0 0 100 90.348"
   xml:space="preserve"
   inkscape:version="0.48.3.1 r9886"
   sodipodi:docname="14.svg"><metadata
   id="metadata3024"><rdf:RDF><cc:Work
       rdf:about=""><dc:format>image/svg+xml</dc:format><dc:type
         rdf:resource="http://purl.org/dc/dcmitype/StillImage" /></cc:Work></rdf:RDF></metadata><defs
   id="defs3022" /><sodipodi:namedview
   pagecolor="#ffffff"
   bordercolor="#666666"
   borderopacity="1"
   objecttolerance="10"
   gridtolerance="10"
   guidetolerance="10"
   inkscape:pageopacity="0"
   inkscape:pageshadow="2"
   inkscape:window-width="640"
   inkscape:window-height="480"
   id="namedview3020"
   showgrid="false"
   inkscape:zoom="2.612122"
   inkscape:cx="50"
   inkscape:cy="45.174"
   inkscape:window-x="0"
   inkscape:window-y="0"
   inkscape:window-maximized="0"
   inkscape:current-layer="Layer_1" />
<path
   sodipodi:type="arc"
   style="fill:#FFFFFF;stroke:#ffff00;stroke-width:3.5;stroke-miterlimit:4;stroke-dasharray:none"
   id="path4175"
   sodipodi:cx="50.845425"
   sodipodi:cy="48.303154"
   sodipodi:rx="46.608307"
   sodipodi:ry="46.184593"
   d="m 97.453732,48.303154 a 46.608307,46.184593 0 1 1 -93.2166142,0 46.608307,46.184593 0 1 1 93.2166142,0 z"
   transform="matrix(1.0337773,0,0,1.0432615,-2.5628464,-0.39281853)" /><path
   d="m 77.996272,20.272168 -14.72517,-5.848737 h -0.310807 c -2.855483,3.189251 -7.001755,5.199241 -11.620388,5.199241 -4.618631,0 -8.764904,-2.00999 -11.623666,-5.199241 H 39.405433 L 24.679443,20.272168 10.336424,34.30274 25.657786,46.55622 30.205072,42.369766 V 88.515085 H 51.339907 72.473923 V 42.369766 L 77.017929,46.55622 92.343391,34.30274 77.996272,20.272168 z"
   id="path3018"
   inkscape:connector-curvature="0"
   style="fill:#ffff00" />
</svg>
