<?xml version="1.0" encoding="UTF-8" standalone="no"?>
<!-- Generator: Adobe Illustrator 14.0.0, SVG Export Plug-In . SVG Version: 6.00 Build 43363)  -->

<svg
   xmlns:dc="http://purl.org/dc/elements/1.1/"
   xmlns:cc="http://creativecommons.org/ns#"
   xmlns:rdf="http://www.w3.org/1999/02/22-rdf-syntax-ns#"
   xmlns:svg="http://www.w3.org/2000/svg"
   xmlns="http://www.w3.org/2000/svg"
   xmlns:sodipodi="http://sodipodi.sourceforge.net/DTD/sodipodi-0.dtd"
   xmlns:inkscape="http://www.inkscape.org/namespaces/inkscape"
   version="1.0"
   id="Layer_1"
   x="0px"
   y="0px"
   width="100"
   height="100"
   viewBox="0 0 100 100"
   enable-background="new 0 0 100 93.615"
   xml:space="preserve"
   inkscape:version="0.48.3.1 r9886"
   sodipodi:docname="22.svg"><metadata
   id="metadata3338"><rdf:RDF><cc:Work
       rdf:about=""><dc:format>image/svg+xml</dc:format><dc:type
         rdf:resource="http://purl.org/dc/dcmitype/StillImage" /></cc:Work></rdf:RDF></metadata><defs
   id="defs3336" /><sodipodi:namedview
   pagecolor="#ffffff"
   bordercolor="#666666"
   borderopacity="1"
   objecttolerance="10"
   gridtolerance="10"
   guidetolerance="10"
   inkscape:pageopacity="0"
   inkscape:pageshadow="2"
   inkscape:window-width="640"
   inkscape:window-height="480"
   id="namedview3334"
   showgrid="false"
   inkscape:zoom="2.5209636"
   inkscape:cx="50"
   inkscape:cy="46.807499"
   inkscape:window-x="0"
   inkscape:window-y="0"
   inkscape:window-maximized="0"
   inkscape:current-layer="Layer_1" />
<path
   sodipodi:type="arc"
   style="fill:#FFFFFF;stroke:#ffff00;stroke-width:3.5;stroke-miterlimit:4;stroke-dasharray:none"
   id="path4175"
   sodipodi:cx="50.845425"
   sodipodi:cy="48.303154"
   sodipodi:rx="46.608307"
   sodipodi:ry="46.184593"
   d="m 97.453732,48.303154 a 46.608307,46.184593 0 1 1 -93.2166142,0 46.608307,46.184593 0 1 1 93.2166142,0 z"
   transform="matrix(1.0337773,0,0,1.0432615,-2.5628473,-0.39281662)" /><path
   d="M 87.599413,38.087947 C 86.56781,27.93598 77.995364,20.015155 67.572533,20.015155 c -8.354207,0 -15.516615,5.088366 -18.564217,12.33358 -3.047602,-7.245214 -10.21001,-12.33358 -18.563443,-12.33358 -10.423605,0 -18.996825,7.920825 -20.027654,18.072792 -0.06888,0.676385 -0.103702,1.363605 -0.103702,2.058564 0,24.459756 30.017877,36.003962 38.694799,52.317688 h 0 c 8.676922,-16.312952 38.694799,-27.857158 38.694799,-52.317688 0,-0.694959 -0.03483,-1.382179 -0.103702,-2.058564 z"
   id="path3332"
   inkscape:connector-curvature="0"
   style="fill:#ffff00" />
</svg>
