<?xml version="1.0" encoding="UTF-8" standalone="no"?>
<svg
   xmlns:dc="http://purl.org/dc/elements/1.1/"
   xmlns:cc="http://creativecommons.org/ns#"
   xmlns:rdf="http://www.w3.org/1999/02/22-rdf-syntax-ns#"
   xmlns:svg="http://www.w3.org/2000/svg"
   xmlns="http://www.w3.org/2000/svg"
   xmlns:sodipodi="http://sodipodi.sourceforge.net/DTD/sodipodi-0.dtd"
   xmlns:inkscape="http://www.inkscape.org/namespaces/inkscape"
   version="1.1"
   id="Layer_1"
   x="0px"
   y="0px"
   width="100px"
   height="100px"
   viewBox="0 0 100 100"
   enable-background="new 0 0 100 100"
   xml:space="preserve"
   inkscape:version="0.48.3.1 r9886"
   sodipodi:docname="29.svg"><metadata
   id="metadata3413"><rdf:RDF><cc:Work
       rdf:about=""><dc:format>image/svg+xml</dc:format><dc:type
         rdf:resource="http://purl.org/dc/dcmitype/StillImage" /></cc:Work></rdf:RDF></metadata><defs
   id="defs3411" /><sodipodi:namedview
   pagecolor="#ffffff"
   bordercolor="#666666"
   borderopacity="1"
   objecttolerance="10"
   gridtolerance="10"
   guidetolerance="10"
   inkscape:pageopacity="0"
   inkscape:pageshadow="2"
   inkscape:window-width="640"
   inkscape:window-height="480"
   id="namedview3409"
   showgrid="false"
   inkscape:zoom="2.36"
   inkscape:cx="50"
   inkscape:cy="50"
   inkscape:window-x="0"
   inkscape:window-y="0"
   inkscape:window-maximized="0"
   inkscape:current-layer="Layer_1" />
<path
   sodipodi:type="arc"
   style="fill:#FFFFFF;stroke:#ffff00;stroke-width:3.5;stroke-miterlimit:4;stroke-dasharray:none"
   id="path4175"
   sodipodi:cx="50.845425"
   sodipodi:cy="48.303154"
   sodipodi:rx="46.608307"
   sodipodi:ry="46.184593"
   d="m 97.453732,48.303154 a 46.608307,46.184593 0 1 1 -93.2166142,0 46.608307,46.184593 0 1 1 93.2166142,0 z"
   transform="matrix(1.0337773,0,0,1.0432615,-2.5628462,-0.39281887)" /><g
   id="g3405"
   style="fill:#ffff00"
   transform="matrix(0.85528881,0,0,0.85528881,6.818668,5.8648487)">
	<path
   d="m 46.766,38.269 c 0,1.843 1.494,3.337 3.337,3.337 1.842,0 3.337,-1.494 3.337,-3.337 0,-1.843 -1.495,-3.336 -3.337,-3.336 -1.843,0 -3.337,1.492 -3.337,3.336 l 0,0 z m 0,14.977 c 0,1.842 1.494,3.336 3.337,3.336 1.842,0 3.337,-1.494 3.337,-3.336 0,-1.842 -1.495,-3.337 -3.337,-3.337 -1.843,0 -3.337,1.495 -3.337,3.337 l 0,0 z m -4.13,-40.95 c 0,1.309 1.061,2.371 2.37,2.371 1.309,0 2.371,-1.062 2.371,-2.371 0,-1.309 -1.062,-2.37 -2.371,-2.37 -1.309,0 -2.37,1.061 -2.37,2.37 l 0,0 z m 10.079,0 c 0,1.309 1.061,2.371 2.37,2.371 1.308,0 2.369,-1.062 2.369,-2.371 0,-1.309 -1.062,-2.37 -2.369,-2.37 -1.31,0 -2.37,1.061 -2.37,2.37 l 0,0 z m -6.346,5.178 c -0.887,0.368 -1.883,1.045 -1.883,2.122 0,2.28 4.037,2.762 5.575,2.762 1.537,0 5.575,-0.482 5.575,-2.762 0,-2.28 -4.038,-2.763 -5.575,-2.763 -1.403,0 -2.708,0.233 -3.692,0.641 l 0,0 z M 68.6,27.083 c -1.395,0.154 -1.162,2.246 0.232,2.091 2.694,-0.257 0.043,1.957 1.127,3.978 0.667,1.25 1.683,1.113 2.314,1.832 0.184,1.046 -1.401,2.743 0.34,4.257 2.5,2.175 4.457,-1.028 2.23,-1.316 -1.471,-0.19 -0.885,-0.81 -0.566,-1.909 0.853,-2.943 -2.039,-3.062 -2.466,-3.857 -0.36,-0.673 2.024,-4.889 -2.552,-5.092 C 68.873,27.05 68.6,27.083 68.6,27.083 l 0,0 z M 25.915,40.154 c 1.08,0.896 2.423,-0.724 1.343,-1.62 -2.057,-1.761 1.377,-1.391 2.08,-3.573 0.434,-1.351 -0.368,-1.984 -0.291,-2.939 0.624,-0.858 2.947,-0.896 2.826,-3.202 -0.172,-3.31 -3.836,-2.491 -2.497,-0.689 0.884,1.188 0.031,1.199 -0.979,1.732 -2.709,1.432 -0.787,3.593 -1.062,4.453 -0.234,0.728 -4.922,1.941 -1.89,5.373 0.257,0.291 0.47,0.465 0.47,0.465 l 0,0 z m 1.529,32.279 c -1.003,0.979 0.466,2.485 1.47,1.505 1.966,-1.861 1.24,1.516 3.336,2.441 1.298,0.574 2.011,-0.157 2.952,0.02 0.79,0.709 0.584,3.022 2.889,3.143 3.309,0.175 2.879,-3.553 0.947,-2.409 -1.274,0.756 -1.195,-0.094 -1.621,-1.156 -1.14,-2.843 -3.491,-1.157 -4.318,-1.521 -0.699,-0.308 -1.415,-5.099 -5.145,-2.44 -0.314,0.223 -0.51,0.417 -0.51,0.417 l 0,0 z m 45.673,0.6 c 0,0 -0.195,-0.195 -0.512,-0.42 -3.729,-2.657 -4.445,2.132 -5.145,2.439 -0.824,0.366 -3.178,-1.32 -4.316,1.523 -0.427,1.059 -0.348,1.91 -1.621,1.154 -1.934,-1.143 -2.361,2.586 0.947,2.411 2.305,-0.12 2.1,-2.435 2.889,-3.144 0.939,-0.178 1.654,0.553 2.951,-0.02 2.098,-0.926 1.371,-4.303 3.338,-2.441 1.004,0.983 2.472,-0.523 1.469,-1.502 l 0,0 z m -38.123,21.18 c -4.701,9.73 -19.905,3.66 -15.335,-7.319 3.605,-8.665 8.255,-17.149 12.296,-25.636 1.479,-3.105 3.423,-6.092 4.408,-9.41 0.808,-2.727 -0.548,-6.219 -3.09,-7.696 -3.17,-1.841 -8.901,-2.968 -12.546,-4.218 -10.701,-3.668 -5.309,-19.679 5.437,-16.101 l 14.692,4.959 c 1.566,0.527 1.943,-1.292 1.407,-1.819 -0.127,-0.084 -0.254,-0.171 -0.379,-0.26 -3.635,-2.592 -5.992,-6.815 -5.992,-11.589 0,-7.843 6.358,-14.2 14.2,-14.2 7.843,0 14.199,6.357 14.199,14.2 0,5.043 -2.627,9.471 -6.587,11.99 -0.423,0.614 0.184,2.133 1.537,1.677 l 14.693,-4.959 c 10.751,-3.582 16.128,12.435 5.435,16.102 l -12.172,4.107 c -2.662,0.898 -4.267,5.094 -3.465,7.806 0.986,3.318 2.93,6.303 4.409,9.41 4.042,8.486 8.687,16.971 12.295,25.634 4.573,10.976 -10.631,17.056 -15.335,7.32 L 54.143,71.401 c -0.73,-1.026 -1.859,-1.792 -3.105,-2.054 -0.432,-0.051 -0.799,-0.076 -0.99,-0.076 -0.164,0 -0.455,0.019 -0.804,0.055 -1.647,0.311 -3.1,1.516 -3.733,3.015 l -10.517,21.872 0,0 z M 46.96,18.902 c 0.754,-0.312 1.851,-0.524 3.101,-0.524 1.25,0 2.346,0.212 3.101,0.524 0.852,0.353 0.931,0.671 0.931,0.694 0,0.023 -0.079,0.341 -0.931,0.694 -0.755,0.312 -1.851,0.524 -3.101,0.524 -1.25,0 -2.346,-0.211 -3.101,-0.524 -0.852,-0.353 -0.93,-0.671 -0.93,-0.694 0,-0.023 0.078,-0.342 0.93,-0.694 l 0,0 z"
   id="path3407"
   style="fill:#ffff00"
   inkscape:connector-curvature="0" />
</g>
</svg>
