<?xml version="1.0" encoding="UTF-8" standalone="no"?>
<svg
   xmlns:dc="http://purl.org/dc/elements/1.1/"
   xmlns:cc="http://creativecommons.org/ns#"
   xmlns:rdf="http://www.w3.org/1999/02/22-rdf-syntax-ns#"
   xmlns:svg="http://www.w3.org/2000/svg"
   xmlns="http://www.w3.org/2000/svg"
   xmlns:sodipodi="http://sodipodi.sourceforge.net/DTD/sodipodi-0.dtd"
   xmlns:inkscape="http://www.inkscape.org/namespaces/inkscape"
   version="1.1"
   id="Layer_1"
   x="0px"
   y="0px"
   width="100px"
   height="100px"
   viewBox="0 0 100 100"
   enable-background="new 0 0 100 100"
   xml:space="preserve"
   inkscape:version="0.48.3.1 r9886"
   sodipodi:docname="45.svg"><metadata
   id="metadata3831"><rdf:RDF><cc:Work
       rdf:about=""><dc:format>image/svg+xml</dc:format><dc:type
         rdf:resource="http://purl.org/dc/dcmitype/StillImage" /></cc:Work></rdf:RDF></metadata><defs
   id="defs3829" /><sodipodi:namedview
   pagecolor="#ffffff"
   bordercolor="#666666"
   borderopacity="1"
   objecttolerance="10"
   gridtolerance="10"
   guidetolerance="10"
   inkscape:pageopacity="0"
   inkscape:pageshadow="2"
   inkscape:window-width="640"
   inkscape:window-height="480"
   id="namedview3827"
   showgrid="false"
   inkscape:zoom="2.36"
   inkscape:cx="50"
   inkscape:cy="50"
   inkscape:window-x="0"
   inkscape:window-y="0"
   inkscape:window-maximized="0"
   inkscape:current-layer="Layer_1" />
<path
   sodipodi:type="arc"
   style="fill:#FFFFFF;stroke:#ffff00;stroke-width:3.5;stroke-miterlimit:4;stroke-dasharray:none"
   id="path4175"
   sodipodi:cx="50.845425"
   sodipodi:cy="48.303154"
   sodipodi:rx="46.608307"
   sodipodi:ry="46.184593"
   d="m 97.453732,48.303154 a 46.608307,46.184593 0 1 1 -93.2166142,0 46.608307,46.184593 0 1 1 93.2166142,0 z"
   transform="matrix(1.0337773,0,0,1.0432615,-2.5628462,-0.39281887)" /><g
   id="g3819"
   transform="matrix(0.85201185,0,0,0.85201185,5.7665704,2.6913802)"
   style="fill:#ffff00">
	<g
   id="g3821"
   style="fill:#ffff00">
		<path
   style="fill:#ffff00"
   d="m 24.015,40.683 -14.2377564,0 L 9.7242702,89.187135 24.015,89.768 z"
   id="polygon3823"
   inkscape:connector-curvature="0"
   sodipodi:nodetypes="ccccc" />
		<path
   d="m 97.773,48.294 c 0,-5.249 -4.198,-6.042 -4.198,-6.042 h -27.3 c 0,0 -1.841,-2.357 -0.266,-7.347 1.574,-4.989 1.841,-12.336 0.526,-15.486 -1.309,-3.149 -3.675,-8.926 -9.713,-9.187 -3.541,0.542 -4.725,3.41 -4.725,3.41 v 11.555 c 0,0 -11.283,20.47 -12.857,20.73 -1.579,0.266 -7.864,1.054 -7.864,1.054 v 36.225 h 1.826 c 0,0 13.385,6.561 16.007,6.561 2.628,0 33.078,0 33.078,0 0,0 4.724,-1.053 4.724,-6.299 0,-3.41 -2.888,-5.516 -2.888,-5.516 0,0 7.091,-0.523 7.091,-6.559 0,-2.479 -3.417,-4.725 -3.417,-4.725 0,0 6.565,-1.314 6.305,-6.824 -0.527,-3.412 -2.366,-5.252 -2.366,-5.252 0,0 6.037,-1.051 6.037,-6.298 z"
   id="path3825"
   inkscape:connector-curvature="0"
   style="fill:#ffff00" />
	</g>
</g>
</svg>
