<?xml version="1.0" encoding="UTF-8" standalone="no"?>
<!-- Generator: Adobe Illustrator 14.0.0, SVG Export Plug-In . SVG Version: 6.00 Build 43363)  -->

<svg
   xmlns:dc="http://purl.org/dc/elements/1.1/"
   xmlns:cc="http://creativecommons.org/ns#"
   xmlns:rdf="http://www.w3.org/1999/02/22-rdf-syntax-ns#"
   xmlns:svg="http://www.w3.org/2000/svg"
   xmlns="http://www.w3.org/2000/svg"
   xmlns:sodipodi="http://sodipodi.sourceforge.net/DTD/sodipodi-0.dtd"
   xmlns:inkscape="http://www.inkscape.org/namespaces/inkscape"
   version="1.0"
   id="Layer_1"
   x="0px"
   y="0px"
   width="100"
   height="100"
   viewBox="0 0 100 100"
   enable-background="new 0 0 100 81.03"
   xml:space="preserve"
   inkscape:version="0.48.3.1 r9886"
   sodipodi:docname="46.svg"><metadata
   id="metadata3842"><rdf:RDF><cc:Work
       rdf:about=""><dc:format>image/svg+xml</dc:format><dc:type
         rdf:resource="http://purl.org/dc/dcmitype/StillImage" /></cc:Work></rdf:RDF></metadata><defs
   id="defs3840" /><sodipodi:namedview
   pagecolor="#ffffff"
   bordercolor="#666666"
   borderopacity="1"
   objecttolerance="10"
   gridtolerance="10"
   guidetolerance="10"
   inkscape:pageopacity="0"
   inkscape:pageshadow="2"
   inkscape:window-width="640"
   inkscape:window-height="480"
   id="namedview3838"
   showgrid="false"
   inkscape:zoom="2.0594496"
   inkscape:cx="50"
   inkscape:cy="40.514999"
   inkscape:window-x="0"
   inkscape:window-y="0"
   inkscape:window-maximized="0"
   inkscape:current-layer="Layer_1" />
<path
   sodipodi:type="arc"
   style="fill:#FFFFFF;stroke:#ffff00;stroke-width:3.5;stroke-miterlimit:4;stroke-dasharray:none"
   id="path4175"
   sodipodi:cx="50.845425"
   sodipodi:cy="48.303154"
   sodipodi:rx="46.608307"
   sodipodi:ry="46.184593"
   d="m 97.453732,48.303154 a 46.608307,46.184593 0 1 1 -93.2166142,0 46.608307,46.184593 0 1 1 93.2166142,0 z"
   transform="matrix(1.0337773,0,0,1.0432615,-2.5628462,-0.39281887)" /><path
   d="M 92.871942,62.269777 C 91.848717,59.292067 90.917457,57.709908 90.172806,55.195597 90.028162,54.706306 86.039728,43.641013 68.594012,33.488229 65.692196,31.800711 54.52958,28.593535 52.005446,27.651562 51.317047,27.306915 50.883114,26.832803 50.698291,26.679229 48.980416,25.251537 46.450925,21.474712 44.104472,20.11934 c -3.296463,-1.903591 -5.60988,-2.107164 -8.054548,-2.276809 -2.078594,-0.145537 -5.648272,-0.23661 -9.123309,1.109832 -3.478606,1.342872 -4.475046,3.882184 -4.564333,4.720585 l -0.204466,1.456266 c 0.566077,0.508934 0.942867,1.4018 0.942867,2.22413 0,0.798222 -0.483934,1.608052 -0.483934,2.686635 0,1.378585 0.543756,3.708074 2.908066,5.675058 2.705385,2.246453 6.265244,3.465215 9.350097,5.092018 0.04465,0.02857 0.111606,0.05179 0.169645,0.102677 3.190211,2.686634 0.958046,5.967918 0.958046,5.967918 L 18.237239,39.292754 c -5.75988,-2.914316 -10.3126054,-1.426802 -13.2697791,2.958065 -0.2169662,0.321434 -0.2812532,0.418755 -0.5142913,0.814294 -0.1375013,0.234825 -0.09643,0.555364 0.069641,0.690186 0.2205379,0.178573 0.5500052,0.04732 0.6750065,-0.11071 2.1562729,-2.721458 6.6402483,-3.091104 9.0643803,-1.411621 0.126786,0.08839 0.255359,0.183037 0.38036,0.279467 0.419649,1.589301 0.09821,1.186619 0.978582,4.525939 0.530363,1.995556 2.309846,3.48575 2.309846,3.48575 0,0 13.867108,13.084958 15.276944,14.378721 2.039307,1.871448 6.408102,2.745564 10.074211,1.424122 1.458944,-0.525899 4.710763,-2.095559 7.858118,-3.172355 0.82858,-0.283932 1.265192,-0.109825 1.790196,0.45804 0.795545,0.862509 1.370551,1.433945 3.116105,3.22325 0.409825,0.420539 0.50179,1.047331 0,1.592872 l -8.659912,9.82778 -0.05804,0.05625 c -2.741991,2.887531 -2.577705,5.733987 -1.757161,8.495623 0.328575,1.105371 1.143764,2.459849 1.972343,3.175035 0.208931,0.184819 0.389289,0.137501 0.549112,0.04999 0.182145,-0.140181 0.144644,-0.452684 0.09018,-0.614293 -1.207156,-3.583965 -0.349111,-6.489352 2.696455,-7.950974 1.428587,0.816079 3.360751,1.925912 3.974149,2.283059 1.592874,0.926795 3.865219,0.483041 4.825944,0.227681 2.908958,-0.768758 15.850162,-4.153616 15.850162,-4.153616 9.988497,-2.848243 11.619764,-8.923305 14.192113,-12.026909 0.03214,-0.04197 0.06518,-0.08214 0.09464,-0.122323 1.379478,0.270538 2.096452,0.331254 2.961638,-0.380361 1.583057,-1.301799 0.651793,-3.536643 0.09376,-5.025945 z M 33.128465,29.51408 c 1.768768,1.033046 4.437547,0.855365 4.437547,0.855365 0,0 -0.659829,1.906271 -3.036638,3.03307 -1.228586,0.585719 -2.752709,1.020545 -5.161661,0.950902 -1.585732,-0.04554 -2.996461,-0.894652 -3.67861,-1.92502 -0.839294,-1.257156 -0.97501,-2.768778 -0.97501,-2.768778 0,0 0.79108,-0.09286 1.804482,-0.562507 1.016976,-0.471433 1.327694,-2.410739 1.278586,-3.340213 -0.879474,-0.09017 -2.118772,-0.08304 -3.397357,0.119645 0,0 0.135715,-2.012522 1.851805,-2.452706 1.492872,-0.383038 1.486622,0.445541 3.193783,0.433041 0.100898,-8.93e-4 0.276788,-0.0017 0.390184,-0.0027 0.375895,-0.0027 0.85715,-0.121431 1.13126,-0.212502 1.147333,-0.375897 1.679481,-0.642864 3.085746,-0.586614 1.715196,0.06786 3.708967,0.387505 4.416118,2.828601 -2.043772,-0.300895 -3.951827,-0.435719 -6.789357,-0.177679 -0.02144,1.169654 -0.316967,2.775921 1.449122,3.808073 z"
   id="path3834"
   inkscape:connector-curvature="0"
   style="fill:#ffff00" />
<path
   d="m 27.456086,29.675689 c -0.233932,0.08751 -0.38929,0.435718 -0.368754,0.674115 0.08929,1.02501 0.403576,2.028593 1.541087,2.131272 1.283941,0.122322 1.779483,-0.951795 1.711625,-2.143773 -0.0062,-0.06339 -0.02857,-0.328575 -0.155359,-0.415183 -1.225012,-0.940189 -2.307167,-0.406253 -2.728599,-0.246431 z"
   id="path3836"
   inkscape:connector-curvature="0"
   style="fill:#ffff00" />
</svg>
