<?xml version="1.0" encoding="UTF-8" standalone="no"?>
<!-- Generator: Adobe Illustrator 14.0.0, SVG Export Plug-In . SVG Version: 6.00 Build 43363)  -->

<svg
   xmlns:dc="http://purl.org/dc/elements/1.1/"
   xmlns:cc="http://creativecommons.org/ns#"
   xmlns:rdf="http://www.w3.org/1999/02/22-rdf-syntax-ns#"
   xmlns:svg="http://www.w3.org/2000/svg"
   xmlns="http://www.w3.org/2000/svg"
   xmlns:sodipodi="http://sodipodi.sourceforge.net/DTD/sodipodi-0.dtd"
   xmlns:inkscape="http://www.inkscape.org/namespaces/inkscape"
   version="1.0"
   id="Layer_1"
   x="0px"
   y="0px"
   width="100px"
   height="99.853px"
   viewBox="0 0 100 99.853"
   enable-background="new 0 0 100 99.853"
   xml:space="preserve"
   inkscape:version="0.48.3.1 r9886"
   sodipodi:docname="64.svg"><metadata
   id="metadata4090"><rdf:RDF><cc:Work
       rdf:about=""><dc:format>image/svg+xml</dc:format><dc:type
         rdf:resource="http://purl.org/dc/dcmitype/StillImage" /></cc:Work></rdf:RDF></metadata><defs
   id="defs4088" /><sodipodi:namedview
   pagecolor="#ffffff"
   bordercolor="#666666"
   borderopacity="1"
   objecttolerance="10"
   gridtolerance="10"
   guidetolerance="10"
   inkscape:pageopacity="0"
   inkscape:pageshadow="2"
   inkscape:window-width="640"
   inkscape:window-height="480"
   id="namedview4086"
   showgrid="false"
   inkscape:zoom="2.3634744"
   inkscape:cx="50"
   inkscape:cy="49.926498"
   inkscape:window-x="0"
   inkscape:window-y="0"
   inkscape:window-maximized="0"
   inkscape:current-layer="Layer_1" />
<path
   sodipodi:type="arc"
   style="fill:#FFFFFF;stroke:#ffff00;stroke-width:3.5;stroke-miterlimit:4;stroke-dasharray:none"
   id="path4175"
   sodipodi:cx="50.845425"
   sodipodi:cy="48.303154"
   sodipodi:rx="46.608307"
   sodipodi:ry="46.184593"
   d="m 97.453732,48.303154 a 46.608307,46.184593 0 1 1 -93.2166142,0 46.608307,46.184593 0 1 1 93.2166142,0 z"
   transform="matrix(1.0337773,0,0,1.0432615,-2.5628478,-0.53981887)" /><path
   d="m 56.862164,45.916906 c 2.751852,-0.987827 7.343507,-1.615203 11.752888,0.834225 7.495061,4.162255 14.540244,-2.170897 13.514868,-9.183309 -0.90932,-6.214367 -4.747305,-12.541376 -9.621587,-15.083648 -7.289575,-3.799072 -12.8083,-1.684835 -17.079782,2.951193 -2.796908,3.037893 -5.72216,8.395506 -5.948807,13.490973 -0.107183,2.398911 -2.892483,2.272617 -3.562185,0.40346 -0.98851,-2.751853 -1.615885,-7.344191 0.832178,-11.752206 4.164302,-7.496427 -2.169533,-14.54229 -9.181262,-13.516232 -6.21505,0.910685 -12.541376,4.746621 -15.083648,9.622951 -3.799755,7.288893 -1.685518,12.807617 2.95051,17.077733 3.03721,2.797592 8.397554,5.724209 13.490974,5.950856 2.399593,0.106501 2.273299,2.891801 0.404142,3.56082 -2.753219,0.989192 -7.345556,1.61725 -11.752889,-0.832178 -7.496427,-4.164302 -14.542289,2.170216 -13.515549,9.182627 0.909319,6.21505 4.746621,12.541375 9.62295,15.082965 7.288894,3.800438 12.807618,1.685518 17.077734,-2.95051 2.797592,-3.036527 5.723526,-8.396188 5.949491,-13.49029 0.107183,-2.400276 2.8918,-2.272617 3.562185,-0.406873 0.987826,2.7539 1.615886,7.345555 -0.832861,11.754937 -4.164302,7.494378 2.169533,14.540243 9.181944,13.5135 6.215051,-0.909319 12.541377,-4.74389 15.082966,-9.620219 3.801803,-7.29026 1.686201,-12.806935 -2.949828,-17.079782 -3.036527,-2.795544 -8.397554,-5.722844 -13.49029,-5.948126 -2.399594,-0.107183 -2.272617,-2.8918 -0.404142,-3.562867 z m -8.766197,5.642287 c -1.912166,0 -3.462514,-1.550348 -3.462514,-3.462514 0,-1.912165 1.550348,-3.462515 3.462514,-3.462515 1.912848,0 3.462515,1.55035 3.462515,3.462515 0,1.912166 -1.549667,3.462514 -3.462515,3.462514 z"
   id="path4084"
   inkscape:connector-curvature="0"
   style="fill:#ffff00" />
</svg>
