<?xml version="1.0" encoding="UTF-8" standalone="no"?>
<svg
   xmlns:dc="http://purl.org/dc/elements/1.1/"
   xmlns:cc="http://creativecommons.org/ns#"
   xmlns:rdf="http://www.w3.org/1999/02/22-rdf-syntax-ns#"
   xmlns:svg="http://www.w3.org/2000/svg"
   xmlns="http://www.w3.org/2000/svg"
   xmlns:sodipodi="http://sodipodi.sourceforge.net/DTD/sodipodi-0.dtd"
   xmlns:inkscape="http://www.inkscape.org/namespaces/inkscape"
   version="1.0"
   id="Ebene_2"
   x="0px"
   y="0px"
   width="100px"
   height="100px"
   viewBox="0 0 100 100"
   enable-background="new 0 0 100 100"
   xml:space="preserve"
   inkscape:version="0.48.3.1 r9886"
   sodipodi:docname="11.svg"><metadata
   id="metadata2993"><rdf:RDF><cc:Work
       rdf:about=""><dc:format>image/svg+xml</dc:format><dc:type
         rdf:resource="http://purl.org/dc/dcmitype/StillImage" /></cc:Work></rdf:RDF></metadata><defs
   id="defs2991" /><sodipodi:namedview
   pagecolor="#ffffff"
   bordercolor="#666666"
   borderopacity="1"
   objecttolerance="10"
   gridtolerance="10"
   guidetolerance="10"
   inkscape:pageopacity="0"
   inkscape:pageshadow="2"
   inkscape:window-width="640"
   inkscape:window-height="480"
   id="namedview2989"
   showgrid="false"
   inkscape:zoom="2.36"
   inkscape:cx="50"
   inkscape:cy="50"
   inkscape:window-x="0"
   inkscape:window-y="0"
   inkscape:window-maximized="0"
   inkscape:current-layer="Ebene_2" />
<path
   d="m 83.174406,22.904669 -3.231388,-2.377663 2.115816,-3.409097 -3.873314,1.043764 -1.34623,-3.78047 -1.598649,3.680373 -3.793527,-1.304886 1.879355,3.545461 -1.3883,0.882738 c -4.566013,1.163445 -10.93232,4.183034 -16.369466,13.835855 l -4.608808,-3.076166 -5.453104,8.169501 c -2.318911,-0.778289 -4.799573,-1.20624 -7.381782,-1.20624 -12.818203,0 -23.210145,10.391217 -23.210145,23.20942 0,12.818928 10.391216,23.209419 23.210145,23.209419 12.818928,0 23.210145,-10.390491 23.210145,-23.209419 0,-5.158616 -1.684965,-9.922647 -4.533373,-13.776377 L 62.572583,39.696283 57.316046,36.18709 C 62.665427,26.596648 68.772061,24.018066 73.120473,23.051913 l 0.763783,0.143618 -0.428676,3.989368 3.037722,-2.622103 2.854212,2.822297 -0.157399,-4.008953 3.984291,-0.471471 z M 43.886382,44.872307 c -0.170455,0.36267 -0.603483,0.518618 -0.963976,0.349614 -7.332459,-3.427955 -16.088035,-0.250967 -19.516716,7.082942 -0.123307,0.263299 -0.38443,0.417796 -0.657157,0.417796 -0.102998,0 -0.207447,-0.02176 -0.306819,-0.06818 -0.362669,-0.169732 -0.519343,-0.601309 -0.349613,-0.964704 3.767414,-8.057799 13.389045,-11.548858 21.444667,-7.782169 0.36267,0.170454 0.519343,0.602032 0.349614,0.964701 z m 9.126949,-9.623081 -5.453829,8.169501 c -0.139265,0.209623 -0.369923,0.322776 -0.604208,0.322776 -0.13854,0 -0.27853,-0.03917 -0.401838,-0.121857 -0.332931,-0.22268 -0.422873,-0.67239 -0.200194,-1.006046 l 5.453104,-8.169501 c 0.222679,-0.332931 0.673115,-0.423599 1.006046,-0.200194 0.332931,0.221954 0.422873,0.671664 0.200919,1.005321 z m 23.527844,-12.110272 -1.76185,1.520312 0.210348,-1.959868 c 0.276355,-0.04497 0.541829,-0.08559 0.793522,-0.124033 0.313347,-0.04787 0.604933,-0.09212 0.875485,-0.13854 l -0.347438,-2.064316 c -0.260397,0.04352 -0.541829,0.08704 -0.842845,0.132737 -0.24734,0.03772 -0.509913,0.07834 -0.784817,0.121857 l -1.069876,-2.017895 2.201406,0.756529 0.926984,-2.133949 0.77974,2.191976 2.248553,-0.604933 -1.228,1.977276 1.875003,1.379596 -2.312383,0.274178 0.09139,2.326165 -1.655225,-1.637092 z"
   id="path2987"
   inkscape:connector-curvature="0"
   style="fill:#00FF00" />
<path
   sodipodi:type="arc"
   style="fill:none;stroke:#00FF00;stroke-width:3.5;stroke-miterlimit:4;stroke-dasharray:none"
   id="path4175"
   sodipodi:cx="50.845425"
   sodipodi:cy="48.303154"
   sodipodi:rx="46.608307"
   sodipodi:ry="46.184593"
   d="m 97.453732,48.303154 a 46.608307,46.184593 0 1 1 -93.2166142,0 46.608307,46.184593 0 1 1 93.2166142,0 z"
   transform="matrix(1.0337773,0,0,1.0432615,-2.5628462,-0.39281887)" /></svg>
