<?xml version="1.0" encoding="UTF-8" standalone="no"?>
<!-- Generator: Adobe Illustrator 15.1.0, SVG Export Plug-In . SVG Version: 6.00 Build 0)  -->

<svg
   xmlns:dc="http://purl.org/dc/elements/1.1/"
   xmlns:cc="http://creativecommons.org/ns#"
   xmlns:rdf="http://www.w3.org/1999/02/22-rdf-syntax-ns#"
   xmlns:svg="http://www.w3.org/2000/svg"
   xmlns="http://www.w3.org/2000/svg"
   xmlns:sodipodi="http://sodipodi.sourceforge.net/DTD/sodipodi-0.dtd"
   xmlns:inkscape="http://www.inkscape.org/namespaces/inkscape"
   version="1.1"
   id="Layer_1"
   x="0px"
   y="0px"
   width="100"
   height="100"
   viewBox="0 0 100 100"
   enable-background="new 0 0 100 91.46"
   xml:space="preserve"
   inkscape:version="0.48.3.1 r9886"
   sodipodi:docname="23.svg"><metadata
   id="metadata3351"><rdf:RDF><cc:Work
       rdf:about=""><dc:format>image/svg+xml</dc:format><dc:type
         rdf:resource="http://purl.org/dc/dcmitype/StillImage" /></cc:Work></rdf:RDF></metadata><defs
   id="defs3349" /><sodipodi:namedview
   pagecolor="#ffffff"
   bordercolor="#666666"
   borderopacity="1"
   objecttolerance="10"
   gridtolerance="10"
   guidetolerance="10"
   inkscape:pageopacity="0"
   inkscape:pageshadow="2"
   inkscape:window-width="640"
   inkscape:window-height="480"
   id="namedview3347"
   showgrid="false"
   inkscape:zoom="2.580363"
   inkscape:cx="50"
   inkscape:cy="45.73"
   inkscape:window-x="0"
   inkscape:window-y="0"
   inkscape:window-maximized="0"
   inkscape:current-layer="Layer_1" />
<path
   d="M 57.148137,57.076279 C 56.413224,56.632851 55.36357,56.223532 54.054215,55.849098 v 8.82206 c 0.50002,-0.08372 0.963604,-0.196132 1.373698,-0.337998 2.245052,-0.787629 3.366802,-2.241175 3.366802,-4.371494 7.75e-4,-1.241135 -0.546533,-2.202413 -1.646578,-2.885387 z"
   id="path3341"
   inkscape:connector-curvature="0"
   style="fill:#00FF00" />
<path
   d="m 43.056099,42.812916 c 0,1.348116 0.610877,2.355909 1.830306,3.017176 0.520176,0.292259 1.424088,0.615528 2.702434,0.974457 v -8.423593 c -1.031824,0.201558 -1.940388,0.524052 -2.673751,1.014769 -1.240359,0.812436 -1.858989,1.958993 -1.858989,3.417191 z"
   id="path3343"
   inkscape:connector-curvature="0"
   style="fill:#00FF00" />
<path
   d="m 82.875526,24.466444 c -8.887953,-8.84144 -23.259848,-8.806555 -32.101288,0.08605 -8.84144,-8.892605 -23.212559,-8.92749 -32.100512,-0.08605 -8.888729,8.838339 -9.0949389,23.090849 0.679097,32.866435 10.91129,10.905864 28.367029,28.370906 31.419865,31.428392 3.057487,-3.057486 20.510125,-20.521753 31.421416,-31.428392 9.778687,-9.775586 9.569376,-24.028871 0.681422,-32.866435 z M 62.397961,67.941832 c -2.096984,1.796971 -4.883917,2.872208 -8.343746,3.249742 v 3.79085 h -6.46305 V 71.147387 C 44.275528,70.72954 41.549837,69.678335 39.420294,67.999198 36.57832,65.755697 35.159658,62.67883 35.159658,58.760068 h 7.51193 c 0.240319,1.721774 0.722509,3.008648 1.434166,3.861395 0.804683,0.952752 1.968296,1.608592 3.48386,1.984576 V 54.360667 c -3.868372,-0.868252 -6.541347,-1.817128 -8.011949,-2.831122 -2.537311,-1.736504 -3.80868,-4.456768 -3.80868,-8.15149 0,-3.376104 1.24191,-6.171565 3.730382,-8.407314 1.962094,-1.767513 4.666854,-2.822594 8.091023,-3.19005 v -3.366802 c 0,-0.0062 -0.0023,-0.0062 -0.0023,-0.0062 l 6.466151,0.01163 v 3.528048 c 2.49855,0.458933 4.72267,1.392304 6.670035,2.831121 2.839649,2.110163 4.322654,5.157572 4.46452,9.160833 h -7.56542 c -0.142641,-2.261331 -1.152759,-3.872248 -3.041982,-4.825775 -0.164348,-0.08527 -0.347301,-0.145742 -0.527928,-0.217063 v 9.478675 l 2.446609,0.575992 c 2.897016,0.680648 5.069196,1.594638 6.516541,2.729567 2.245051,1.776816 3.370678,4.342035 3.370678,7.697208 0.0023,3.435797 -1.333387,6.300253 -3.989307,8.56391 z"
   id="path3345"
   inkscape:connector-curvature="0"
   style="fill:#00FF00" />
<path
   sodipodi:type="arc"
   style="fill:none;stroke:#00FF00;stroke-width:3.5;stroke-miterlimit:4;stroke-dasharray:none"
   id="path4175"
   sodipodi:cx="50.845425"
   sodipodi:cy="48.303154"
   sodipodi:rx="46.608307"
   sodipodi:ry="46.184593"
   d="m 97.453732,48.303154 a 46.608307,46.184593 0 1 1 -93.2166142,0 46.608307,46.184593 0 1 1 93.2166142,0 z"
   transform="matrix(1.0337773,0,0,1.0432615,-2.5628467,-0.3928179)" /></svg>
