<?xml version="1.0" encoding="UTF-8" standalone="no"?>
<svg
   xmlns:dc="http://purl.org/dc/elements/1.1/"
   xmlns:cc="http://creativecommons.org/ns#"
   xmlns:rdf="http://www.w3.org/1999/02/22-rdf-syntax-ns#"
   xmlns:svg="http://www.w3.org/2000/svg"
   xmlns="http://www.w3.org/2000/svg"
   xmlns:sodipodi="http://sodipodi.sourceforge.net/DTD/sodipodi-0.dtd"
   xmlns:inkscape="http://www.inkscape.org/namespaces/inkscape"
   version="1.1"
   id="Layer_1"
   x="0px"
   y="0px"
   width="100"
   height="100"
   viewBox="0 0 129.469 129"
   enable-background="new 0 0 129.469 100"
   xml:space="preserve"
   inkscape:version="0.48.3.1 r9886"
   sodipodi:docname="34.svg"><metadata
   id="metadata3713"><rdf:RDF><cc:Work
       rdf:about=""><dc:format>image/svg+xml</dc:format><dc:type
         rdf:resource="http://purl.org/dc/dcmitype/StillImage" /></cc:Work></rdf:RDF></metadata><defs
   id="defs3711" /><sodipodi:namedview
   pagecolor="#ffffff"
   bordercolor="#666666"
   borderopacity="1"
   objecttolerance="10"
   gridtolerance="10"
   guidetolerance="10"
   inkscape:pageopacity="0"
   inkscape:pageshadow="2"
   inkscape:window-width="1024"
   inkscape:window-height="550"
   id="namedview3709"
   showgrid="false"
   inkscape:zoom="3.0444"
   inkscape:cx="50"
   inkscape:cy="38.759689"
   inkscape:window-x="0"
   inkscape:window-y="0"
   inkscape:window-maximized="1"
   inkscape:current-layer="Layer_1" />
<path
   d="m 86.839783,69.292772 c -1.1548,0 -2.090499,0.934947 -2.090499,2.089751 0,0.321153 0.07804,0.621297 0.208599,0.894428 l -0.02026,0.009 c 1.297369,2.760568 2.031969,5.834048 2.031969,9.080848 0,3.24681 -0.7346,6.32103 -2.031969,9.0816 l 0.02026,0.01 c -0.130562,0.27238 -0.208599,0.57402 -0.208599,0.89518 0,1.15405 0.935699,2.089 2.090499,2.089 0.90944,0 1.67555,-0.58453 1.96219,-1.39567 1.49922,-3.25356 2.34713,-6.86654 2.34713,-10.67836 0,-3.81183 -0.84791,-7.42556 -2.34713,-10.678372 -0.28589,-0.81414 -1.05275,-1.397169 -1.96219,-1.397169 z"
   id="path3701"
   inkscape:connector-curvature="0"
   style="fill:#00FF00" />
<path
   d="m 97.546663,65.321119 c -1.15405,0 -2.089,0.936449 -2.089,2.089751 0,0.318903 0.0765,0.616045 0.20335,0.887675 l -0.0105,0.0045 c 1.90441,3.963398 2.99093,8.391265 3.0322,13.065265 -0.0413,4.67398 -1.12779,9.10185 -3.0322,13.066 l 0.0105,0.005 c -0.12756,0.26937 -0.20335,0.56877 -0.20335,0.88617 0,1.15405 0.93495,2.08975 2.089,2.08975 0.88167,0 1.63203,-0.54626 1.93893,-1.31913 2.125767,-4.47439 3.336097,-9.46203 3.377367,-14.72655 -0.0413,-5.26453 -1.2516,-10.252168 -3.377367,-14.72581 -0.3069,-0.775122 -1.05726,-1.322134 -1.93893,-1.322134 z"
   id="path3703"
   inkscape:connector-curvature="0"
   style="fill:#00FF00" />
<path
   d="m 110.43408,62.614573 c -0.0225,-0.06078 -0.0503,-0.117806 -0.078,-0.174834 l 0,0 c -0.34217,-0.68883 -1.04526,-1.167559 -1.86615,-1.167559 -1.1548,0 -2.08975,0.935698 -2.08975,2.089751 0,0.303896 0.0683,0.590533 0.18459,0.851658 l -0.01,0.0045 c 2.45218,5.208995 3.82909,11.020532 3.82909,17.149472 0,6.12968 -1.37691,11.94046 -3.82909,17.14946 l 0.01,0.004 c -0.11631,0.26113 -0.18459,0.54701 -0.18459,0.85166 0,1.154799 0.93495,2.089749 2.08975,2.089749 0.82164,0 1.52398,-0.47873 1.86615,-1.16681 0,-7.5e-4 0,-7.5e-4 0,-7.5e-4 0.0278,-0.0578 0.0555,-0.1148 0.078,-0.17483 2.65853,-5.704239 4.14949,-12.056029 4.14949,-18.752229 7.5e-4,-6.69697 -1.49171,-13.049508 -4.14949,-18.75374 z"
   id="path3705"
   inkscape:connector-curvature="0"
   style="fill:#00FF00" />
<path
   d="m 80.330417,70.369537 -5.9496,-14.977924 c 0,0 -0.613043,-6.205472 -1.173562,-8.58186 C 70.730319,36.123885 58.817613,26.42699 45.897925,26.42699 c -15.716277,0 -28.461882,12.747856 -28.461882,28.47764 0,9.083851 4.254538,17.180229 10.880211,22.392223 v 24.164577 h 30.379051 v -8.714667 h 4.460886 c 6.197969,0 11.224626,-5.02741 11.224626,-11.23138 v -7.95757 h 3.817079 c 1.267357,0 2.302853,-1.03174 2.302853,-2.295348 0.0015,-0.318152 -0.05628,-0.622798 -0.170332,-0.892928 z M 64.476824,61.771169 c -2.14978,0 -3.892865,-1.742334 -3.892865,-3.892864 0,-2.14978 1.743085,-3.892865 3.892865,-3.892865 2.15053,0 3.892864,1.743085 3.892864,3.892865 7.51e-4,2.15053 -1.741584,3.892864 -3.892864,3.892864 z"
   id="path3707"
   inkscape:connector-curvature="0"
   style="fill:#00FF00" />
<path
   style="fill:#ffffff;stroke:#00FF00;stroke-width:1.30174850999999991px;stroke-linecap:butt;stroke-linejoin:miter;stroke-opacity:1"
   d="m 74.547677,75.703281 c -1.203507,1.015046 -2.952015,1.034775 -4.299191,1.701078 -0.462148,0.228575 -0.827608,0.621962 -1.289756,0.850539 -0.405333,0.200473 -0.859839,0.283512 -1.289757,0.425269 -1.593757,0.525506 -0.884427,0.224795 -2.149596,0.850539 -0.286613,0.141756 -0.573226,0.283516 -0.859838,0.425266 -0.143306,0 -0.301742,-0.0634 -0.42992,0 -0.181269,0.0897 -0.248649,0.33562 -0.429919,0.42527 -0.128175,0.0634 -0.328585,-0.10023 -0.429918,0 -0.202666,0.20048 0.202667,0.65007 0,0.85054 -0.101331,0.10024 -0.42992,0.14176 -0.42992,0 0,-0.14176 0.286614,0 0.42992,0 0.143307,0 0.286613,0 0.429918,0 0.202707,0 2.130111,-0.0193 2.149596,0 0.101331,0.10024 -0.101331,0.32503 0,0.42527 0.101331,0.10023 0.289396,-0.0278 0.42992,0 0.579392,0.11463 1.15913,0.24044 1.719675,0.42527 0.607997,0.20047 1.11168,0.65006 1.719677,0.85054 0.135952,0.0448 0.301742,-0.0634 0.429918,0 0.181269,0.0897 0.248649,0.33561 0.429919,0.42527 0.128175,0.0634 0.301743,-0.0634 0.429919,0 1.789221,0.88493 -0.459598,-0.0294 0.429919,0.85054 0.101331,0.10023 0.301743,-0.0634 0.42992,0 1.78922,0.88493 -0.459599,-0.0294 0.429919,0.85053 0.889517,0.8799 -0.03478,-1.3446 0.859838,0.42527 0.06409,0.12679 -0.101331,0.32504 0,0.42527 0.101331,0.10024 0.328586,-0.10023 0.429919,0 0.101331,0.10024 -0.101331,0.32504 0,0.42527 0.573226,0.56703 0.429919,-0.70878 0.429919,0.42527"
   id="path4497"
   inkscape:connector-curvature="0" /><path
   sodipodi:type="arc"
   style="fill:none;stroke:#00FF00;stroke-width:3.5;stroke-miterlimit:4;stroke-dasharray:none"
   id="path4175"
   sodipodi:cx="50.845425"
   sodipodi:cy="48.303154"
   sodipodi:rx="46.608307"
   sodipodi:ry="46.184593"
   d="m 97.453732,48.303154 a 46.608307,46.184593 0 1 1 -93.2166142,0 46.608307,46.184593 0 1 1 93.2166142,0 z"
   transform="matrix(1.3384211,0,0,1.3507002,-3.3180892,-0.74307564)" /></svg>
