<?xml version="1.0" encoding="UTF-8" standalone="no"?>
<!-- Generator: Adobe Illustrator 14.0.0, SVG Export Plug-In . SVG Version: 6.00 Build 43363)  -->

<svg
   xmlns:dc="http://purl.org/dc/elements/1.1/"
   xmlns:cc="http://creativecommons.org/ns#"
   xmlns:rdf="http://www.w3.org/1999/02/22-rdf-syntax-ns#"
   xmlns:svg="http://www.w3.org/2000/svg"
   xmlns="http://www.w3.org/2000/svg"
   xmlns:sodipodi="http://sodipodi.sourceforge.net/DTD/sodipodi-0.dtd"
   xmlns:inkscape="http://www.inkscape.org/namespaces/inkscape"
   version="1.0"
   id="Layer_1"
   x="0px"
   y="0px"
   width="99.999001"
   height="100"
   viewBox="0 0 99.999 100"
   enable-background="new 0 0 99.999 90.895"
   xml:space="preserve"
   inkscape:version="0.48.3.1 r9886"
   sodipodi:docname="51.svg"><metadata
   id="metadata3932"><rdf:RDF><cc:Work
       rdf:about=""><dc:format>image/svg+xml</dc:format><dc:type
         rdf:resource="http://purl.org/dc/dcmitype/StillImage" /></cc:Work></rdf:RDF></metadata><defs
   id="defs3930" /><sodipodi:namedview
   pagecolor="#ffffff"
   bordercolor="#666666"
   borderopacity="1"
   objecttolerance="10"
   gridtolerance="10"
   guidetolerance="10"
   inkscape:pageopacity="0"
   inkscape:pageshadow="2"
   inkscape:window-width="640"
   inkscape:window-height="480"
   id="namedview3928"
   showgrid="false"
   inkscape:zoom="2.5964025"
   inkscape:cx="49.9995"
   inkscape:cy="45.447498"
   inkscape:window-x="0"
   inkscape:window-y="0"
   inkscape:window-maximized="0"
   inkscape:current-layer="Layer_1" />
<path
   d="m 24.831467,64.137119 c -5.117449,0 -9.265484,4.148035 -9.265484,9.263969 0,5.118207 4.148035,9.266242 9.265484,9.266242 5.115935,0 9.26397,-4.148792 9.26397,-9.266242 0,-5.116692 -4.148035,-9.263969 -9.26397,-9.263969 z m 0,12.381244 c -1.722226,0 -3.117274,-1.395049 -3.117274,-3.117275 0,-1.720711 1.395048,-3.117274 3.117274,-3.117274 1.721469,0 3.117275,1.396563 3.117275,3.117274 -7.58e-4,1.722984 -1.395806,3.117275 -3.117275,3.117275 z"
   id="path3922"
   inkscape:connector-curvature="0"
   style="fill:#00FF00" />
<path
   d="m 77.02309,64.137119 c -5.118207,0 -9.266242,4.148035 -9.266242,9.263969 0,5.118207 4.148793,9.266242 9.266242,9.266242 5.11442,0 9.261697,-4.148792 9.261697,-9.266242 7.58e-4,-5.116692 -4.147277,-9.263969 -9.261697,-9.263969 z m 0,12.381244 c -1.722983,0 -3.117274,-1.395049 -3.117274,-3.117275 0,-1.720711 1.394291,-3.117274 3.117274,-3.117274 1.720711,0 3.116517,1.396563 3.116517,3.117274 0,1.722984 -1.395049,3.117275 -3.116517,3.117275 z"
   id="path3924"
   inkscape:connector-curvature="0"
   style="fill:#00FF00" />
<path
   d="m 59.493345,37.726627 c -7.274397,-7.403148 -7.92345,-23.898346 -7.92345,-23.898346 -46.2395683,0 -35.459373,48.577524 -35.459373,48.577524 h 17.14425 c 0,0 -1.354908,-7.447832 6.234549,-7.013867 0,0 10.260649,0.130265 23.89986,7.013867 H 90.4048 C 93.867431,49.242971 70.821108,49.258875 59.493345,37.726627 z M 46.068466,21.772181 c 0,-0.932305 0.755841,-1.688145 1.688145,-1.688145 0.932304,0 1.688145,0.75584 1.688145,1.688145 0,0.932304 -0.756598,1.688145 -1.688145,1.688145 -0.932304,7.57e-4 -1.688145,-0.755084 -1.688145,-1.688145 z m 4.026101,10.629481 c -0.932305,0 -1.688145,-0.756598 -1.688145,-1.688145 0,-0.932304 0.75584,-1.688145 1.688145,-1.688145 0.931546,0 1.688144,0.755841 1.688144,1.688145 7.58e-4,0.931547 -0.756598,1.688145 -1.688144,1.688145 z m 4.911448,8.745938 c -0.931547,0 -1.688145,-0.756598 -1.688145,-1.688145 0,-0.932304 0.756598,-1.688145 1.688145,-1.688145 0.93079,0 1.688145,0.755841 1.688145,1.688145 0,0.931547 -0.757355,1.688145 -1.688145,1.688145 z"
   id="path3926"
   inkscape:connector-curvature="0"
   style="fill:#00FF00" />
<path
   sodipodi:type="arc"
   style="fill:none;stroke:#00FF00;stroke-width:3.5;stroke-miterlimit:4;stroke-dasharray:none"
   id="path4175"
   sodipodi:cx="50.845425"
   sodipodi:cy="48.303154"
   sodipodi:rx="46.608307"
   sodipodi:ry="46.184593"
   d="m 97.453732,48.303154 a 46.608307,46.184593 0 1 1 -93.2166142,0 46.608307,46.184593 0 1 1 93.2166142,0 z"
   transform="matrix(1.0337773,0,0,1.0432615,-2.5628483,-0.39281521)" /></svg>
