<?xml version="1.0" encoding="UTF-8" standalone="no"?>
<!-- Generator: Adobe Illustrator 14.0.0, SVG Export Plug-In . SVG Version: 6.00 Build 43363)  -->

<svg
   xmlns:dc="http://purl.org/dc/elements/1.1/"
   xmlns:cc="http://creativecommons.org/ns#"
   xmlns:rdf="http://www.w3.org/1999/02/22-rdf-syntax-ns#"
   xmlns:svg="http://www.w3.org/2000/svg"
   xmlns="http://www.w3.org/2000/svg"
   xmlns:sodipodi="http://sodipodi.sourceforge.net/DTD/sodipodi-0.dtd"
   xmlns:inkscape="http://www.inkscape.org/namespaces/inkscape"
   version="1.0"
   id="Layer_1"
   x="0px"
   y="0px"
   width="95.774px"
   height="100px"
   viewBox="0 0 95.774 100"
   enable-background="new 0 0 95.774 100"
   xml:space="preserve"
   inkscape:version="0.48.3.1 r9886"
   sodipodi:docname="61.svg"><metadata
   id="metadata4045"><rdf:RDF><cc:Work
       rdf:about=""><dc:format>image/svg+xml</dc:format><dc:type
         rdf:resource="http://purl.org/dc/dcmitype/StillImage" /></cc:Work></rdf:RDF></metadata><defs
   id="defs4043" /><sodipodi:namedview
   pagecolor="#ffffff"
   bordercolor="#666666"
   borderopacity="1"
   objecttolerance="10"
   gridtolerance="10"
   guidetolerance="10"
   inkscape:pageopacity="0"
   inkscape:pageshadow="2"
   inkscape:window-width="1024"
   inkscape:window-height="550"
   id="namedview4041"
   showgrid="false"
   inkscape:zoom="2.36"
   inkscape:cx="47.887001"
   inkscape:cy="50"
   inkscape:window-x="0"
   inkscape:window-y="0"
   inkscape:window-maximized="1"
   inkscape:current-layer="Layer_1" />
<path
   id="path2841"
   d="m 48.991849,9.7830363 c -9.050832,0 -16.386567,7.4129707 -16.386567,16.5641267 0,4.720892 1.986613,8.96643 5.124585,11.986559 2.424542,2.331383 5.881009,7.621584 7.031572,11.863938 -2.245389,-1.36714 -4.264648,-2.92458 -5.482094,-4.216077 -2.986687,-3.17221 -7.185247,-5.119012 -11.85518,-5.119012 -9.051627,-7.96e-4 -16.383381,7.410582 -16.383381,16.561739 0,9.149564 7.331754,16.563331 16.384178,16.563331 4.669136,0 8.868492,-2.006518 11.855179,-5.178728 1.279554,-1.36077 3.446911,-3.082235 5.83642,-4.518647 -0.333623,15.191413 -5.492446,25.116513 -14.892825,25.116513 h 37.591962 c -9.425062,0 -14.641214,-9.979243 -14.95095,-25.236745 2.520092,1.462688 4.865011,3.225557 6.194727,4.638879 2.988279,3.17221 7.18445,5.178728 11.856771,5.178728 9.050036,0 16.384178,-7.413767 16.384178,-16.563331 0,-9.151157 -7.334142,-16.562535 -16.384178,-16.562535 -4.671524,0 -8.868492,1.946801 -11.856771,5.119011 -1.266018,1.344048 -3.462836,2.935728 -5.839605,4.336309 1.116325,-4.261463 4.642859,-9.6289 7.09129,-11.983373 3.137176,-3.020129 5.063274,-7.265667 5.063274,-11.986559 0,-9.151156 -7.334143,-16.5641267 -16.382585,-16.5641267 z"
   inkscape:connector-curvature="0"
   style="fill:#00FF00" />
<path
   style="fill:none;stroke:#00FF00;stroke-width:3.48566055;stroke-miterlimit:4;stroke-dasharray:none"
   d="M 47.485761,1.8172698 C 23.154444,2.4920534 1.8924581,24.12668 1.7855981,48.771891 0.70627296,72.958883 20.200255,95.270804 43.860732,97.789767 68.028552,101.38261 92.703688,83.841475 97.182754,59.650859 102.55823,35.951919 87.170985,10.486004 64.247653,3.8805214 58.831546,2.2690413 53.147265,1.4871948 47.485761,1.8172698 z"
   id="path4175"
   inkscape:connector-curvature="0" /></svg>
