<?xml version="1.0" encoding="UTF-8" standalone="no"?>
<svg
   xmlns:dc="http://purl.org/dc/elements/1.1/"
   xmlns:cc="http://creativecommons.org/ns#"
   xmlns:rdf="http://www.w3.org/1999/02/22-rdf-syntax-ns#"
   xmlns:svg="http://www.w3.org/2000/svg"
   xmlns="http://www.w3.org/2000/svg"
   xmlns:sodipodi="http://sodipodi.sourceforge.net/DTD/sodipodi-0.dtd"
   xmlns:inkscape="http://www.inkscape.org/namespaces/inkscape"
   version="1.1"
   id="Layer_1"
   x="0px"
   y="0px"
   width="100px"
   height="100px"
   viewBox="0 0 100 100"
   enable-background="new 0 0 100 100"
   xml:space="preserve"
   inkscape:version="0.48.3.1 r9886"
   sodipodi:docname="62.svg"><metadata
   id="metadata4056"><rdf:RDF><cc:Work
       rdf:about=""><dc:format>image/svg+xml</dc:format><dc:type
         rdf:resource="http://purl.org/dc/dcmitype/StillImage" /></cc:Work></rdf:RDF></metadata><defs
   id="defs4054" /><sodipodi:namedview
   pagecolor="#ffffff"
   bordercolor="#666666"
   borderopacity="1"
   objecttolerance="10"
   gridtolerance="10"
   guidetolerance="10"
   inkscape:pageopacity="0"
   inkscape:pageshadow="2"
   inkscape:window-width="640"
   inkscape:window-height="480"
   id="namedview4052"
   showgrid="false"
   inkscape:zoom="2.36"
   inkscape:cx="50"
   inkscape:cy="50"
   inkscape:window-x="0"
   inkscape:window-y="0"
   inkscape:window-maximized="0"
   inkscape:current-layer="Layer_1" />
<g
   id="g4048"
   style="fill:#00FF00"
   transform="matrix(0.79149679,0,0,0.79149679,9.4458928,13.85074)">
	<path
   d="M 87.905,12.212 C 87.304,7.271 87.157,5.263 84.391,4.457 81.625,3.649 78.515,2.547 68.654,3.389 58.854,4.225 64.366,4.546 50,4.695 35.634,4.546 41.147,4.224 31.346,3.388 21.487,2.546 18.376,3.648 15.609,4.456 c -2.764,0.806 -2.912,2.814 -3.515,7.755 -0.602,4.941 2.561,20.078 4.616,37.116 2.055,17.038 3.271,17.495 11.5,29.096 8.228,11.599 11.169,18.49 21.79,18.49 10.622,0 13.365,-6.891 21.593,-18.489 C 79.821,66.823 81.236,66.366 83.291,49.328 85.348,32.29 88.509,17.153 87.905,12.212 z M 50.91,71.799 c -6.064,0 -16.525,8.035 -17.282,-3.032 -0.758,-9.702 11.369,-3.184 17.13,-3.184 5.761,0 17.131,-7.124 17.282,2.427 0.151,9.551 -11.066,3.789 -17.13,3.789 z M 59.6,35.52 c 2.274,-1.516 10.435,-4.877 14.402,-0.91 2.729,2.729 2.426,5.459 -0.455,6.52 -2.88,1.059 -8.943,-2.73 -13.947,-5.61 z m -31.683,5.609 c -2.881,-1.061 -3.184,-3.791 -0.455,-6.52 3.968,-3.967 12.128,-0.605 14.402,0.91 -5.003,2.881 -11.067,6.67 -13.947,5.61 z"
   id="path4050"
   style="fill:#00FF00"
   inkscape:connector-curvature="0" />
</g>
<path
   sodipodi:type="arc"
   style="fill:none;stroke:#00FF00;stroke-width:3.5;stroke-miterlimit:4;stroke-dasharray:none"
   id="path4175"
   sodipodi:cx="50.845425"
   sodipodi:cy="48.303154"
   sodipodi:rx="46.608307"
   sodipodi:ry="46.184593"
   d="m 97.453732,48.303154 a 46.608307,46.184593 0 1 1 -93.2166142,0 46.608307,46.184593 0 1 1 93.2166142,0 z"
   transform="matrix(1.0337773,0,0,1.0432615,-2.5628462,-0.39281887)" /></svg>
