<?xml version="1.0" encoding="UTF-8" standalone="no"?>
<svg
   xmlns:dc="http://purl.org/dc/elements/1.1/"
   xmlns:cc="http://creativecommons.org/ns#"
   xmlns:rdf="http://www.w3.org/1999/02/22-rdf-syntax-ns#"
   xmlns:svg="http://www.w3.org/2000/svg"
   xmlns="http://www.w3.org/2000/svg"
   xmlns:sodipodi="http://sodipodi.sourceforge.net/DTD/sodipodi-0.dtd"
   xmlns:inkscape="http://www.inkscape.org/namespaces/inkscape"
   version="1.1"
   id="Layer_1"
   x="0px"
   y="0px"
   width="100px"
   height="100px"
   viewBox="0 0 100 100"
   enable-background="new 0 0 100 100"
   xml:space="preserve"
   inkscape:version="0.48.3.1 r9886"
   sodipodi:docname="66.svg"><metadata
   id="metadata4134"><rdf:RDF><cc:Work
       rdf:about=""><dc:format>image/svg+xml</dc:format><dc:type
         rdf:resource="http://purl.org/dc/dcmitype/StillImage" /></cc:Work></rdf:RDF></metadata><defs
   id="defs4132" /><sodipodi:namedview
   pagecolor="#ffffff"
   bordercolor="#666666"
   borderopacity="1"
   objecttolerance="10"
   gridtolerance="10"
   guidetolerance="10"
   inkscape:pageopacity="0"
   inkscape:pageshadow="2"
   inkscape:window-width="1024"
   inkscape:window-height="550"
   id="namedview4130"
   showgrid="false"
   inkscape:zoom="1.668772"
   inkscape:cx="14.220926"
   inkscape:cy="50"
   inkscape:window-x="0"
   inkscape:window-y="0"
   inkscape:window-maximized="1"
   inkscape:current-layer="Layer_1" />
<path
   d="M19.343,33.877l-0.771-1.817c-0.43-1.013-1.681-1.814-2.78-1.782l-7.168,0.214c-1.1,0.033-1.71,0.912-1.358,1.954  l2.384,7.044c0.133,0.394,0.369,0.696,0.662,0.89c2.406-1.918,5.577-3.669,9.136-5.166C19.545,34.771,19.523,34.301,19.343,33.877z"
   id="path4116"
   style="fill:#00FF00" />
<path
   d="M19.343,59.446l-0.771,1.818c-0.43,1.012-1.681,1.814-2.78,1.781l-7.168-0.215c-1.1-0.032-1.71-0.912-1.358-1.953  l2.384-7.045c0.133-0.395,0.369-0.695,0.662-0.891c2.406,1.919,5.577,3.67,9.136,5.166C19.545,58.553,19.523,59.022,19.343,59.446z"
   id="path4118"
   style="fill:#00FF00" />
<path
   d="M40.485,63.707c-0.455,0.071-0.712,0.451-0.566,0.927l1.412,4.588c0.162,0.526,0.744,0.956,1.294,0.956H61.29  c0.55,0,1.132-0.43,1.294-0.956l0.29-0.962h-6.42c-0.174,0-0.359-0.137-0.41-0.304l-0.448-1.455  c-0.051-0.167,0.05-0.304,0.225-0.304h7.688l0.487-1.563c0.01-0.032,0.002-0.061,0.009-0.092c-2.152,0.129-4.443,0.197-6.848,0.197  C51.568,64.739,45.846,64.375,40.485,63.707z"
   id="path4120"
   style="fill:#00FF00" />
<path
   d="M94.251,45.304l-1.297-1.296c-0.247-0.247-0.477-0.378-0.68-0.421c0.218,0.979,0.35,2.014,0.35,3.132  c0,1.117-0.13,2.151-0.343,3.13c0.201-0.045,0.429-0.175,0.673-0.42l1.297-1.296C95.028,47.354,95.028,46.082,94.251,45.304z"
   id="path4122"
   style="fill:#00FF00" />
<path
   d="M90.636,41.956c-2.249-5.048-8.133-7.921-15.012-10.071c-8.8-2.75-27.7-2.75-42,0C21.07,34.3,10.522,39.739,8.134,44.691  C19.023,40.585,51.855,30.644,90.636,41.956z"
   id="path4124"
   style="fill:#00FF00" />
<path
   d="M7.715,45.919c-0.055,0.269-0.09,0.536-0.09,0.8s0.037,0.531,0.092,0.8c9.955,3.866,43.564,14.667,83.371,2.797  c0.339-1.102,0.537-2.29,0.537-3.597c0-1.309-0.203-2.497-0.55-3.601C51.26,31.251,17.665,42.053,7.715,45.919z"
   id="path4126"
   style="fill:#00FF00" />
<path
   d="M8.142,48.751c2.423,4.95,13.104,10.387,25.816,12.801c14.483,2.75,33.383,2.75,42,0  c6.734-2.149,12.494-5.021,14.697-10.068c-13.163,3.843-25.649,5.241-36.818,5.241C32.112,56.725,15.349,51.466,8.142,48.751z"
   id="path4128"
   style="fill:#00FF00" />
<path
   style="fill:none;stroke:#00FF00;stroke-width:3.48566055;stroke-miterlimit:4;stroke-dasharray:none"
   d="M 47.485762,1.8172714 C 23.154444,2.4920553 1.8924591,24.126683 1.7855991,48.771894 0.70627404,72.958886 20.200256,95.270806 43.860732,97.789766 68.028551,101.38261 92.703686,83.841476 97.182753,59.650861 102.55824,35.951921 87.170985,10.486007 64.247653,3.8805237 58.831545,2.2690437 53.147266,1.4871969 47.485762,1.8172714 z"
   id="path4175"
   inkscape:connector-curvature="0" /></svg>
