<?xml version="1.0" encoding="UTF-8" standalone="no"?>
<!-- Generator: Adobe Illustrator 14.0.0, SVG Export Plug-In . SVG Version: 6.00 Build 43363)  -->

<svg
   xmlns:dc="http://purl.org/dc/elements/1.1/"
   xmlns:cc="http://creativecommons.org/ns#"
   xmlns:rdf="http://www.w3.org/1999/02/22-rdf-syntax-ns#"
   xmlns:svg="http://www.w3.org/2000/svg"
   xmlns="http://www.w3.org/2000/svg"
   xmlns:sodipodi="http://sodipodi.sourceforge.net/DTD/sodipodi-0.dtd"
   xmlns:inkscape="http://www.inkscape.org/namespaces/inkscape"
   version="1.0"
   id="Layer_1"
   x="0px"
   y="0px"
   width="100px"
   height="100px"
   viewBox="0 0 100 100"
   enable-background="new 0 0 100 100"
   xml:space="preserve"
   inkscape:version="0.48.3.1 r9886"
   sodipodi:docname="10.svg"><metadata
   id="metadata9"><rdf:RDF><cc:Work
       rdf:about=""><dc:format>image/svg+xml</dc:format><dc:type
         rdf:resource="http://purl.org/dc/dcmitype/StillImage" /></cc:Work></rdf:RDF></metadata><defs
   id="defs7" /><sodipodi:namedview
   pagecolor="#ffffff"
   bordercolor="#666666"
   borderopacity="1"
   objecttolerance="10"
   gridtolerance="10"
   guidetolerance="10"
   inkscape:pageopacity="0"
   inkscape:pageshadow="2"
   inkscape:window-width="640"
   inkscape:window-height="480"
   id="namedview5"
   showgrid="false"
   inkscape:zoom="2.36"
   inkscape:cx="50"
   inkscape:cy="50"
   inkscape:window-x="0"
   inkscape:window-y="0"
   inkscape:window-maximized="0"
   inkscape:current-layer="Layer_1" />
<path
   sodipodi:type="arc"
   style="fill:#FFFFFF;stroke:#ff0000;stroke-width:3.5;stroke-miterlimit:4;stroke-dasharray:none"
   id="path4175"
   sodipodi:cx="50.845425"
   sodipodi:cy="48.303154"
   sodipodi:rx="46.608307"
   sodipodi:ry="46.184593"
   d="m 97.453732,48.303154 a 46.608307,46.184593 0 1 1 -93.2166142,0 46.608307,46.184593 0 1 1 93.2166142,0 z"
   transform="matrix(1.0337773,0,0,1.0432615,-2.5628462,-0.39281887)" /><path
   d="m 48.093221,13.559322 c -20.009174,0 -36.228814,16.21964 -36.228814,36.228813 0,20.009174 16.21964,36.228814 36.228814,36.228814 20.008449,0 36.228813,-16.221089 36.228813,-36.229538 0,-20.008449 -16.220364,-36.228089 -36.228813,-36.228089 z m 3.917783,23.027758 c -2.380957,0 -4.311953,-1.930995 -4.311953,-4.311953 7.25e-4,-2.381682 1.930996,-4.311953 4.312678,-4.312678 2.380958,0 4.311953,1.930996 4.311953,4.312678 0,2.381682 -1.930995,4.311953 -4.312678,4.311953 z m 12.86775,12.868475 c -2.380233,0 -4.311228,-1.930996 -4.311228,-4.311953 0,-2.381683 1.930995,-4.311954 4.311953,-4.311954 2.381682,0 4.311229,1.930996 4.311229,4.311954 0,2.380957 -1.929547,4.311953 -4.311954,4.311953 z m 2.324441,-15.190742 c -2.381682,0 -4.311953,-1.930995 -4.311953,-4.311953 0,-2.381682 1.930271,-4.311953 4.311953,-4.312678 2.380958,0 4.311229,1.930996 4.311229,4.312678 0,2.380958 -1.929547,4.311953 -4.311229,4.311953 z"
   id="path3"
   inkscape:connector-curvature="0"
   style="fill:#ff0000" />
</svg>
