<?xml version="1.0" encoding="UTF-8" standalone="no"?>
<!-- Generator: Adobe Illustrator 14.0.0, SVG Export Plug-In . SVG Version: 6.00 Build 43363)  -->

<svg
   xmlns:dc="http://purl.org/dc/elements/1.1/"
   xmlns:cc="http://creativecommons.org/ns#"
   xmlns:rdf="http://www.w3.org/1999/02/22-rdf-syntax-ns#"
   xmlns:svg="http://www.w3.org/2000/svg"
   xmlns="http://www.w3.org/2000/svg"
   xmlns:sodipodi="http://sodipodi.sourceforge.net/DTD/sodipodi-0.dtd"
   xmlns:inkscape="http://www.inkscape.org/namespaces/inkscape"
   version="1.0"
   id="Layer_1"
   x="0px"
   y="0px"
   width="100"
   height="100"
   viewBox="0 0 100 100"
   enable-background="new 0 0 60.633 100"
   xml:space="preserve"
   inkscape:version="0.48.3.1 r9886"
   sodipodi:docname="31.svg"><metadata
   id="metadata3677"><rdf:RDF><cc:Work
       rdf:about=""><dc:format>image/svg+xml</dc:format><dc:type
         rdf:resource="http://purl.org/dc/dcmitype/StillImage" /></cc:Work></rdf:RDF></metadata><defs
   id="defs3675" /><sodipodi:namedview
   pagecolor="#ffffff"
   bordercolor="#666666"
   borderopacity="1"
   objecttolerance="10"
   gridtolerance="10"
   guidetolerance="10"
   inkscape:pageopacity="0"
   inkscape:pageshadow="2"
   inkscape:window-width="640"
   inkscape:window-height="480"
   id="namedview3673"
   showgrid="false"
   inkscape:zoom="2.36"
   inkscape:cx="30.3165"
   inkscape:cy="50"
   inkscape:window-x="0"
   inkscape:window-y="26"
   inkscape:window-maximized="0"
   inkscape:current-layer="Layer_1" />
<path
   sodipodi:type="arc"
   style="fill:#FFFFFF;stroke:#ff0000;stroke-width:3.5;stroke-miterlimit:4;stroke-dasharray:none"
   id="path4175"
   sodipodi:cx="50.845425"
   sodipodi:cy="48.303154"
   sodipodi:rx="46.608307"
   sodipodi:ry="46.184593"
   d="m 97.453732,48.303154 a 46.608307,46.184593 0 1 1 -93.2166142,0 46.608307,46.184593 0 1 1 93.2166142,0 z"
   transform="matrix(1.0337773,0,0,1.0432615,-2.5628462,-0.39281839)" /><path
   d="m 30.317,0.002 0,0 c 0,0 0,0 0,-0.002 l 0,0 0,0 c 0,0 0,0 -0.002,0 l 0,0 0,0 h -0.001 l 0,0 V 0.002 0 0.002 h 0.001 l 0,0 0,0 c 0.002,0 0.002,0 0.002,0 l 0,0 0,0 0,0 z m -0.002,0 0,0 0,0 V 0 l 0,0 0,0 c 0.002,0 0.002,0 0.002,0 0,0.002 -0.002,0.002 -0.002,0.002 l 0,0 h 0.002 c 0,0 0,0 -0.002,0 z m 0.002,0 0,0 0,0 0,0 0,0 0,0 0,0 z m 0,0 0,0 0,0 0,0 0,0 z m 0,0 c 0,0 0,0 0,-0.002 l 0,0 0,0 c 0,0.002 0,0.002 0,0.002 z"
   id="path3667"
   inkscape:connector-curvature="0" />
<g
   id="g3669"
   transform="matrix(0.8113097,0,0,0.8113097,26.271229,8.2758097)"
   style="fill:#ff0000">
	<path
   d="M 30.317,0.002 C 36.846,23.783 45.82,32.21 57.114,55.221 68.076,77.556 51.832,100 30.317,100 8.8,100 -7.444,77.556 3.519,55.221 14.811,32.21 23.787,23.783 30.317,0.002 z"
   id="path3671"
   inkscape:connector-curvature="0"
   style="fill:#ff0000" />
</g>
</svg>
