<?xml version="1.0" encoding="UTF-8" standalone="no"?>
<!-- Generator: Adobe Illustrator 14.0.0, SVG Export Plug-In . SVG Version: 6.00 Build 43363)  -->

<svg
   xmlns:dc="http://purl.org/dc/elements/1.1/"
   xmlns:cc="http://creativecommons.org/ns#"
   xmlns:rdf="http://www.w3.org/1999/02/22-rdf-syntax-ns#"
   xmlns:svg="http://www.w3.org/2000/svg"
   xmlns="http://www.w3.org/2000/svg"
   xmlns:sodipodi="http://sodipodi.sourceforge.net/DTD/sodipodi-0.dtd"
   xmlns:inkscape="http://www.inkscape.org/namespaces/inkscape"
   version="1.0"
   id="Layer_1"
   x="0px"
   y="0px"
   width="100"
   height="100"
   viewBox="0 0 100 100"
   enable-background="new 0 0 91.277 100"
   xml:space="preserve"
   inkscape:version="0.48.3.1 r9886"
   sodipodi:docname="33.svg"><metadata
   id="metadata3698"><rdf:RDF><cc:Work
       rdf:about=""><dc:format>image/svg+xml</dc:format><dc:type
         rdf:resource="http://purl.org/dc/dcmitype/StillImage" /></cc:Work></rdf:RDF></metadata><defs
   id="defs3696" /><sodipodi:namedview
   pagecolor="#ffffff"
   bordercolor="#666666"
   borderopacity="1"
   objecttolerance="10"
   gridtolerance="10"
   guidetolerance="10"
   inkscape:pageopacity="0"
   inkscape:pageshadow="2"
   inkscape:window-width="640"
   inkscape:window-height="480"
   id="namedview3694"
   showgrid="false"
   inkscape:zoom="2.36"
   inkscape:cx="45.6385"
   inkscape:cy="50"
   inkscape:window-x="0"
   inkscape:window-y="26"
   inkscape:window-maximized="0"
   inkscape:current-layer="Layer_1" />
<path
   sodipodi:type="arc"
   style="fill:#FFFFFF;stroke:#ff0000;stroke-width:3.5;stroke-miterlimit:4;stroke-dasharray:none"
   id="path4175"
   sodipodi:cx="50.845425"
   sodipodi:cy="48.303154"
   sodipodi:rx="46.608307"
   sodipodi:ry="46.184593"
   d="m 97.453732,48.303154 a 46.608307,46.184593 0 1 1 -93.2166142,0 46.608307,46.184593 0 1 1 93.2166142,0 z"
   transform="matrix(1.0337773,0,0,1.0432615,-2.5628462,-0.39281887)" /><path
   d="m 87.852,10.731 0,0 0,0 0,0 0,0 0,0 0,0 0,0 h -0.003 l 0,0 0,0 0,0 v 0.002 h 0.002 l 0,0 0,0 h 0.001 l 0,0 c 0,0 0,0 0,-0.002 l 0,0 z m -0.001,0.002 v -0.002 l 0,0 0,0 0,0 0,0 0,0 0,0 0,0 0,0 v 0.002 z m 0.001,-0.002 0,0 c 0,0 0,0 0,0 l 0,0 c 0,0 0,0 0,0 l 0,0 0,0 z m 0,0.002 v -0.002 l 0,0 0,0 v 0.002 z m 0,-0.002 0,0 0,0 0,0 0,0 z"
   id="path3688"
   inkscape:connector-curvature="0" />
<g
   id="g3690"
   transform="matrix(0.80084746,0,0,0.80084746,13.517079,13.983051)"
   style="fill:#ff0000">
	<path
   d="M 45.638,100 C 41.561,88.692 29.161,86.465 19.293,84.146 11.198,82.244 4.876,77.536 2.043,70.396 -5.074,54.711 8.538,42.965 10.426,28.664 11.37,21.618 7.271,16.09 3.425,10.724 L 9.966,3.26 C 20.835,8.811 36.081,7.394 45.638,0 55.197,7.394 70.44,8.821 81.31,3.27 l 6.542,7.461 c -3.848,5.366 -7.946,10.894 -7.001,17.942 1.889,14.303 15.5,26.048 8.383,41.732 -2.832,7.139 -9.154,11.846 -17.25,13.749 -9.869,2.32 -22.269,4.538 -26.346,15.846 z"
   id="path3692"
   inkscape:connector-curvature="0"
   style="fill:#ff0000" />
</g>
</svg>
