<?xml version="1.0" encoding="UTF-8" standalone="no"?>
<!-- Generator: Adobe Illustrator 14.0.0, SVG Export Plug-In . SVG Version: 6.00 Build 43363)  -->

<svg
   xmlns:dc="http://purl.org/dc/elements/1.1/"
   xmlns:cc="http://creativecommons.org/ns#"
   xmlns:rdf="http://www.w3.org/1999/02/22-rdf-syntax-ns#"
   xmlns:svg="http://www.w3.org/2000/svg"
   xmlns="http://www.w3.org/2000/svg"
   xmlns:sodipodi="http://sodipodi.sourceforge.net/DTD/sodipodi-0.dtd"
   xmlns:inkscape="http://www.inkscape.org/namespaces/inkscape"
   version="1.0"
   id="Layer_1"
   x="0px"
   y="0px"
   width="100"
   height="100"
   viewBox="0 0 100 100"
   enable-background="new 0 0 68.906 100"
   xml:space="preserve"
   inkscape:version="0.48.3.1 r9886"
   sodipodi:docname="49.svg"><metadata
   id="metadata3877"><rdf:RDF><cc:Work
       rdf:about=""><dc:format>image/svg+xml</dc:format><dc:type
         rdf:resource="http://purl.org/dc/dcmitype/StillImage" /></cc:Work></rdf:RDF></metadata><defs
   id="defs3875" /><sodipodi:namedview
   pagecolor="#ffffff"
   bordercolor="#666666"
   borderopacity="1"
   objecttolerance="10"
   gridtolerance="10"
   guidetolerance="10"
   inkscape:pageopacity="0"
   inkscape:pageshadow="2"
   inkscape:window-width="640"
   inkscape:window-height="480"
   id="namedview3873"
   showgrid="false"
   inkscape:zoom="2.36"
   inkscape:cx="34.452999"
   inkscape:cy="50"
   inkscape:window-x="0"
   inkscape:window-y="0"
   inkscape:window-maximized="0"
   inkscape:current-layer="Layer_1" />
<path
   sodipodi:type="arc"
   style="fill:#FFFFFF;stroke:#ff0000;stroke-width:3.5;stroke-miterlimit:4;stroke-dasharray:none"
   id="path4175"
   sodipodi:cx="50.845425"
   sodipodi:cy="48.303154"
   sodipodi:rx="46.608307"
   sodipodi:ry="46.184593"
   d="m 97.453732,48.303154 a 46.608307,46.184593 0 1 1 -93.2166142,0 46.608307,46.184593 0 1 1 93.2166142,0 z"
   transform="matrix(1.0337773,0,0,1.0432615,-2.5628462,-0.39281887)" /><path
   d="M 22.048201,59.952966 C 21.782452,53.26416 25.349499,47.712697 28.870672,43.162538 l 0.485625,-0.646181 c 1.153951,-1.56523 1.914025,-2.599753 5.426497,-2.355358 2.689126,0.191402 5.405143,2.197174 5.405143,5.670892 0,0.0087 0,0.01661 0,0.02768 -0.01107,2.089609 -1.376199,3.964879 -2.818836,5.942968 -1.756632,2.405186 -3.745795,5.12674 -3.745795,8.831406 0,1.059832 0.233322,1.880807 0.461106,2.66619 0.219085,0.77431 0.427097,1.500374 0.427097,2.438404 0,3.190569 -2.697035,5.787948 -6.009405,5.787948 -3.979907,0 -6.148608,-3.896069 -6.453903,-11.573523 z"
   id="path3863"
   inkscape:connector-curvature="0"
   style="fill:#ff0000" />
<path
   d="m 39.552829,87.711864 c -4.398303,0 -7.977213,-3.573374 -7.977213,-7.970095 0,-4.398303 3.57891,-7.970886 7.977213,-7.970886 4.394348,0 7.970886,3.573374 7.970886,7.970886 0,4.396721 -3.576538,7.970095 -7.970886,7.970095 z"
   id="path3865"
   inkscape:connector-curvature="0"
   style="fill:#ff0000" />
<path
   d="m 59.151021,87.711864 c -4.398303,0 -7.976422,-3.573374 -7.976422,-7.970095 0,-4.398303 3.578119,-7.970886 7.976422,-7.970886 4.397512,0 7.976422,3.573374 7.976422,7.970886 0,4.396721 -3.57891,7.970095 -7.976422,7.970095 z"
   id="path3867"
   inkscape:connector-curvature="0"
   style="fill:#ff0000" />
<path
   d="m 70.062545,71.526489 c -3.31237,0 -6.009405,-2.597379 -6.009405,-5.787948 0,-0.93803 0.208802,-1.664094 0.427096,-2.438404 0.230158,-0.785383 0.461106,-1.606358 0.461106,-2.66619 0,-3.704666 -1.98679,-6.42622 -3.743422,-8.831406 -1.445009,-1.981253 -2.807763,-3.853359 -2.818045,-5.942968 0,-0.01107 0,-0.01898 0,-0.02768 0,-3.473718 2.713644,-5.47949 5.405143,-5.670892 3.506936,-0.244395 4.269383,0.790919 5.423334,2.355358 l 0.487997,0.646181 c 3.521174,4.550159 7.081102,10.101622 6.823262,16.790428 -0.307668,7.677454 -2.481114,11.573523 -6.457066,11.573523 z"
   id="path3869"
   inkscape:connector-curvature="0"
   style="fill:#ff0000" />
<path
   d="m 63.903656,8.6341604 c -6.143071,-0.299758 -7.324705,4.2480276 -7.324705,4.2480276 0,0 -2.84731,-1.742395 -7.293859,-1.742395 -4.449712,0 -7.299395,1.742395 -7.299395,1.742395 0,0 -1.179261,-4.5477856 -7.322332,-4.2480276 -3.57891,0.17163 -6.497402,3.1628866 -6.497402,6.7473336 0,3.356662 2.205874,7.862529 5.803766,7.976422 l 0.463479,0.01424 c -0.108356,0.61059 -0.144738,2.311067 -0.144738,2.760309 0,8.270644 6.728351,15.004532 14.995831,15.004532 8.265108,0 14.99346,-6.733888 14.99346,-15.004532 0,-0.449242 -0.03875,-2.149719 -0.141575,-2.760309 l 0.457942,-0.01424 c 3.601056,-0.113893 5.809303,-4.61976 5.809303,-7.976422 7.91e-4,-3.584447 -2.920865,-6.5757036 -6.499775,-6.7473336 z M 41.212178,25.294877 c 0,-1.096214 0.892948,-1.989162 1.992326,-1.989162 1.098587,0 1.992326,0.892948 1.992326,1.989162 0,1.104124 -0.893739,1.992326 -1.992326,1.992326 -1.099378,0 -1.992326,-0.888202 -1.992326,-1.992326 z m 14.726128,8.859089 c -0.0522,0.116265 -1.284453,2.833073 -3.895278,2.833073 -1.129433,0 -2.050063,-0.26654 -2.763472,-0.757701 -0.745837,0.452406 -1.675958,0.691264 -2.793527,0.691264 -2.852056,0 -4.191873,-2.59738 -4.244865,-2.702572 -0.302131,-0.593189 -0.06644,-1.320835 0.521216,-1.62613 0.591608,-0.310831 1.323208,-0.08067 1.63404,0.513307 0.0055,0.01424 0.737927,1.387272 2.088818,1.387272 0.951476,0 1.433937,-0.23253 1.650649,-0.391505 0,-0.283149 0,-1.420491 0,-1.908488 -0.829675,-0.18903 -1.445801,-0.932494 -1.445801,-1.808833 0,-1.018704 0.829674,-1.853124 1.850751,-1.853124 l 1.689404,-0.01424 c 0.96334,0 1.781151,0.857357 1.781151,1.867361 0,0.873966 -0.635109,1.595284 -1.448174,1.750305 0,0.515679 0,1.800132 0,2.050063 0.169257,0.147111 0.571835,0.377268 1.479019,0.377268 1.026614,0 1.675168,-1.379363 1.678331,-1.390436 0.132875,-0.296595 0.374896,-0.529916 0.676237,-0.640645 0.302922,-0.116265 0.632735,-0.102819 0.926957,0.03085 0.44766,0.196939 0.719737,0.641436 0.719737,1.106496 0,0.163721 -0.03559,0.327441 -0.105193,0.486416 z M 55.39099,27.287203 c -1.095423,0 -1.989162,-0.888202 -1.989162,-1.992326 0,-1.096214 0.893739,-1.989162 1.989162,-1.989162 1.101751,0 1.994699,0.892948 1.994699,1.989162 7.91e-4,1.104124 -0.892948,1.992326 -1.994699,1.992326 z"
   id="path3871"
   inkscape:connector-curvature="0"
   style="fill:#ff0000" />
</svg>
