<?xml version="1.0" encoding="UTF-8" standalone="no"?>
<svg
   xmlns:dc="http://purl.org/dc/elements/1.1/"
   xmlns:cc="http://creativecommons.org/ns#"
   xmlns:rdf="http://www.w3.org/1999/02/22-rdf-syntax-ns#"
   xmlns:svg="http://www.w3.org/2000/svg"
   xmlns="http://www.w3.org/2000/svg"
   xmlns:sodipodi="http://sodipodi.sourceforge.net/DTD/sodipodi-0.dtd"
   xmlns:inkscape="http://www.inkscape.org/namespaces/inkscape"
   version="1.1"
   id="Layer_1"
   x="0px"
   y="0px"
   width="100px"
   height="100px"
   viewBox="0 0 100 100"
   enable-background="new 0 0 100 100"
   xml:space="preserve"
   inkscape:version="0.48.3.1 r9886"
   sodipodi:docname="5.svg"><metadata
   id="metadata4023"><rdf:RDF><cc:Work
       rdf:about=""><dc:format>image/svg+xml</dc:format><dc:type
         rdf:resource="http://purl.org/dc/dcmitype/StillImage" /></cc:Work></rdf:RDF></metadata><defs
   id="defs4021" /><sodipodi:namedview
   pagecolor="#ffffff"
   bordercolor="#666666"
   borderopacity="1"
   objecttolerance="10"
   gridtolerance="10"
   guidetolerance="10"
   inkscape:pageopacity="0"
   inkscape:pageshadow="2"
   inkscape:window-width="1024"
   inkscape:window-height="550"
   id="namedview4019"
   showgrid="false"
   inkscape:zoom="2.36"
   inkscape:cx="50"
   inkscape:cy="50"
   inkscape:window-x="0"
   inkscape:window-y="0"
   inkscape:window-maximized="1"
   inkscape:current-layer="Layer_1" />

<path
   sodipodi:type="arc"
   style="fill:#FFFFFF;stroke:#ff0000;stroke-width:3.5;stroke-miterlimit:4;stroke-dasharray:none"
   id="path4175"
   sodipodi:cx="50.845425"
   sodipodi:cy="48.303154"
   sodipodi:rx="46.608307"
   sodipodi:ry="46.184593"
   d="m 97.453732,48.303154 a 46.608307,46.184593 0 1 1 -93.2166142,0 46.608307,46.184593 0 1 1 93.2166142,0 z"
   transform="matrix(1.0337773,0,0,1.0432615,-2.5628462,-0.39281887)" /><path
   id="path4269"
   d="M 81.822492,48.610599 76.032604,16.02553 c 0,0 -10.210172,-4.273488 -24.847335,-4.273488 -14.635672,0 -24.843609,4.273488 -24.843609,4.273488 l -6.467982,32.585069 0,0 v 21.217664 4.273488 7.541012 h 7.491831 v -7.541012 h 46.966642 v 7.541012 h 7.491086 V 74.101751 69.828263 48.610599 l -7.45e-4,0 z M 29.960898,61.360273 c -2.441141,0 -4.419539,-1.982868 -4.419539,-4.427736 0,-2.437416 1.977653,-4.420285 4.419539,-4.420285 2.445613,0 4.427737,1.982124 4.427737,4.420285 0,2.444868 -1.982869,4.427736 -4.427737,4.427736 z m 42.15813,0 c -2.436671,0 -4.42401,-1.982868 -4.42401,-4.427736 0,-2.437416 1.987339,-4.420285 4.42401,-4.420285 2.440397,0 4.424011,1.982124 4.424011,4.420285 0,2.444868 -1.982869,4.427736 -4.424011,4.427736 z M 24.981744,41.837101 29.805905,19.656691 c 3.552174,-1.152016 11.41435,-3.255601 21.379364,-3.255601 9.920305,0 17.748203,2.081975 21.324968,3.238462 l 4.319688,22.197549 H 24.981744 z"
   style="fill:#ff0000"
   inkscape:connector-curvature="0" /></svg>
