<?xml version="1.0" encoding="UTF-8" standalone="no"?>
<svg
   xmlns:dc="http://purl.org/dc/elements/1.1/"
   xmlns:cc="http://creativecommons.org/ns#"
   xmlns:rdf="http://www.w3.org/1999/02/22-rdf-syntax-ns#"
   xmlns:svg="http://www.w3.org/2000/svg"
   xmlns="http://www.w3.org/2000/svg"
   xmlns:sodipodi="http://sodipodi.sourceforge.net/DTD/sodipodi-0.dtd"
   xmlns:inkscape="http://www.inkscape.org/namespaces/inkscape"
   version="1.1"
   x="0px"
   y="0px"
   width="100px"
   height="100px"
   viewBox="0 0 100 100"
   enable-background="new 0 0 100 100"
   xml:space="preserve"
   id="svg3907"
   inkscape:version="0.48.3.1 r9886"
   sodipodi:docname="50.svg"><metadata
   id="metadata3919"><rdf:RDF><cc:Work
       rdf:about=""><dc:format>image/svg+xml</dc:format><dc:type
         rdf:resource="http://purl.org/dc/dcmitype/StillImage" /></cc:Work></rdf:RDF></metadata><defs
   id="defs3917" /><sodipodi:namedview
   pagecolor="#ffffff"
   bordercolor="#666666"
   borderopacity="1"
   objecttolerance="10"
   gridtolerance="10"
   guidetolerance="10"
   inkscape:pageopacity="0"
   inkscape:pageshadow="2"
   inkscape:window-width="640"
   inkscape:window-height="480"
   id="namedview3915"
   showgrid="false"
   inkscape:zoom="2.36"
   inkscape:cx="50"
   inkscape:cy="50"
   inkscape:window-x="0"
   inkscape:window-y="0"
   inkscape:window-maximized="0"
   inkscape:current-layer="svg3907" />
<g
   id="Background">
</g>
<g
   id="Guides">
</g>
<path
   sodipodi:type="arc"
   style="fill:#FFFFFF;stroke:#ff0000;stroke-width:3.5;stroke-miterlimit:4;stroke-dasharray:none"
   id="path4175"
   sodipodi:cx="50.845425"
   sodipodi:cy="48.303154"
   sodipodi:rx="46.608307"
   sodipodi:ry="46.184593"
   d="m 97.453732,48.303154 a 46.608307,46.184593 0 1 1 -93.2166142,0 46.608307,46.184593 0 1 1 93.2166142,0 z"
   transform="matrix(1.0337773,0,0,1.0432615,-2.5628462,-0.39281887)" /><g
   id="Foreground"
   transform="matrix(0.7457624,0,0,0.7457624,11.862659,9.7339625)"
   style="fill:#ff0000">
	<path
   clip-rule="evenodd"
   d="m 9.169,44.657 c -0.422,-0.555 -1.816,-2.842 -1.816,-6.75 0,-7.607 5.119,-12.77 10.329,-12.77 2.459,0 3.684,0.422 4.185,0.532 1.176,-1.423 15.371,-19.675 38.69,-19.675 19.395,0 39.436,8.007 39.436,35.917 0,15.043 -9.376,25.207 -15.837,27.644 -2.795,1.055 -3.2,3.028 -3.202,4.602 -10e-4,1.603 0.212,5.215 0.588,7.998 0.186,1.375 2.323,2.196 3.695,4.14 1.373,1.945 2.118,3.231 2.359,5.223 0.186,1.53 0,1.944 -1.101,0.496 -1.111,-1.46 -3.385,-5.06 -8.49,-5.06 -0.415,0 -1.462,-0.316 -2.835,1.057 -1.373,1.372 -3.318,3.656 -4.003,3.889 -0.94,0.319 -2.975,2.173 -3.775,3.431 -0.8,1.258 -1.258,1.972 -1.258,0.343 0,-1.605 0.066,-2.833 1.944,-5.262 1.891,-2.444 3.083,-3.866 3.431,-4.232 -2.969,0.908 -5.248,0.8 -8.921,2.974 -1.284,0.759 -1.567,0.523 -0.497,-0.934 1.197,-1.631 2.382,-2.666 5.3,-3.87 2.749,-1.134 6.483,-1.593 7.351,-1.727 0.806,-0.124 1.673,-1.157 1.876,-3.117 0.154,-1.479 0.518,-6.142 -0.19,-7.854 -0.445,-1.076 -3.453,-1.588 -6.177,-7.435 -1.177,0.725 -3.833,1.814 -6.114,2.405 -1.059,0.273 -1.312,3.834 -1.436,6.403 -0.125,2.63 0.344,6.406 0.458,7.435 0.114,1.03 0.334,1.61 -0.867,2.189 -3.242,1.563 -3.074,2.555 -5.022,4.526 -1.638,1.657 -2.214,2.941 -2.481,3.587 -0.429,1.037 -0.664,0.439 -0.653,-0.504 0.017,-1.581 0.259,-3.623 1.145,-5.238 -2.09,0.906 -4.571,1.973 -6.287,2.431 -1.716,0.458 -3.67,0.162 -5.802,0.924 -1.777,0.635 -1.845,0.803 -2.76,1.146 -0.915,0.342 -0.489,-0.423 0.62,-1.488 0.994,-0.956 4.578,-2.759 6.522,-3.331 1.944,-0.572 4.306,-1.916 4.737,-2.169 -0.632,-0.736 -2.559,-1.139 -4.279,-1.139 -1.012,0 -2.123,0.104 -3.153,0.22 -0.876,0.097 -1,-0.212 0.442,-1.165 1.561,-1.03 4.815,-1.005 6.418,-1.005 1.601,0 3.23,0.096 4.398,0.096 0.888,0 1.778,-0.827 2.108,-2.998 0.271,-1.779 0.623,-6.604 0.631,-9.012 -1.965,-1.297 -7.749,-3.644 -7.749,-14.233 -2.602,-5.093 -5.935,-6.019 -9.397,-6.019 -5.114,0 -7.254,4.294 -18.529,0.592 C 21.046,47.162 18.911,47.542 16.022,50 11.417,53.92 5.66,63.335 3.376,71.609 c -1.359,4.921 -2.075,9.82 -2.703,9.82 -0.917,0 -0.736,-4.134 -0.438,-6.264 C 1.832,63.77 5.756,52.03 9.169,44.657 z"
   id="path3912"
   inkscape:connector-curvature="0"
   style="fill-rule:evenodd;fill:#ff0000" />
</g>
<g
   id="frame">
</g>
<path
   sodipodi:type="arc"
   style="fill:#ffffff;stroke:none;stroke-width:3.50000000000000000;stroke-miterlimit:4;stroke-dasharray:none"
   id="path4344"
   sodipodi:cx="26.694916"
   sodipodi:cy="36.228813"
   sodipodi:rx="1.2711865"
   sodipodi:ry="1.059322"
   d="m 27.966102,36.228813 a 1.2711865,1.059322 0 1 1 -2.542373,0 1.2711865,1.059322 0 1 1 2.542373,0 z" /></svg>
