<?xml version="1.0" encoding="UTF-8" standalone="no"?>
<!-- Generator: Adobe Illustrator 14.0.0, SVG Export Plug-In . SVG Version: 6.00 Build 43363)  -->

<svg
   xmlns:dc="http://purl.org/dc/elements/1.1/"
   xmlns:cc="http://creativecommons.org/ns#"
   xmlns:rdf="http://www.w3.org/1999/02/22-rdf-syntax-ns#"
   xmlns:svg="http://www.w3.org/2000/svg"
   xmlns="http://www.w3.org/2000/svg"
   xmlns:sodipodi="http://sodipodi.sourceforge.net/DTD/sodipodi-0.dtd"
   xmlns:inkscape="http://www.inkscape.org/namespaces/inkscape"
   version="1.0"
   id="Layer_1"
   x="0px"
   y="0px"
   width="100"
   height="100"
   viewBox="0 0 100 100"
   enable-background="new 0 0 100 95.152"
   xml:space="preserve"
   inkscape:version="0.48.3.1 r9886"
   sodipodi:docname="52.svg"><metadata
   id="metadata3943"><rdf:RDF><cc:Work
       rdf:about=""><dc:format>image/svg+xml</dc:format><dc:type
         rdf:resource="http://purl.org/dc/dcmitype/StillImage" /></cc:Work></rdf:RDF></metadata><defs
   id="defs3941" /><sodipodi:namedview
   pagecolor="#ffffff"
   bordercolor="#666666"
   borderopacity="1"
   objecttolerance="10"
   gridtolerance="10"
   guidetolerance="10"
   inkscape:pageopacity="0"
   inkscape:pageshadow="2"
   inkscape:window-width="640"
   inkscape:window-height="480"
   id="namedview3939"
   showgrid="false"
   inkscape:zoom="2.4802421"
   inkscape:cx="50"
   inkscape:cy="47.576"
   inkscape:window-x="0"
   inkscape:window-y="0"
   inkscape:window-maximized="0"
   inkscape:current-layer="Layer_1" />
<path
   sodipodi:type="arc"
   style="fill:#FFFFFF;stroke:#ff0000;stroke-width:3.5;stroke-miterlimit:4;stroke-dasharray:none"
   id="path4175"
   sodipodi:cx="50.845425"
   sodipodi:cy="48.303154"
   sodipodi:rx="46.608307"
   sodipodi:ry="46.184593"
   d="m 97.453732,48.303154 a 46.608307,46.184593 0 1 1 -93.2166142,0 46.608307,46.184593 0 1 1 93.2166142,0 z"
   transform="matrix(1.0337773,0,0,1.0432615,-2.5628462,-0.39281913)" /><path
   clip-rule="evenodd"
   d="m 69.374792,81.009092 c -8.423837,1.329621 -7.046419,-3.253085 -7.14346,-8.481051 L 61.734533,62.28068 59.571362,72.181152 c -0.394686,1.878562 -0.89076,3.600699 1.771382,4.979566 1.875665,1.627991 -0.240433,3.945415 -2.260213,3.647771 -6.168695,0.200603 -5.275038,-3.893273 -4.74203,-6.796571 l 0.346889,-4.19309 c 0.248399,-2.856226 0.791545,-4.63485 0.937833,-8.627338 L 54.792399,59.027595 C 48.138494,57.303287 43.549994,56.020737 38.37924,53.261553 l -3.703535,0.491729 c -1.673614,0.247675 -1.225339,2.220382 -1.423768,3.50076 l -0.540973,3.49569 -3.061898,7.937903 -0.239708,0.689434 c -0.202051,0.546042 -0.152806,2.712111 0.641637,3.841131 l 1.620024,3.303054 c 1.281826,1.875665 1.625095,6.508342 -1.821351,5.024466 l -2.564374,-1.079051 c -1.819903,-0.739403 -3.303779,-5.813838 -3.936726,-9.510855 l 0.04997,-5.178719 c -1.580918,-0.488832 -2.22328,8.828663 -1.580918,10.744159 l 1.580917,4.834003 c 0.485935,1.570055 -1.332518,2.116098 -2.614344,2.116098 -3.008307,0 -4.339378,-3.054655 -4.979567,-5.619754 l -0.48883,-1.916221 c -0.745921,-2.957613 -0.353407,-7.448347 1.176817,-10.061967 l 0.68871,-1.617128 c 1.378143,-3.208909 -0.296919,-5.526334 -0.68871,-7.1536 -1.281826,-5.225793 -2.317425,-10.301677 1.28255,-15.329039 l 0.250572,-0.343993 c -0.104284,-0.392514 -1.141331,-1.227511 -1.781521,-3.19877 -1.38104,-4.441489 -2.612896,-11.72979 -0.883519,-11.72979 l 1.131194,-0.05576 c 2.911988,0 2.066853,12.026709 5.523437,11.240959 l 25.038323,0.248398 4.385726,-1.18768 c 1.629438,-0.438863 3.006858,-1.473738 4.433523,-2.363773 l 2.853328,-1.772107 c 3.303055,3.30378 6.165798,5.324284 10.895517,7.047869 1.284723,9.80343 -0.144115,11.978188 -1.377419,17.835478 l -0.498247,2.367394 c -0.880621,4.190918 -1.178265,8.530295 -0.977662,12.818255 l 0.09704,2.019779 c -0.04708,2.069027 1.129021,2.216038 2.757012,2.709215 1.035599,0.545319 1.772104,2.615069 -0.247676,3.599974 l 0,0 0,0 z"
   id="path3935"
   inkscape:connector-curvature="0"
   style="fill-rule:evenodd;fill:#ff0000" />
<path
   clip-rule="evenodd"
   d="m 74.66721,21.131911 c 1.376696,0.939281 3.103901,2.612896 4.483494,4.088806 l 1.729377,1.877113 c 1.131194,1.176818 2.85333,1.031979 4.385001,1.328175 l 0.538078,0.09777 c 1.674339,0.882071 1.141332,2.65997 0.593116,3.991765 l -0.345441,0.834997 c -1.580918,3.799852 -6.260668,4.096772 -9.56517,2.315976 l -1.473737,-0.784304 h -0.498246 l -1.029806,0.689435 -2.119719,1.675786 C 67.076921,35.371041 63.578335,33.10938 60.764112,30.102521 l 6.461269,-8.087087 2.166068,-3.151698 0.441759,-1.035599 0.496798,-1.138435 c 0.393962,-1.273859 2.019056,-2.508612 3.208185,-2.01978 1.129019,0.496798 1.868423,2.660693 1.570778,3.8013 l -0.295471,1.281827 -0.146288,1.378867 0,0 0,0 z"
   id="path3937"
   inkscape:connector-curvature="0"
   style="fill-rule:evenodd;fill:#ff0000" />
</svg>
