<?xml version="1.0" encoding="UTF-8" standalone="no"?>
<!-- Generator: Adobe Illustrator 15.1.0, SVG Export Plug-In . SVG Version: 6.00 Build 0)  -->

<svg
   xmlns:dc="http://purl.org/dc/elements/1.1/"
   xmlns:cc="http://creativecommons.org/ns#"
   xmlns:rdf="http://www.w3.org/1999/02/22-rdf-syntax-ns#"
   xmlns:svg="http://www.w3.org/2000/svg"
   xmlns="http://www.w3.org/2000/svg"
   xmlns:sodipodi="http://sodipodi.sourceforge.net/DTD/sodipodi-0.dtd"
   xmlns:inkscape="http://www.inkscape.org/namespaces/inkscape"
   version="1.1"
   id="Layer_1"
   x="0px"
   y="0px"
   width="100"
   height="100"
   viewBox="0 0 100 100"
   enable-background="new 0 0 48 100"
   xml:space="preserve"
   inkscape:version="0.48.3.1 r9886"
   sodipodi:docname="18.svg"><metadata
   id="metadata3064"><rdf:RDF><cc:Work
       rdf:about=""><dc:format>image/svg+xml</dc:format><dc:type
         rdf:resource="http://purl.org/dc/dcmitype/StillImage" /></cc:Work></rdf:RDF></metadata><defs
   id="defs3062" /><sodipodi:namedview
   pagecolor="#ffffff"
   bordercolor="#666666"
   borderopacity="1"
   objecttolerance="10"
   gridtolerance="10"
   guidetolerance="10"
   inkscape:pageopacity="0"
   inkscape:pageshadow="2"
   inkscape:window-width="640"
   inkscape:window-height="480"
   id="namedview3060"
   showgrid="false"
   inkscape:zoom="2.36"
   inkscape:cx="24"
   inkscape:cy="50"
   inkscape:window-x="0"
   inkscape:window-y="0"
   inkscape:window-maximized="0"
   inkscape:current-layer="Layer_1" />
<path
   d="M 60.211864,21.262712 H 48.38983 v -7.09322 c 0,-1.740992 -1.41155,-3.152543 -3.152542,-3.152543 -1.740992,0 -3.152542,1.411551 -3.152542,3.152543 v 7.133415 c -5.289178,0.402738 -9.457627,4.813144 -9.457627,10.205568 v 48.076271 c 0,5.658814 4.586949,10.245763 10.245762,10.245763 h 17.338983 c 5.658814,0 10.245763,-4.586949 10.245763,-10.245763 V 31.508475 c 0,-5.658813 -4.586949,-10.245763 -10.245763,-10.245763 z m 4.728814,26.008475 c -0.275848,0.825966 -0.70617,1.576271 -1.576271,1.576271 H 39.720339 c -0.870102,0 -1.300424,-0.750305 -1.576271,-1.576271 -0.788136,-2.364407 -0.788136,-2.364407 -0.788136,-17.338983 0,-0.870102 0.70617,-1.576271 1.576271,-1.576271 h 25.220339 c 0.870102,0 1.576271,0.706169 1.576271,1.576271 0,14.974576 0,14.974576 -0.788135,17.338983 z"
   id="path3058"
   inkscape:connector-curvature="0"
   style="fill:#FFFF00" />
<path
   sodipodi:type="arc"
   style="fill:none;stroke:#FFFF00;stroke-width:3.5;stroke-miterlimit:4;stroke-dasharray:none"
   id="path4175"
   sodipodi:cx="50.845425"
   sodipodi:cy="48.303154"
   sodipodi:rx="46.608307"
   sodipodi:ry="46.184593"
   d="m 97.453732,48.303154 a 46.608307,46.184593 0 1 1 -93.2166142,0 46.608307,46.184593 0 1 1 93.2166142,0 z"
   transform="matrix(1.0337773,0,0,1.0432615,-2.5628462,-0.39281887)" /></svg>
