<?xml version="1.0" encoding="UTF-8" standalone="no"?>
<!-- Generator: Adobe Illustrator 15.1.0, SVG Export Plug-In . SVG Version: 6.00 Build 0)  -->

<svg
   xmlns:dc="http://purl.org/dc/elements/1.1/"
   xmlns:cc="http://creativecommons.org/ns#"
   xmlns:rdf="http://www.w3.org/1999/02/22-rdf-syntax-ns#"
   xmlns:svg="http://www.w3.org/2000/svg"
   xmlns="http://www.w3.org/2000/svg"
   xmlns:sodipodi="http://sodipodi.sourceforge.net/DTD/sodipodi-0.dtd"
   xmlns:inkscape="http://www.inkscape.org/namespaces/inkscape"
   version="1.1"
   id="Layer_1"
   x="0px"
   y="0px"
   width="100"
   height="100"
   viewBox="0 0 100 100"
   enable-background="new 0 0 60.773 100"
   xml:space="preserve"
   inkscape:version="0.48.3.1 r9886"
   sodipodi:docname="28.svg"><metadata
   id="metadata3402"><rdf:RDF><cc:Work
       rdf:about=""><dc:format>image/svg+xml</dc:format><dc:type
         rdf:resource="http://purl.org/dc/dcmitype/StillImage" /></cc:Work></rdf:RDF></metadata><defs
   id="defs3400" /><sodipodi:namedview
   pagecolor="#ffffff"
   bordercolor="#666666"
   borderopacity="1"
   objecttolerance="10"
   gridtolerance="10"
   guidetolerance="10"
   inkscape:pageopacity="0"
   inkscape:pageshadow="2"
   inkscape:window-width="640"
   inkscape:window-height="480"
   id="namedview3398"
   showgrid="false"
   inkscape:zoom="2.36"
   inkscape:cx="30.386499"
   inkscape:cy="50"
   inkscape:window-x="0"
   inkscape:window-y="0"
   inkscape:window-maximized="0"
   inkscape:current-layer="Layer_1" />
<path
   d="m 70.260947,11.964347 c -15.979928,0 -28.981081,16.715446 -28.981081,37.262031 v 0.310086 c -8.77604,1.59612 -15.432408,9.272627 -15.432408,18.508554 0,10.393132 8.426256,18.819389 18.819389,18.819389 10.393133,0 18.819389,-8.426257 18.819389,-18.819389 0,-9.757231 -7.427839,-17.780526 -16.93715,-18.725015 v -0.09363 c 0,-14.931327 7.621081,-27.507048 17.88913,-31.016864 1.820821,-0.623169 3.530789,2.204308 5.669935,2.337631 0.04943,0.0075 0.101115,0.01573 0.152796,0.01573 0.610435,0 1.106274,-0.49509 1.106274,-1.106274 v -6.38598 c -7.49e-4,-0.611929 -0.495839,-1.106269 -1.106274,-1.106269 z"
   id="path3396"
   inkscape:connector-curvature="0"
   style="fill:#FFFF00" />
<path
   sodipodi:type="arc"
   style="fill:none;stroke:#FFFF00;stroke-width:3.5;stroke-miterlimit:4;stroke-dasharray:none"
   id="path4175"
   sodipodi:cx="50.845425"
   sodipodi:cy="48.303154"
   sodipodi:rx="46.608307"
   sodipodi:ry="46.184593"
   d="m 97.453732,48.303154 a 46.608307,46.184593 0 1 1 -93.2166142,0 46.608307,46.184593 0 1 1 93.2166142,0 z"
   transform="matrix(1.0337773,0,0,1.0432615,-2.5628462,-0.39281887)" /></svg>
