<?xml version="1.0" encoding="UTF-8" standalone="no"?>
<!-- Generator: Adobe Illustrator 14.0.0, SVG Export Plug-In . SVG Version: 6.00 Build 43363)  -->

<svg
   xmlns:dc="http://purl.org/dc/elements/1.1/"
   xmlns:cc="http://creativecommons.org/ns#"
   xmlns:rdf="http://www.w3.org/1999/02/22-rdf-syntax-ns#"
   xmlns:svg="http://www.w3.org/2000/svg"
   xmlns="http://www.w3.org/2000/svg"
   xmlns:sodipodi="http://sodipodi.sourceforge.net/DTD/sodipodi-0.dtd"
   xmlns:inkscape="http://www.inkscape.org/namespaces/inkscape"
   version="1.0"
   id="Layer_1"
   x="0px"
   y="0px"
   width="100"
   height="100"
   viewBox="0 0 100 99.999999"
   enable-background="new 0 0 100 58.138"
   xml:space="preserve"
   inkscape:version="0.48.3.1 r9886"
   sodipodi:docname="8.svg"><metadata
   id="metadata4164"><rdf:RDF><cc:Work
       rdf:about=""><dc:format>image/svg+xml</dc:format><dc:type
         rdf:resource="http://purl.org/dc/dcmitype/StillImage" /></cc:Work></rdf:RDF></metadata><defs
   id="defs4162" /><sodipodi:namedview
   pagecolor="#ffffff"
   bordercolor="#666666"
   borderopacity="1"
   objecttolerance="10"
   gridtolerance="10"
   guidetolerance="10"
   inkscape:pageopacity="0"
   inkscape:pageshadow="2"
   inkscape:window-width="1024"
   inkscape:window-height="550"
   id="namedview4160"
   showgrid="false"
   inkscape:zoom="2.8703636"
   inkscape:cx="50"
   inkscape:cy="50"
   inkscape:window-x="0"
   inkscape:window-y="0"
   inkscape:window-maximized="1"
   inkscape:current-layer="Layer_1" />
<path
   d="m 14.278909,60.148006 c -2.645443,7.485699 -3.133835,13.95797 -0.966319,16.792368 2.167518,2.834396 8.541181,4.058117 16.458489,3.46628 L 14.278909,60.148006 z"
   id="path4154"
   inkscape:connector-curvature="0"
   style="fill:#FFFF00" />
<path
   d="M 67.440661,19.494206 82.932833,39.752855 C 85.578495,32.26598 86.067858,25.794979 83.900341,22.960583 81.732824,20.126185 75.358675,18.90183 67.440661,19.494206 z"
   id="path4156"
   inkscape:connector-curvature="0"
   style="fill:#FFFF00" />
<path
   d="M 34.510814,31.518019 C 27.053925,37.220443 21.120389,45.346456 17.213365,53.23919 L 37.207863,79.385395 C 45.848514,77.682681 55.245228,74.085362 62.702117,68.382937 70.159008,62.680512 76.092541,54.5545 80.000274,46.661226 L 60.005775,20.515022 c -8.641357,1.703253 -18.03807,5.30057 -25.494961,11.002997 z m 28.388336,12.792406 -2.183278,1.669595 -1.802871,-2.357559 -3.411506,2.608844 1.80287,2.357558 -2.183277,1.669596 -1.802871,-2.357559 -3.411506,2.608843 1.802869,2.357559 -2.183279,1.669594 -1.80287,-2.357558 -3.411506,2.608844 1.80287,2.357559 -2.183985,1.670134 -1.80287,-2.357559 -3.411506,2.608843 1.80287,2.35756 -2.183278,1.669593 -5.105061,-6.675733 2.183279,-1.669594 1.802385,2.356925 3.411506,-2.608844 -1.802385,-2.356924 2.18328,-1.669596 1.802384,2.356926 3.411506,-2.608845 -1.802385,-2.356924 2.18328,-1.669596 1.802384,2.356926 3.411506,-2.608844 -1.802384,-2.356925 2.183278,-1.669594 1.802386,2.356924 3.411506,-2.608843 -1.802385,-2.356925 2.183278,-1.669595 5.105061,6.675733 z"
   id="path4158"
   inkscape:connector-curvature="0"
   style="fill:#FFFF00" />
<path
   sodipodi:type="arc"
   style="fill:none;stroke:#FFFF00;stroke-width:3.5;stroke-miterlimit:4;stroke-dasharray:none"
   id="path4175"
   sodipodi:cx="50.845425"
   sodipodi:cy="48.303154"
   sodipodi:rx="46.608307"
   sodipodi:ry="46.184593"
   d="m 97.453732,48.303154 a 46.608307,46.184593 0 1 1 -93.2166142,0 46.608307,46.184593 0 1 1 93.2166142,0 z"
   transform="matrix(1.0337773,0,0,1.0432615,-2.5628462,-0.39281937)" /></svg>
