<?xml version="1.0" encoding="UTF-8" standalone="no"?>
<!-- Generator: Adobe Illustrator 15.1.0, SVG Export Plug-In . SVG Version: 6.00 Build 0)  -->

<svg
   xmlns:dc="http://purl.org/dc/elements/1.1/"
   xmlns:cc="http://creativecommons.org/ns#"
   xmlns:rdf="http://www.w3.org/1999/02/22-rdf-syntax-ns#"
   xmlns:svg="http://www.w3.org/2000/svg"
   xmlns="http://www.w3.org/2000/svg"
   xmlns:sodipodi="http://sodipodi.sourceforge.net/DTD/sodipodi-0.dtd"
   xmlns:inkscape="http://www.inkscape.org/namespaces/inkscape"
   version="1.1"
   id="Layer_1"
   x="0px"
   y="0px"
   width="100px"
   height="100px"
   viewBox="0 0 100 100"
   enable-background="new 0 0 100 100"
   xml:space="preserve"
   inkscape:version="0.48.3.1 r9886"
   sodipodi:docname="16.svg"><metadata
   id="metadata3044"><rdf:RDF><cc:Work
       rdf:about=""><dc:format>image/svg+xml</dc:format><dc:type
         rdf:resource="http://purl.org/dc/dcmitype/StillImage" /></cc:Work></rdf:RDF></metadata><defs
   id="defs3042" /><sodipodi:namedview
   pagecolor="#ffffff"
   bordercolor="#666666"
   borderopacity="1"
   objecttolerance="10"
   gridtolerance="10"
   guidetolerance="10"
   inkscape:pageopacity="0"
   inkscape:pageshadow="2"
   inkscape:window-width="640"
   inkscape:window-height="480"
   id="namedview3040"
   showgrid="false"
   inkscape:zoom="2.36"
   inkscape:cx="50"
   inkscape:cy="50"
   inkscape:window-x="0"
   inkscape:window-y="0"
   inkscape:window-maximized="0"
   inkscape:current-layer="Layer_1" />
<path
   d="m 49.576271,69.305085 c -2.624339,0 -5.077932,0.06003 -7.378712,0.162949 0.665051,1.961627 2.087153,3.566949 3.920136,4.477593 1.043186,0.518475 2.214237,0.817085 3.458576,0.817085 1.244339,0 2.41539,-0.29861 3.458576,-0.817085 1.833763,-0.910644 3.255865,-2.516746 3.920136,-4.477593 -2.30078,-0.102915 -4.754373,-0.162949 -7.378712,-0.162949 z"
   id="path3036"
   inkscape:connector-curvature="0"
   style="fill:#00ff00" />
<path
   sodipodi:type="arc"
   style="fill:#FFFFFF;stroke:#00ff00;stroke-width:3.5;stroke-miterlimit:4;stroke-dasharray:none"
   id="path4175"
   sodipodi:cx="50.845425"
   sodipodi:cy="48.303154"
   sodipodi:rx="46.608307"
   sodipodi:ry="46.184593"
   d="m 97.453732,48.303154 a 46.608307,46.184593 0 1 1 -93.2166142,0 46.608307,46.184593 0 1 1 93.2166142,0 z"
   transform="matrix(1.0337773,0,0,1.0432615,-2.5628462,-0.39281887)" /><path
   d="m 87.348508,68.700068 h 0.0016 C 71.19783,47.606339 83.360542,15.186475 56.581525,10.602068 56.459898,6.839424 53.368542,3.813559 49.576271,3.813559 c -3.792271,0 -6.883627,3.025865 -7.005254,6.788509 -26.779017,4.584407 -14.616305,37.004271 -30.768542,58.098 h 0.0016 c -0.774984,0.871661 -1.210815,1.848576 -1.210815,2.944 0,9.851017 34.992746,10.135593 38.983051,10.135593 3.990305,0 38.983051,-0.284576 38.983051,-10.135593 0,-1.095424 -0.435831,-2.072339 -1.210814,-2.944 z M 49.576271,6.932203 c 1.935898,0 3.534203,1.422882 3.835152,3.275356 -1.211593,-0.0998 -2.48244,-0.156712 -3.835152,-0.156712 -1.352712,0 -2.623559,0.05692 -3.835153,0.156712 0.300949,-1.852474 1.899255,-3.275356 3.835153,-3.275356 z m 0,70.169492 c -20.195559,0 -32.437017,-3.393085 -34.198271,-5.457627 1.761254,-2.064543 14.003491,-5.457627 34.198271,-5.457627 20.19478,0 32.437017,3.393084 34.198271,5.457627 -1.761254,2.064542 -14.002712,5.457627 -34.198271,5.457627 z"
   id="path3038"
   inkscape:connector-curvature="0"
   style="fill:#00ff00" />
</svg>
