<?xml version="1.0" encoding="UTF-8" standalone="no"?>
<!-- Generator: Adobe Illustrator 15.1.0, SVG Export Plug-In . SVG Version: 6.00 Build 0)  -->

<svg
   xmlns:dc="http://purl.org/dc/elements/1.1/"
   xmlns:cc="http://creativecommons.org/ns#"
   xmlns:rdf="http://www.w3.org/1999/02/22-rdf-syntax-ns#"
   xmlns:svg="http://www.w3.org/2000/svg"
   xmlns="http://www.w3.org/2000/svg"
   xmlns:sodipodi="http://sodipodi.sourceforge.net/DTD/sodipodi-0.dtd"
   xmlns:inkscape="http://www.inkscape.org/namespaces/inkscape"
   version="1.1"
   id="Layer_1"
   x="0px"
   y="0px"
   width="100"
   height="100"
   viewBox="0 0 100 99.999996"
   enable-background="new 0 0 100 64.356"
   xml:space="preserve"
   inkscape:version="0.48.3.1 r9886"
   sodipodi:docname="35.svg"><metadata
   id="metadata3726"><rdf:RDF><cc:Work
       rdf:about=""><dc:format>image/svg+xml</dc:format><dc:type
         rdf:resource="http://purl.org/dc/dcmitype/StillImage" /></cc:Work></rdf:RDF></metadata><defs
   id="defs3724" /><sodipodi:namedview
   pagecolor="#ffffff"
   bordercolor="#666666"
   borderopacity="1"
   objecttolerance="10"
   gridtolerance="10"
   guidetolerance="10"
   inkscape:pageopacity="0"
   inkscape:pageshadow="2"
   inkscape:window-width="640"
   inkscape:window-height="480"
   id="namedview3722"
   showgrid="false"
   inkscape:zoom="1.8335508"
   inkscape:cx="50"
   inkscape:cy="32.178001"
   inkscape:window-x="0"
   inkscape:window-y="26"
   inkscape:window-maximized="0"
   inkscape:current-layer="Layer_1" />
<path
   sodipodi:type="arc"
   style="fill:#FFFFFF;stroke:#00ff00;stroke-width:3.5;stroke-miterlimit:4;stroke-dasharray:none"
   id="path4175"
   sodipodi:cx="50.845425"
   sodipodi:cy="48.303154"
   sodipodi:rx="46.608307"
   sodipodi:ry="46.184593"
   d="m 97.453732,48.303154 a 46.608307,46.184593 0 1 1 -93.2166142,0 46.608307,46.184593 0 1 1 93.2166142,0 z"
   transform="matrix(1.0337773,0,0,1.0432615,-2.5628462,-0.39282087)" /><g
   id="g3716"
   transform="matrix(0.76002912,0,0,0.76002912,13.634816,23.272679)"
   style="fill:#00ff00">
	<path
   d="M 37.615,0 C 16.903,0 0.112,11.264 0.112,25.166 c 0,7.494 4.885,14.218 12.628,18.828 -1.648,3.054 -4.905,6.951 -11.64,12.234 -1.1,0.862 -2.474,2.11 1.974,1.221 7.448,-1.49 15.396,-5.288 21.455,-8.693 4.075,1.019 8.482,1.577 13.087,1.577 20.711,0 37.502,-11.264 37.502,-25.166 C 75.118,11.265 58.326,0 37.615,0 z"
   id="path3718"
   inkscape:connector-curvature="0"
   style="fill:#00ff00" />
	<path
   d="m 99.19,63.119 c -5.781,-4.534 -6.606,-7.095 -6.888,-8.956 4.033,-2.922 6.5,-6.831 6.5,-11.128 0,-7.997 -8.532,-14.648 -19.818,-16.094 C 78.049,38.38 68.12,47.853 53.951,52.01 c 4.363,4.463 11.882,7.412 20.431,7.412 3.681,0 7.168,-0.55 10.299,-1.528 3.297,2.113 8.938,5.353 13.957,6.355 2.297,0.46 1.12,-0.685 0.552,-1.13 z"
   id="path3720"
   inkscape:connector-curvature="0"
   style="fill:#00ff00" />
</g>
</svg>
