<?xml version="1.0" encoding="UTF-8" standalone="no"?>
<svg
   xmlns:dc="http://purl.org/dc/elements/1.1/"
   xmlns:cc="http://creativecommons.org/ns#"
   xmlns:rdf="http://www.w3.org/1999/02/22-rdf-syntax-ns#"
   xmlns:svg="http://www.w3.org/2000/svg"
   xmlns="http://www.w3.org/2000/svg"
   xmlns:sodipodi="http://sodipodi.sourceforge.net/DTD/sodipodi-0.dtd"
   xmlns:inkscape="http://www.inkscape.org/namespaces/inkscape"
   version="1.1"
   id="Livello_1"
   x="0px"
   y="0px"
   width="100px"
   height="100px"
   viewBox="0 0 100 100"
   enable-background="new 0 0 100 100"
   xml:space="preserve"
   inkscape:version="0.48.3.1 r9886"
   sodipodi:docname="43.svg"><metadata
   id="metadata3807"><rdf:RDF><cc:Work
       rdf:about=""><dc:format>image/svg+xml</dc:format><dc:type
         rdf:resource="http://purl.org/dc/dcmitype/StillImage" /></cc:Work></rdf:RDF></metadata><defs
   id="defs3805" /><sodipodi:namedview
   pagecolor="#ffffff"
   bordercolor="#666666"
   borderopacity="1"
   objecttolerance="10"
   gridtolerance="10"
   guidetolerance="10"
   inkscape:pageopacity="0"
   inkscape:pageshadow="2"
   inkscape:window-width="640"
   inkscape:window-height="480"
   id="namedview3803"
   showgrid="false"
   inkscape:zoom="2.36"
   inkscape:cx="50"
   inkscape:cy="50"
   inkscape:window-x="0"
   inkscape:window-y="0"
   inkscape:window-maximized="0"
   inkscape:current-layer="Livello_1" />
<path
   sodipodi:type="arc"
   style="fill:#FFFFFF;stroke:#00ff00;stroke-width:3.5;stroke-miterlimit:4;stroke-dasharray:none"
   id="path4175"
   sodipodi:cx="50.845425"
   sodipodi:cy="48.303154"
   sodipodi:rx="46.608307"
   sodipodi:ry="46.184593"
   d="m 97.453732,48.303154 a 46.608307,46.184593 0 1 1 -93.2166142,0 46.608307,46.184593 0 1 1 93.2166142,0 z"
   transform="matrix(1.0337773,0,0,1.0432615,-2.5628462,-0.39281887)" /><path
   d="m 85.348767,46.685626 c -0.752847,-0.117402 -2.101734,-0.855471 -3.567202,-1.94082 -2.229809,-1.63377 -4.82578,-3.985087 -7.287109,-5.953821 -1.237232,-0.98683 -2.439162,-1.875141 -3.581979,-2.548354 -1.15185,-0.659255 -2.238019,-1.141176 -3.403004,-1.154312 -0.07963,0.0025 -0.157631,0.0041 -0.234804,0.0099 -0.584545,0.03448 -1.133788,0.188005 -1.664968,0.37437 -0.727397,-0.834125 -1.495844,-1.623917 -2.343927,-2.300414 0.0016,-0.08867 -0.02956,-0.160093 -0.02956,-0.252864 1.122293,-1.339035 2.228988,-2.899738 3.012213,-4.699348 1.253651,-2.87675 1.958882,-6.558069 2.766736,-9.725449 0.393254,-1.58287 0.809497,-3.032738 1.282387,-4.142717 0.478637,-1.113263 1.026238,-1.833271 1.449869,-2.078747 0.5476,-0.329217 0.722471,-1.038552 0.386686,-1.582869 -0.328396,-0.539391 -1.035269,-0.7150816 -1.582048,-0.386686 -1.123935,0.695378 -1.797148,1.833271 -2.365273,3.137824 -0.840694,1.971198 -1.408819,4.462902 -2.013888,6.964459 -0.590293,2.507305 -1.211782,5.014608 -2.035235,6.892213 -0.395717,0.906372 -0.906374,1.763486 -1.459721,2.568878 -0.691273,-2.141142 -1.949031,-3.873432 -3.683782,-5.05812 -0.661718,-0.454008 -1.382548,-0.841515 -2.137859,-1.164985 0,-0.07142 0.01231,-0.145316 0.01231,-0.217563 -0.0049,-0.878459 -0.342353,-1.639517 -0.85383,-2.288099 1.222454,-1.228202 2.365273,-2.701879 3.447338,-3.97113 0.659256,-0.783224 1.30127,-1.479424 1.853796,-1.949852 0.543495,-0.484384 1.008176,-0.682243 1.172373,-0.683884 0.632163,-0.05994 1.101769,-0.61328 1.0443,-1.249548 -0.05583,-0.635445 -0.619847,-1.102589 -1.253652,-1.045119 -0.983546,0.105086 -1.738857,0.620668 -2.468717,1.229022 -1.912907,1.669073 -3.83074,4.480964 -5.627067,6.215717 -1.370232,-0.738892 -3.087743,-1.175658 -4.989978,-1.175658 -1.898129,0 -3.622208,0.436766 -4.999009,1.178941 -1.121473,-1.092737 -2.331612,-2.607465 -3.506449,-4.006432 -0.697021,-0.819348 -1.385831,-1.590258 -2.111586,-2.212568 -0.718366,-0.608354 -1.478604,-1.123936 -2.466255,-1.225738 -0.631341,-0.05994 -1.195362,0.405569 -1.25201,1.038552 -0.05747,0.637909 0.412959,1.193719 1.043479,1.255294 0.165018,-0.0033 0.625594,0.198679 1.180583,0.682242 1.489277,1.245443 3.329115,3.908735 5.315912,5.904561 -0.518866,0.651867 -0.871892,1.41703 -0.880102,2.30452 0,0.07225 0.01642,0.14942 0.01642,0.220025 -0.758595,0.321008 -1.475319,0.710978 -2.137859,1.159239 -1.727362,1.187973 -2.990866,2.920262 -3.68214,5.055657 -0.554989,-0.807854 -1.067287,-1.65758 -1.45972,-2.563131 -1.100948,-2.511409 -1.829167,-6.12705 -2.640305,-9.36914 -0.409674,-1.631307 -0.839052,-3.169843 -1.40964,-4.487532 -0.568946,-1.307017 -1.246263,-2.436699 -2.367736,-3.136182 -0.540211,-0.3333216 -1.254473,-0.15763 -1.586153,0.380939 -0.326754,0.547601 -0.159272,1.254473 0.387508,1.588616 0.431841,0.238909 0.97862,0.963021 1.447406,2.077926 0.720008,1.664968 1.295522,4.080321 1.884172,6.589267 0.607533,2.514693 1.233948,5.113948 2.174803,7.276436 0.773373,1.79058 1.876784,3.341429 2.998256,4.682106 0,0.0509 -0.01314,0.09359 -0.02298,0.146137 -0.885028,0.692094 -1.692882,1.5098 -2.461329,2.38005 -0.494236,-0.169123 -1.007354,-0.296377 -1.551671,-0.330859 -0.07142,-0.01067 -0.153525,-0.0099 -0.23152,-0.0074 -1.549207,0.02709 -2.97773,0.836588 -4.560599,1.889919 -2.352137,1.609141 -4.94893,3.942395 -7.372492,5.934117 -2.389082,1.997468 -4.73383,3.609072 -5.899635,3.772449 -0.634626,0.112476 -1.049225,0.714262 -0.935929,1.337393 0.101803,0.559916 0.589471,0.950707 1.134609,0.950707 0.06567,0 0.139567,-0.0074 0.203605,-0.01971 1.482708,-0.28242 2.927651,-1.197003 4.525298,-2.352136 2.377587,-1.742141 4.976842,-4.102488 7.360176,-6.008007 1.192899,-0.952348 2.32997,-1.784832 3.309412,-2.356242 0.976157,-0.582082 1.813567,-0.857934 2.23884,-0.843977 0.01888,-0.0016 0.0509,-0.0016 0.07553,0.0041 0.05911,0.0025 0.110833,0.03859 0.168303,0.04433 -2.604181,3.892313 -4.146821,9.102317 -4.130402,15.740843 -8.21e-4,1.139535 0.05994,2.247872 0.144495,3.32419 -0.92854,1.131324 -1.719154,2.467896 -2.040982,4.108234 -0.133,0.67157 -0.195396,1.309479 -0.197038,1.909624 0.0016,2.021278 0.669928,3.608251 1.237232,4.989978 0.577157,1.40143 1.054973,2.592686 1.054973,4.036808 0,0.651045 -0.09113,1.362844 -0.3481,2.200254 -0.756132,2.504841 -2.55328,4.2125 -4.240414,5.308522 -0.832484,0.5476 -1.627202,0.93675 -2.197791,1.179763 -0.289809,0.122327 -0.518865,0.210173 -0.681422,0.266001 -0.155166,0.05173 -0.219204,0.07553 -0.219204,0.07553 -0.614921,0.178976 -0.961379,0.818528 -0.777477,1.429344 0.152703,0.503267 0.612458,0.825916 1.108336,0.824274 0.107551,0.0041 0.2151,-0.01067 0.321828,-0.0468 0.07389,-0.02217 1.760203,-0.518045 3.712518,-1.800431 1.943283,-1.270893 4.201006,-3.356208 5.179627,-6.562174 0.314439,-1.037731 0.454828,-1.990901 0.44744,-2.873466 0,-1.979407 -0.661719,-3.536005 -1.22656,-4.913625 -0.578798,-1.393221 -1.059898,-2.613212 -1.059898,-4.113161 0,-0.448261 0.04269,-0.933467 0.144494,-1.461363 0.05583,-0.290631 0.203606,-0.529538 0.29063,-0.799644 0.96138,5.163207 2.96788,9.423324 5.778951,12.626007 3.3833,3.856191 7.889715,6.159889 12.864094,6.790409 l 2.42685,-35.186832 c -2.13129,-0.218384 -3.788869,-1.876784 -3.78969,-3.891494 0.0049,-2.160845 1.917832,-3.915302 4.273253,-3.915302 2.357062,0 4.262581,1.754457 4.262581,3.915302 0,2.01471 -1.655116,3.677215 -3.789691,3.891494 l 2.390723,35.172038 c 4.938256,-0.652687 9.397875,-2.953922 12.749157,-6.775632 2.865255,-3.263435 4.893922,-7.615504 5.83806,-12.911711 0.133001,0.35713 0.316902,0.692094 0.387508,1.082886 0.106728,0.530359 0.150241,1.014744 0.150241,1.463005 0,1.500769 -0.488489,2.717476 -1.064824,4.113159 -0.568125,1.37598 -1.231485,2.934219 -1.226559,4.913627 -0.0025,0.882564 0.136284,1.836555 0.441692,2.874286 0.988472,3.205146 3.237986,5.292103 5.188658,6.561354 1.949031,1.282386 3.64027,1.778265 3.703487,1.800431 0.111654,0.03119 0.224951,0.0509 0.33168,0.0468 0.495878,0.0016 0.955632,-0.325932 1.098484,-0.824273 0.183902,-0.609996 -0.161735,-1.250368 -0.775835,-1.432628 0,0 -0.06321,-0.01725 -0.221667,-0.07388 -1.137893,-0.379297 -5.833957,-2.385797 -7.117164,-6.75018 -0.25615,-0.837411 -0.350563,-1.556598 -0.350563,-2.202718 0,-1.444121 0.478637,-2.635378 1.058257,-4.038449 0.574692,-1.379264 1.236411,-2.966238 1.236411,-4.9908 -8.21e-4,-0.600965 -0.05583,-1.235591 -0.188007,-1.90716 -0.341533,-1.7249 -1.197003,-3.138646 -2.177266,-4.299525 0.07553,-1.017207 0.111655,-2.059044 0.114118,-3.134541 0.01314,-6.610613 -1.511443,-11.812406 -4.101667,-15.701437 0.100982,-0.0156 0.203605,-0.07553 0.294735,-0.08128 l 0.03366,-0.0057 c 0,0 0.02135,0 0.04762,0.0016 0.575514,-0.03284 1.845586,0.507372 3.265898,1.493381 2.155921,1.465468 4.741218,3.769166 7.208294,5.810148 2.508946,2.022099 4.768311,3.816783 6.956249,4.255191 0.07061,0.0156 0.139569,0.02298 0.211816,0.02217 0.542674,8.21e-4 1.026238,-0.391613 1.126398,-0.949065 0.110834,-0.628058 -0.305408,-1.228201 -0.931824,-1.339856 z M 30.367056,41.894328 c 0.750386,-1.984334 2.734719,-3.072966 4.428422,-2.43752 1.709302,0.640372 2.484316,2.7692 1.739678,4.751891 -0.744639,1.985975 -2.729792,3.072966 -4.430884,2.435878 -1.69945,-0.641194 -2.479391,-2.764275 -1.737216,-4.750249 z m 8.721379,29.590127 c -1.630486,1.030343 -3.916944,0.334964 -5.112305,-1.552493 -1.201109,-1.892382 -0.864503,-4.252728 0.76352,-5.285534 1.619814,-1.030343 3.906272,-0.335786 5.10738,1.551671 1.19454,1.888277 0.859576,4.258476 -0.758595,5.286356 z m 1.083707,-12.401877 c -2.599255,-8.21e-4 -4.690317,-2.101736 -4.691138,-4.690318 0,-2.589402 2.090242,-4.690316 4.689497,-4.690316 2.590223,0 4.691958,2.100914 4.691137,4.691137 0,2.587761 -2.100093,4.688676 -4.689496,4.689497 z m 13.35751,-4.690318 c 0,-2.589402 2.101735,-4.690316 4.690317,-4.690316 2.590224,0 4.691137,2.100914 4.691137,4.691137 0,2.587761 -2.100913,4.688676 -4.691137,4.689497 -2.587761,-8.21e-4 -4.688675,-2.101736 -4.690317,-4.690318 z m 10.88715,15.540523 c -1.206855,1.888278 -3.490029,2.585299 -5.113948,1.552493 -1.621455,-1.02788 -1.959703,-3.396437 -0.756132,-5.285535 1.19372,-1.887456 3.479357,-2.583656 5.105738,-1.552492 1.618172,1.033627 1.963809,3.393152 0.764342,5.285534 z m 3.604147,-28.038455 c 0.747922,1.985974 -0.03119,4.109055 -1.732289,4.750249 -1.706018,0.637088 -3.692814,-0.448261 -4.430063,-2.435878 -0.752027,-1.985154 0.02463,-4.111519 1.729826,-4.751891 1.703555,-0.635446 3.686246,0.453186 4.432526,2.43752 z"
   id="path3801"
   inkscape:connector-curvature="0"
   style="fill:#00ff00" />
</svg>
