<?xml version="1.0" encoding="UTF-8" standalone="no"?>
<!-- Generator: Adobe Illustrator 14.0.0, SVG Export Plug-In . SVG Version: 6.00 Build 43363)  -->

<svg
   xmlns:dc="http://purl.org/dc/elements/1.1/"
   xmlns:cc="http://creativecommons.org/ns#"
   xmlns:rdf="http://www.w3.org/1999/02/22-rdf-syntax-ns#"
   xmlns:svg="http://www.w3.org/2000/svg"
   xmlns="http://www.w3.org/2000/svg"
   xmlns:sodipodi="http://sodipodi.sourceforge.net/DTD/sodipodi-0.dtd"
   xmlns:inkscape="http://www.inkscape.org/namespaces/inkscape"
   version="1.0"
   id="Layer_1"
   x="0px"
   y="0px"
   width="100px"
   height="99.996px"
   viewBox="0 0 100 99.996"
   enable-background="new 0 0 100 99.996"
   xml:space="preserve"
   inkscape:version="0.48.3.1 r9886"
   sodipodi:docname="9.svg"><metadata
   id="metadata4173"><rdf:RDF><cc:Work
       rdf:about=""><dc:format>image/svg+xml</dc:format><dc:type
         rdf:resource="http://purl.org/dc/dcmitype/StillImage" /></cc:Work></rdf:RDF></metadata><defs
   id="defs4171" /><sodipodi:namedview
   pagecolor="#ffffff"
   bordercolor="#666666"
   borderopacity="1"
   objecttolerance="10"
   gridtolerance="10"
   guidetolerance="10"
   inkscape:pageopacity="0"
   inkscape:pageshadow="2"
   inkscape:window-width="1024"
   inkscape:window-height="550"
   id="namedview4169"
   showgrid="false"
   inkscape:zoom="2.3600944"
   inkscape:cx="50.000001"
   inkscape:cy="49.998002"
   inkscape:window-x="0"
   inkscape:window-y="0"
   inkscape:window-maximized="1"
   inkscape:current-layer="Layer_1" />
<path
   sodipodi:type="arc"
   style="fill:#FFFFFF;stroke:#00ff00;stroke-width:3.5;stroke-miterlimit:4;stroke-dasharray:none"
   id="path4175"
   sodipodi:cx="50.845425"
   sodipodi:cy="48.303154"
   sodipodi:rx="46.608307"
   sodipodi:ry="46.184593"
   d="m 97.453732,48.303154 a 46.608307,46.184593 0 1 1 -93.2166142,0 46.608307,46.184593 0 1 1 93.2166142,0 z"
   transform="matrix(1.0337773,0,0,1.0432615,-2.5628462,-0.39681777)" /><path
   d="M 47.31116,7.2867375 C 23.237887,8.8045445 5.2004286,31.324596 8.4240837,55.087562 11.378749,76.868947 31.220712,92.817733 53.07377,91.438215 75.055843,90.05195 92.175871,71.166206 92.373186,49.362898 92.155633,25.191809 71.502486,5.7596535 47.31116,7.2867375 z M 79.931378,70.944437 c -0.570021,-0.129857 -1.204127,-0.07252 -1.856784,0.286697 -0.588573,0.323799 -1.177145,0.648441 -1.767403,0.971397 -0.177078,-0.364274 -0.357528,-0.726861 -0.527017,-1.095351 0.559903,-0.221769 1.118962,-0.442694 1.678864,-0.664463 1.3694,-0.543881 2.311284,-1.788483 1.887984,-3.325685 -0.358371,-1.305315 -1.952912,-2.432708 -3.324842,-1.887984 -0.747098,0.295972 -1.494197,0.591945 -2.241296,0.887917 -0.136603,-0.397159 -0.267303,-0.795162 -0.395473,-1.195695 0.680484,-0.160213 1.359281,-0.320426 2.038922,-0.480639 3.3923,-0.800222 1.952912,-6.013048 -1.436858,-5.21367 -0.659404,0.155997 -1.317963,0.311151 -1.97821,0.467148 -0.07926,-0.377766 -0.149251,-0.758061 -0.220082,-1.139199 0.610496,-0.07673 1.220992,-0.154311 1.831488,-0.231044 1.461312,-0.18551 2.704228,-1.090292 2.704228,-2.703384 0,-1.333985 -1.2387,-2.888894 -2.704228,-2.703385 -0.847443,0.10709 -1.694885,0.21418 -2.542328,0.32127 -0.03289,-0.408965 -0.07926,-0.817087 -0.102873,-1.226895 0.751314,0 1.501786,0 2.253101,0 3.486741,0 3.486741,-5.406768 0,-5.406768 -0.758904,0 -1.518651,0 -2.277555,0 0.01939,-0.410652 0.05903,-0.821303 0.08854,-1.231954 0.729391,0.09191 1.458782,0.184666 2.189016,0.276578 1.466371,0.186353 2.703384,-1.370243 2.703384,-2.703384 0,-1.613092 -1.241229,-2.517875 -2.703384,-2.703384 -0.507623,-0.06409 -1.014402,-0.128171 -1.522024,-0.192256 0.06914,-0.381982 0.141662,-0.763963 0.220082,-1.145945 0.715056,0.168645 1.429269,0.337291 2.145168,0.506779 3.390614,0.800222 4.830002,-4.413447 1.436858,-5.214513 -0.743726,-0.175391 -1.487451,-0.350782 -2.231177,-0.526173 0.129014,-0.406435 0.266459,-0.808654 0.404749,-1.21003 0.779984,0.308621 1.559125,0.617242 2.338267,0.925863 1.371929,0.543038 2.967314,-0.583513 3.324842,-1.888828 0.4233,-1.536358 -0.518584,-2.78349 -1.887984,-3.324842 -0.590259,-0.233574 -1.180517,-0.467991 -1.770776,-0.701564 0.172018,-0.37102 0.353312,-0.737823 0.533762,-1.104627 0.650971,0.358371 1.303629,0.717586 1.9546,1.075114 0.590258,0.324642 1.167868,0.408121 1.694042,0.326328 4.447176,6.201088 7.024077,13.768203 7.094908,21.595875 -0.06915,7.820926 -2.559193,15.361901 -7.03251,21.580696 z M 19.887748,28.514965 c 0.175391,-0.2614 0.358371,-0.514368 0.539665,-0.769866 0.550626,0.106247 1.15775,0.03795 1.781737,-0.305248 0.650971,-0.358371 1.302785,-0.716742 1.953756,-1.075113 0.180451,0.366803 0.361744,0.733607 0.533762,1.104626 -0.590258,0.233574 -1.179673,0.467148 -1.769932,0.701565 -1.3694,0.542194 -2.311284,1.788483 -1.887984,3.324842 0.358371,1.305315 1.952912,2.431865 3.324842,1.888827 0.779141,-0.308621 1.558283,-0.617241 2.337424,-0.925862 0.138289,0.401375 0.275735,0.803594 0.404749,1.21003 -0.743726,0.175391 -1.486609,0.350782 -2.230335,0.526173 -3.3923,0.800222 -1.952912,6.014735 1.436858,5.214513 0.715057,-0.168645 1.429269,-0.337291 2.144325,-0.505936 0.07842,0.381138 0.150938,0.76312 0.220083,1.145102 -0.50678,0.06408 -1.013559,0.12817 -1.521181,0.192255 -1.462155,0.18551 -2.703384,1.090292 -2.703384,2.703384 0,1.333142 1.237013,2.889738 2.703384,2.703385 0.729391,-0.09191 1.458782,-0.184667 2.188173,-0.276579 0.02951,0.410652 0.06914,0.821303 0.08854,1.231954 -0.758904,0 -1.517808,0 -2.277555,0 -3.487585,0 -3.487585,5.406769 0,5.406769 0.751315,0 1.501786,0 2.253101,0 -0.02361,0.410651 -0.06999,0.817929 -0.103717,1.227738 -0.847443,-0.107933 -1.694885,-0.215023 -2.542328,-0.322113 -1.464684,-0.18551 -2.703384,1.3694 -2.703384,2.703384 0,1.613093 1.242916,2.517875 2.703384,2.703384 0.611339,0.07758 1.220992,0.155154 1.832331,0.231044 -0.07083,0.380296 -0.140818,0.760591 -0.220082,1.1392 -0.659403,-0.155997 -1.317963,-0.311151 -1.978209,-0.467148 -3.390614,-0.799379 -4.830845,4.412604 -1.437701,5.21367 0.67964,0.160213 1.359281,0.320426 2.038921,0.480639 -0.127327,0.400532 -0.258027,0.798535 -0.39463,1.195695 -0.747098,-0.295973 -1.494197,-0.591945 -2.241296,-0.887918 -1.371929,-0.544724 -2.967314,0.58267 -3.324842,1.887985 -0.4233,1.537202 0.518584,2.782647 1.887984,3.325685 0.559059,0.221769 1.118962,0.442694 1.678021,0.664462 -0.169488,0.36849 -0.349096,0.731078 -0.527017,1.095352 -0.588573,-0.323799 -1.177145,-0.648441 -1.76656,-0.971397 -0.65603,-0.360901 -1.292666,-0.416554 -1.864374,-0.285011 -2.042295,-2.810474 -3.702607,-5.900899 -4.888184,-9.173461 -4.027249,-11.117942 -2.198291,-23.49988 4.331655,-33.256011 z m 19.201954,55.91688 c -2.76494,-0.839853 -5.39412,-2.034705 -7.84538,-3.519627 1.613936,-0.932609 2.266593,-3.521314 0.153468,-4.68328 -0.84913,-0.467148 -1.699102,-0.934295 -2.547388,-1.401443 0.277422,-0.569178 0.550627,-1.140042 0.810341,-1.717652 0.871053,0.34488 1.742106,0.689759 2.613159,1.035482 1.371929,0.543881 2.967314,-0.583513 3.325685,-1.887984 0.422457,-1.538045 -0.519427,-2.783491 -1.888827,-3.325685 -0.692289,-0.274049 -1.385421,-0.548098 -2.07771,-0.82299 0.222612,-0.645068 0.435105,-1.292666 0.634949,-1.945323 0.799379,0.188883 1.598758,0.376922 2.398137,0.565805 3.390613,0.801065 4.830844,-4.412605 1.436858,-5.21367 -0.828049,-0.194785 -1.656941,-0.391257 -2.485832,-0.586042 0.118895,-0.564119 0.228514,-1.129924 0.329701,-1.698258 0.932609,0.118895 1.866061,0.236103 2.798669,0.354155 1.465528,0.184666 2.703384,-1.370243 2.703384,-2.703384 0,-1.613093 -1.242072,-2.518718 -2.703384,-2.703385 -0.697348,-0.08769 -1.394697,-0.176234 -2.092045,-0.26393 0.05397,-0.633263 0.09613,-1.268212 0.129014,-1.904005 0.812027,0 1.623211,0 2.434395,0 3.487585,0 3.487585,-5.406769 0,-5.406769 -0.798536,0 -1.597914,0 -2.395607,0 -0.0034,-0.06324 -0.0025,-0.126483 -0.0051,-0.190569 -0.02614,-0.575923 -0.06493,-1.148474 -0.107933,-1.720182 0.835637,-0.105403 1.672118,-0.21165 2.508599,-0.317053 1.461311,-0.18551 2.703384,-1.089449 2.703384,-2.703384 0,-1.333985 -1.237013,-2.888894 -2.703384,-2.703384 -1.05825,0.134073 -2.116499,0.267302 -3.174748,0.401375 -0.0995,-0.57255 -0.207434,-1.141728 -0.324642,-1.708377 0.795162,-0.188039 1.591168,-0.375235 2.385488,-0.563275 3.393143,-0.801065 1.953755,-6.014735 -1.436858,-5.213669 -0.763964,0.179607 -1.527927,0.360901 -2.29189,0.540508 -0.203218,-0.657717 -0.419084,-1.310374 -0.645912,-1.957972 0.660247,-0.262244 1.321336,-0.523644 1.982426,-0.785044 1.3694,-0.543038 2.311284,-1.78764 1.888827,-3.324842 -0.359214,-1.304472 -1.953756,-2.432709 -3.325685,-1.888828 -0.852502,0.337291 -1.704161,0.675425 -2.556663,1.012715 -0.265616,-0.578453 -0.541351,-1.151004 -0.826362,-1.718495 0.741196,-0.408122 1.483236,-0.816244 2.224432,-1.224365 2.053256,-1.12908 1.490824,-3.601421 -0.02445,-4.595585 8.917121,-5.308111 20.021571,-6.744125 30.204374,-3.650327 2.86697,0.871053 5.559393,2.097947 8.040165,3.619971 -1.546478,0.975613 -2.137579,3.485899 -0.06577,4.625941 0.74204,0.408121 1.483236,0.816243 2.224432,1.224365 -0.284168,0.567491 -0.559903,1.140042 -0.825519,1.717652 -0.851659,-0.33729 -1.704161,-0.674581 -2.55582,-1.012715 -1.371929,-0.543881 -2.968157,0.584356 -3.326528,1.888828 -0.421613,1.537201 0.520271,2.782647 1.888827,3.324842 0.660247,0.2614 1.321336,0.523643 1.982426,0.785044 -0.226828,0.647598 -0.441851,1.300255 -0.645912,1.957972 -0.76312,-0.180451 -1.527926,-0.360901 -2.291046,-0.540509 -3.391457,-0.801065 -4.830845,4.411762 -1.436858,5.21367 0.794319,0.188039 1.590325,0.375236 2.384644,0.562432 -0.116365,0.566648 -0.225141,1.135826 -0.323799,1.708377 -1.058249,-0.134073 -2.116498,-0.267303 -3.174747,-0.401376 -1.466371,-0.18551 -2.704228,1.3694 -2.704228,2.703384 0,1.613936 1.242916,2.517875 2.704228,2.703385 0.835637,0.105403 1.672118,0.211649 2.508599,0.317053 -0.043,0.571707 -0.08264,1.144258 -0.107933,1.720182 -0.0025,0.06324 -0.0025,0.126484 -0.0051,0.190569 -0.797692,0 -1.597071,0 -2.395606,0 -3.487585,0 -3.487585,5.406768 0,5.406768 0.811184,0 1.622367,0 2.433551,0 0.03373,0.635793 0.07505,1.270743 0.129014,1.904006 -0.697348,0.0877 -1.394697,0.176234 -2.092045,0.26393 -1.461312,0.184666 -2.703384,1.090292 -2.703384,2.703384 0,1.333141 1.2387,2.888051 2.703384,2.703384 0.932609,-0.118051 1.86606,-0.23526 2.798669,-0.354155 0.101187,0.568335 0.210806,1.13414 0.329701,1.698258 -0.828048,0.194786 -1.65694,0.391257 -2.484988,0.586043 -3.393144,0.800222 -1.954599,6.014735 1.436858,5.213669 0.798535,-0.188882 1.598757,-0.376922 2.397293,-0.565805 0.200688,0.651814 0.413181,1.300256 0.635793,1.945324 -0.693133,0.274049 -1.386265,0.548097 -2.078554,0.822989 -1.368556,0.543038 -2.31044,1.78764 -1.888827,3.325685 0.359214,1.304472 1.954599,2.431866 3.326528,1.887985 0.871053,-0.34488 1.742106,-0.68976 2.613159,-1.035483 0.259714,0.578454 0.533763,1.148475 0.811184,1.717653 -0.849972,0.467147 -1.699101,0.934295 -2.547387,1.401442 -2.100477,1.155221 -1.468057,3.722845 0.123954,4.668946 -8.985421,5.376412 -19.949053,6.596561 -30.023923,3.535648 z"
   id="path4167"
   inkscape:connector-curvature="0"
   style="fill:#00ff00" />
</svg>
