<?xml version="1.0" encoding="UTF-8" standalone="no"?>
<svg
   xmlns:dc="http://purl.org/dc/elements/1.1/"
   xmlns:cc="http://creativecommons.org/ns#"
   xmlns:rdf="http://www.w3.org/1999/02/22-rdf-syntax-ns#"
   xmlns:svg="http://www.w3.org/2000/svg"
   xmlns="http://www.w3.org/2000/svg"
   xmlns:sodipodi="http://sodipodi.sourceforge.net/DTD/sodipodi-0.dtd"
   xmlns:inkscape="http://www.inkscape.org/namespaces/inkscape"
   version="1.1"
   id="Layer_1"
   x="0px"
   y="0px"
   width="100px"
   height="100px"
   viewBox="0 0 100 100"
   enable-background="new 0 0 100 100"
   xml:space="preserve"
   inkscape:version="0.48.3.1 r9886"
   sodipodi:docname="17.svg"><metadata
   id="metadata3055"><rdf:RDF><cc:Work
       rdf:about=""><dc:format>image/svg+xml</dc:format><dc:type
         rdf:resource="http://purl.org/dc/dcmitype/StillImage" /></cc:Work></rdf:RDF></metadata><defs
   id="defs3053" /><sodipodi:namedview
   pagecolor="#ffffff"
   bordercolor="#666666"
   borderopacity="1"
   objecttolerance="10"
   gridtolerance="10"
   guidetolerance="10"
   inkscape:pageopacity="0"
   inkscape:pageshadow="2"
   inkscape:window-width="640"
   inkscape:window-height="480"
   id="namedview3051"
   showgrid="false"
   inkscape:zoom="2.36"
   inkscape:cx="50"
   inkscape:cy="50"
   inkscape:window-x="0"
   inkscape:window-y="0"
   inkscape:window-maximized="0"
   inkscape:current-layer="Layer_1" />
<g
   id="g3047"
   transform="matrix(0.81570935,0,0,0.81570935,8.246427,6.2928299)"
   style="fill:#0000ff">
	<path
   d="m 66.633,14.192 c 0.004,-0.093 0.043,-0.163 0.043,-0.252 V 5.233 c 0,-2.077 -2.215,-3.758 -4.252,-3.758 -2.047,0 -4.428,1.681 -4.428,3.758 v 8.352 H 36.894 c -6.366,0 -11.531,5.161 -11.531,11.525 V 87 c 0,6.363 5.165,11.525 11.531,11.525 h 26.214 c 6.363,0 11.529,-5.162 11.529,-11.525 V 25.11 c 0,-5.133 -3.373,-9.424 -8.004,-10.918 z M 39.806,83 h -4.25 c -1.249,0 -2.26,-1.013 -2.26,-2.264 0,-1.256 1.011,-2.271 2.26,-2.271 h 4.25 c 1.253,0 2.269,1.015 2.269,2.271 0,1.251 -1.016,2.264 -2.269,2.264 z m -4.25,-13.533 h 4.25 c 1.253,0 2.269,1.013 2.269,2.265 0,1.25 -1.016,2.26 -2.269,2.26 h -4.25 c -1.249,0 -2.26,-1.01 -2.26,-2.26 0,-1.252 1.012,-2.265 2.26,-2.265 z m -2.26,-6.616 c 0,-1.255 1.011,-2.264 2.26,-2.264 h 4.25 c 1.253,0 2.269,1.009 2.269,2.264 0,1.246 -1.016,2.26 -2.269,2.26 h -4.25 c -1.248,0 -2.26,-1.014 -2.26,-2.26 z M 57.584,92.079 H 43.786 c -0.946,0 -1.71,-0.763 -1.71,-1.706 0,-0.949 0.764,-1.711 1.71,-1.711 h 13.799 c 0.945,0 1.713,0.762 1.713,1.711 -0.001,0.943 -0.768,1.706 -1.714,1.706 z M 48.16,69.467 h 4.247 c 1.252,0 2.266,1.013 2.266,2.265 0,1.25 -1.014,2.26 -2.266,2.26 H 48.16 c -1.255,0 -2.27,-1.01 -2.27,-2.26 0,-1.252 1.014,-2.265 2.27,-2.265 z m -2.27,-6.616 c 0,-1.255 1.015,-2.264 2.27,-2.264 h 4.247 c 1.252,0 2.266,1.009 2.266,2.264 0,1.246 -1.014,2.26 -2.266,2.26 H 48.16 c -1.256,0 -2.27,-1.014 -2.27,-2.26 z m 2.27,15.614 h 4.247 c 1.252,0 2.266,1.015 2.266,2.271 0,1.251 -1.014,2.264 -2.266,2.264 H 48.16 c -1.255,0 -2.27,-1.013 -2.27,-2.264 0,-1.256 1.014,-2.271 2.27,-2.271 z M 65.11,83 H 60.862 C 59.61,83 58.6,81.987 58.6,80.736 c 0,-1.256 1.01,-2.271 2.262,-2.271 h 4.248 c 1.262,0 2.27,1.015 2.27,2.271 C 67.379,81.987 66.372,83 65.11,83 z m 0,-9.008 h -4.248 c -1.252,0 -2.262,-1.01 -2.262,-2.26 0,-1.252 1.01,-2.265 2.262,-2.265 h 4.248 c 1.262,0 2.27,1.013 2.27,2.265 -10e-4,1.25 -1.008,2.26 -2.27,2.26 z m 0,-8.881 h -4.248 c -1.252,0 -2.262,-1.014 -2.262,-2.26 0,-1.255 1.01,-2.264 2.262,-2.264 h 4.248 c 1.262,0 2.27,1.009 2.27,2.264 -10e-4,1.246 -1.008,2.26 -2.27,2.26 z m 3.574,-16.134 c 0,3.283 -2.654,5.943 -5.943,5.943 H 37.826 c -3.281,0 -5.948,-2.66 -5.948,-5.943 V 25.229 c 0,-3.288 2.667,-5.949 5.948,-5.949 h 24.915 c 3.289,0 5.943,2.661 5.943,5.949 v 23.748 z"
   id="path3049"
   inkscape:connector-curvature="0"
   style="fill:#0000ff" />
</g>
<path
   sodipodi:type="arc"
   style="fill:none;stroke:#0000ff;stroke-width:3.5;stroke-miterlimit:4;stroke-dasharray:none"
   id="path4175"
   sodipodi:cx="50.845425"
   sodipodi:cy="48.303154"
   sodipodi:rx="46.608307"
   sodipodi:ry="46.184593"
   d="m 97.453732,48.303154 a 46.608307,46.184593 0 1 1 -93.2166142,0 46.608307,46.184593 0 1 1 93.2166142,0 z"
   transform="matrix(1.0337773,0,0,1.0432615,-2.5628462,-0.39281887)" /></svg>