<?xml version="1.0" encoding="UTF-8" standalone="no"?>
<svg
   xmlns:dc="http://purl.org/dc/elements/1.1/"
   xmlns:cc="http://creativecommons.org/ns#"
   xmlns:rdf="http://www.w3.org/1999/02/22-rdf-syntax-ns#"
   xmlns:svg="http://www.w3.org/2000/svg"
   xmlns="http://www.w3.org/2000/svg"
   xmlns:sodipodi="http://sodipodi.sourceforge.net/DTD/sodipodi-0.dtd"
   xmlns:inkscape="http://www.inkscape.org/namespaces/inkscape"
   version="1.1"
   id="Layer_1"
   x="0px"
   y="0px"
   width="100px"
   height="100px"
   viewBox="0 0 100 100"
   enable-background="new 0 0 100 100"
   xml:space="preserve"
   inkscape:version="0.48.3.1 r9886"
   sodipodi:docname="24.svg"><metadata
   id="metadata3360"><rdf:RDF><cc:Work
       rdf:about=""><dc:format>image/svg+xml</dc:format><dc:type
         rdf:resource="http://purl.org/dc/dcmitype/StillImage" /></cc:Work></rdf:RDF></metadata><defs
   id="defs3358" /><sodipodi:namedview
   pagecolor="#ffffff"
   bordercolor="#666666"
   borderopacity="1"
   objecttolerance="10"
   gridtolerance="10"
   guidetolerance="10"
   inkscape:pageopacity="0"
   inkscape:pageshadow="2"
   inkscape:window-width="640"
   inkscape:window-height="480"
   id="namedview3356"
   showgrid="false"
   inkscape:zoom="2.36"
   inkscape:cx="50"
   inkscape:cy="50"
   inkscape:window-x="0"
   inkscape:window-y="0"
   inkscape:window-maximized="0"
   inkscape:current-layer="Layer_1" />
<path
   d="m 73.389644,23.066848 c -8.667661,0 -17.430508,-3.456 -22.621831,-10.354983 -5.190508,6.898169 -13.955796,10.354169 -22.622644,10.354169 -4.481084,0 -8.935322,-0.92339 -12.855864,-2.773423 0.439322,11.646915 1.304949,23.450847 3.253424,34.952135 0.994169,6.304271 1.97044,13.73939 5.423186,19.255322 3.033763,5.310915 7.741017,9.656136 12.79078,13.021831 3.835932,2.552135 8.010305,4.651118 12.355525,6.192813 0.693966,0.246509 1.221966,0.353085 1.708475,0.353085 0.842847,0 1.559593,-0.320542 2.793763,-0.792407 9.990508,-3.835932 20.71322,-10.891932 25.124339,-21.034576 3.968542,-9.024814 4.843932,-19.747525 5.862508,-29.442712 0.787525,-7.475797 1.359458,-14.990644 1.645017,-22.505491 -3.920542,1.850033 -8.37722,2.774237 -12.856678,2.774237 z m 3.12,18.881898 -0.21722,2.08922 c -0.32217,3.111051 -0.648407,6.259526 -1.07878,9.352678 H 50.767813 V 85.65478 c -8.13e-4,0 -0.0016,8.14e-4 -0.0024,8.14e-4 -3.320136,-1.269966 -6.510915,-2.916611 -9.496678,-4.902509 -4.608,-3.071186 -8.14861,-6.628068 -10.237831,-10.287457 l -0.08136,-0.142373 -0.08705,-0.139119 c -2.340611,-3.739932 -3.267255,-9.689492 -4.084882,-14.93939 l -0.198508,-1.266712 -0.0073,-0.04556 -0.0081,-0.04556 c -0.02766,-0.163526 -0.05288,-0.331933 -0.08054,-0.495458 h 24.284649 v -29.37193 l 0,0 c 6.199323,4.587661 14.170577,7.182915 22.621831,7.182915 1.377356,0 2.748203,-0.06997 4.10522,-0.209085 -0.266034,3.584543 -0.594712,7.243933 -0.98522,10.95539 z"
   id="path3354"
   inkscape:connector-curvature="0"
   style="fill:#0000ff" />
<path
   sodipodi:type="arc"
   style="fill:none;stroke:#0000ff;stroke-width:3.5;stroke-miterlimit:4;stroke-dasharray:none"
   id="path4175"
   sodipodi:cx="50.845425"
   sodipodi:cy="48.303154"
   sodipodi:rx="46.608307"
   sodipodi:ry="46.184593"
   d="m 97.453732,48.303154 a 46.608307,46.184593 0 1 1 -93.2166142,0 46.608307,46.184593 0 1 1 93.2166142,0 z"
   transform="matrix(1.0337773,0,0,1.0432615,-2.5628462,-0.39281887)" /></svg>