<?xml version="1.0" encoding="UTF-8" standalone="no"?>
<svg
   xmlns:dc="http://purl.org/dc/elements/1.1/"
   xmlns:cc="http://creativecommons.org/ns#"
   xmlns:rdf="http://www.w3.org/1999/02/22-rdf-syntax-ns#"
   xmlns:svg="http://www.w3.org/2000/svg"
   xmlns="http://www.w3.org/2000/svg"
   xmlns:sodipodi="http://sodipodi.sourceforge.net/DTD/sodipodi-0.dtd"
   xmlns:inkscape="http://www.inkscape.org/namespaces/inkscape"
   version="1.1"
   id="Layer_1"
   x="0px"
   y="0px"
   width="100px"
   height="100px"
   viewBox="0 0 100 100"
   enable-background="new 0 0 100 100"
   xml:space="preserve"
   inkscape:version="0.48.3.1 r9886"
   sodipodi:docname="25.svg"><metadata
   id="metadata3371"><rdf:RDF><cc:Work
       rdf:about=""><dc:format>image/svg+xml</dc:format><dc:type
         rdf:resource="http://purl.org/dc/dcmitype/StillImage" /></cc:Work></rdf:RDF></metadata><defs
   id="defs3369" /><sodipodi:namedview
   pagecolor="#ffffff"
   bordercolor="#666666"
   borderopacity="1"
   objecttolerance="10"
   gridtolerance="10"
   guidetolerance="10"
   inkscape:pageopacity="0"
   inkscape:pageshadow="2"
   inkscape:window-width="1024"
   inkscape:window-height="550"
   id="namedview3367"
   showgrid="false"
   inkscape:zoom="2.36"
   inkscape:cx="50"
   inkscape:cy="50"
   inkscape:window-x="0"
   inkscape:window-y="0"
   inkscape:window-maximized="1"
   inkscape:current-layer="Layer_1" />
<g
   id="g3363"
   style="fill:#0000ff"
   transform="matrix(0.8184441,0,0,0.8184441,10.066937,12.965882)">
	<path
   d="M 88.047,12.071 C 87.444,7.113 87.295,5.096 84.52,4.286 81.747,3.476 78.622,2.371 68.724,3.215 58.887,4.055 64.421,4.377 50,4.527 35.582,4.377 41.115,4.055 31.275,3.215 21.379,2.372 18.256,3.477 15.48,4.287 c -2.774,0.81 -2.922,2.826 -3.528,7.785 -0.604,4.961 2.57,20.153 4.633,37.254 2.064,17.1 3.284,17.562 11.542,29.204 8.259,11.64 11.211,18.558 21.873,18.558 10.662,0 13.415,-6.918 21.672,-18.559 8.257,-11.642 9.678,-12.104 11.742,-29.204 2.065,-17.1 5.238,-32.293 4.633,-37.254 z m -63.48,25.708 c 3.638,-3.081 4.753,-4.214 9.042,-4.145 4.288,0.066 7.592,2.871 7.648,4.75 -7.406,2.101 -16.69,-0.605 -16.69,-0.605 z m 25.331,39.352 c -8.643,0 -14.328,-6.976 -16.267,-12.748 8.07,3.978 13.855,4.554 16.267,4.554 2.411,0 8.195,-0.576 16.266,-4.554 -1.936,5.772 -7.624,12.748 -16.266,12.748 z M 58.54,38.384 c 0.056,-1.879 3.358,-4.684 7.647,-4.75 4.288,-0.069 5.404,1.063 9.041,4.145 0.001,0 -9.283,2.706 -16.688,0.605 z"
   id="path3365"
   style="fill:#0000ff"
   inkscape:connector-curvature="0" />
</g>
<path
   sodipodi:type="arc"
   style="fill:none;stroke:#0000ff;stroke-width:3.5;stroke-miterlimit:4;stroke-dasharray:none"
   id="path4175"
   sodipodi:cx="50.845425"
   sodipodi:cy="48.303154"
   sodipodi:rx="46.608307"
   sodipodi:ry="46.184593"
   d="m 97.453732,48.303154 a 46.608307,46.184593 0 1 1 -93.2166142,0 46.608307,46.184593 0 1 1 93.2166142,0 z"
   transform="matrix(1.0337773,0,0,1.0432615,-2.5628462,-0.39281887)" /></svg>