<?xml version="1.0" encoding="UTF-8" standalone="no"?>
<svg
   xmlns:dc="http://purl.org/dc/elements/1.1/"
   xmlns:cc="http://creativecommons.org/ns#"
   xmlns:rdf="http://www.w3.org/1999/02/22-rdf-syntax-ns#"
   xmlns:svg="http://www.w3.org/2000/svg"
   xmlns="http://www.w3.org/2000/svg"
   xmlns:sodipodi="http://sodipodi.sourceforge.net/DTD/sodipodi-0.dtd"
   xmlns:inkscape="http://www.inkscape.org/namespaces/inkscape"
   version="1.1"
   id="Layer_1"
   x="0px"
   y="0px"
   width="100px"
   height="100px"
   viewBox="0 0 100 100"
   enable-background="new 0 0 100 100"
   xml:space="preserve"
   inkscape:version="0.48.3.1 r9886"
   sodipodi:docname="3.svg"><metadata
   id="metadata3771"><rdf:RDF><cc:Work
       rdf:about=""><dc:format>image/svg+xml</dc:format><dc:type
         rdf:resource="http://purl.org/dc/dcmitype/StillImage" /></cc:Work></rdf:RDF></metadata><defs
   id="defs3769" /><sodipodi:namedview
   pagecolor="#ffffff"
   bordercolor="#666666"
   borderopacity="1"
   objecttolerance="10"
   gridtolerance="10"
   guidetolerance="10"
   inkscape:pageopacity="0"
   inkscape:pageshadow="2"
   inkscape:window-width="640"
   inkscape:window-height="480"
   id="namedview3767"
   showgrid="false"
   inkscape:zoom="2.36"
   inkscape:cx="50"
   inkscape:cy="50"
   inkscape:window-x="268"
   inkscape:window-y="0"
   inkscape:window-maximized="0"
   inkscape:current-layer="Layer_1" />
<path
   d="m 50.853801,8.4745765 c -18.011949,0 -31.316191,12.0053845 -31.316191,30.0190545 -8.6e-4,18.012809 21.573051,55.997894 31.316191,55.997894 9.74314,0 31.317911,-37.985085 31.317911,-55.997894 C 82.170852,20.479961 68.86661,8.4745765 50.853801,8.4745765 z M 46.598543,69.797779 c -0.788776,0.789636 -7.494657,-1.182733 -12.844912,-6.533847 -5.350254,-5.348534 -7.673572,-11.701746 -6.531266,-12.843191 1.141444,-1.143165 8.345364,0.330305 13.696478,5.680559 5.349394,5.350255 6.468475,12.905123 5.6797,13.696479 z m 8.508796,0 c -0.787915,-0.791356 0.331165,-8.346224 5.68142,-13.696479 5.349394,-5.350254 12.553313,-6.823724 13.693898,-5.680559 1.144025,1.141445 -1.179292,7.494657 -6.530407,12.843191 -5.348534,5.351114 -12.055275,7.323483 -12.844911,6.533847 z"
   id="path3765"
   inkscape:connector-curvature="0"
   style="fill:#0000ff" />
<path
   sodipodi:type="arc"
   style="fill:none;stroke:#0000ff;stroke-width:3.5;stroke-miterlimit:4;stroke-dasharray:none"
   id="path4175"
   sodipodi:cx="50.845425"
   sodipodi:cy="48.303154"
   sodipodi:rx="46.608307"
   sodipodi:ry="46.184593"
   d="m 97.453732,48.303154 a 46.608307,46.184593 0 1 1 -93.2166142,0 46.608307,46.184593 0 1 1 93.2166142,0 z"
   transform="matrix(1.0337773,0,0,1.0432615,-2.5628462,-0.39281887)" /></svg>