<?xml version="1.0" encoding="UTF-8" standalone="no"?>
<!-- Generator: Adobe Illustrator 14.0.0, SVG Export Plug-In . SVG Version: 6.00 Build 43363)  -->

<svg
   xmlns:dc="http://purl.org/dc/elements/1.1/"
   xmlns:cc="http://creativecommons.org/ns#"
   xmlns:rdf="http://www.w3.org/1999/02/22-rdf-syntax-ns#"
   xmlns:svg="http://www.w3.org/2000/svg"
   xmlns="http://www.w3.org/2000/svg"
   xmlns:sodipodi="http://sodipodi.sourceforge.net/DTD/sodipodi-0.dtd"
   xmlns:inkscape="http://www.inkscape.org/namespaces/inkscape"
   version="1.0"
   id="Layer_1"
   x="0px"
   y="0px"
   width="100"
   height="100"
   viewBox="0 0 100 99.999997"
   enable-background="new 0 0 100 47.275"
   xml:space="preserve"
   inkscape:version="0.48.3.1 r9886"
   sodipodi:docname="39.svg"><metadata
   id="metadata3762"><rdf:RDF><cc:Work
       rdf:about=""><dc:format>image/svg+xml</dc:format><dc:type
         rdf:resource="http://purl.org/dc/dcmitype/StillImage" /></cc:Work></rdf:RDF></metadata><defs
   id="defs3760" /><sodipodi:namedview
   pagecolor="#ffffff"
   bordercolor="#666666"
   borderopacity="1"
   objecttolerance="10"
   gridtolerance="10"
   guidetolerance="10"
   inkscape:pageopacity="0"
   inkscape:pageshadow="2"
   inkscape:window-width="1024"
   inkscape:window-height="550"
   id="namedview3758"
   showgrid="false"
   inkscape:zoom="3.2597623"
   inkscape:cx="50"
   inkscape:cy="49.121496"
   inkscape:window-x="0"
   inkscape:window-y="0"
   inkscape:window-maximized="1"
   inkscape:current-layer="Layer_1" />
<path
   d="M 80.512473,20.616242 70.800653,19.631388 39.72969,45.215366 c -6.510372,-2.492989 -14.097311,-1.547254 -19.810617,3.178121 -8.541751,7.003461 -9.702579,19.66569 -2.645629,28.275089 7.111994,8.598359 19.761113,9.888309 28.299066,2.88023 5.700203,-4.709056 8.081219,-11.954394 6.898816,-18.813447 l 6.249517,-5.145881 0.875333,-9.025597 6.90706,0.670158 0.641531,-6.630249 6.811158,0.65844 0.670464,-6.903996 6.904345,0.666859 1.143744,-11.784502 C 82.806833,21.49829 82.268377,20.796006 80.512473,20.616244 z M 29.328637,73.608417 c -2.296266,1.85537 -5.656006,1.509968 -7.501609,-0.774437 -1.913283,-2.280648 -1.606452,-5.642911 0.681133,-7.508825 2.23157,-1.857391 5.59131,-1.511989 7.50064,0.771911 1.850215,2.280606 1.543926,5.643528 -0.680163,7.511346 z"
   id="path3756"
   inkscape:connector-curvature="0"
   style="fill:#0000ff" />
<path
   sodipodi:type="arc"
   style="fill:none;stroke:#0000ff;stroke-width:3.5;stroke-miterlimit:4;stroke-dasharray:none"
   id="path4175"
   sodipodi:cx="50.845425"
   sodipodi:cy="48.303154"
   sodipodi:rx="46.608307"
   sodipodi:ry="46.184593"
   d="m 97.453732,48.303154 a 46.608307,46.184593 0 1 1 -93.2166142,0 46.608307,46.184593 0 1 1 93.2166142,0 z"
   transform="matrix(1.0337773,0,0,1.0432615,-2.5628458,-0.39282037)" /></svg>