<?xml version="1.0" encoding="UTF-8" standalone="no"?>
<svg
   xmlns:dc="http://purl.org/dc/elements/1.1/"
   xmlns:cc="http://creativecommons.org/ns#"
   xmlns:rdf="http://www.w3.org/1999/02/22-rdf-syntax-ns#"
   xmlns:svg="http://www.w3.org/2000/svg"
   xmlns="http://www.w3.org/2000/svg"
   xmlns:sodipodi="http://sodipodi.sourceforge.net/DTD/sodipodi-0.dtd"
   xmlns:inkscape="http://www.inkscape.org/namespaces/inkscape"
   xml:space="preserve"
   width="100"
   height="100"
   style="fill-rule:evenodd"
   viewBox="0 0 17.715158 17.842424"
   id="svg3879"
   version="1.1"
   inkscape:version="0.48.3.1 r9886"
   sodipodi:docname="4.svg"><metadata
   id="metadata3891"><rdf:RDF><cc:Work
       rdf:about=""><dc:format>image/svg+xml</dc:format><dc:type
         rdf:resource="http://purl.org/dc/dcmitype/StillImage" /></cc:Work></rdf:RDF></metadata><sodipodi:namedview
   pagecolor="#ffffff"
   bordercolor="#666666"
   borderopacity="1"
   objecttolerance="10"
   gridtolerance="10"
   guidetolerance="10"
   inkscape:pageopacity="0"
   inkscape:pageshadow="2"
   inkscape:window-width="640"
   inkscape:window-height="480"
   id="namedview3889"
   showgrid="false"
   inkscape:zoom="2.3838384"
   inkscape:cx="47.5"
   inkscape:cy="49.5"
   inkscape:window-x="0"
   inkscape:window-y="0"
   inkscape:window-maximized="0"
   inkscape:current-layer="svg3879" />
 <defs
   id="defs3881">
  <style
   type="text/css"
   id="style3883">
   
    .fil0 {fill:#0A0B0C}
   
  </style>
 </defs>
 <g
   id="Layer_x0020_1"
   transform="matrix(0.83544575,0,0,0.83544575,1.721485,1.5133173)"
   style="fill:#0000ff">
  <metadata
   id="CorelCorpID_0Corel-Layer" />
  <path
   class="fil0"
   d="m 5.90093,17.3721 c 1.81725,0.382911 3.08321,0.395493 5.02754,0 l 0,-2.09259 c -1.87974,0.238218 -3.1457,0.240944 -5.02754,0 l 0,2.09259 z M 0,12.81282 c 3.75697,3.07104 14.0333,2.7848 16.8294,0 l -3.03917,-2.15885 c -3.40195,1.31041 -7.00856,1.33536 -10.7511,0 L -4e-5,12.81282 z M 1.93154,9.31651 c 3.06832,2.28237 9.95945,2.35702 12.9663,0 L 12.30554,6.96536 C 9.7772,7.830579 7.04922,7.883423 4.51627,6.9873784 l -2.58475,2.32913 z M 3.68546,6.01039 c 2.21757,1.62014 7.10356,1.54716 9.45848,0 l -3.03917,-2.4994 -0.0036,1.35633 -1.7350499,-0.936936 -1.95125,0.952244 0.281416,-1.35759 -3.01086,2.48535 z M 7.59593,1.58343 8.437243,-1e-5 9.169512,1.58343 10.887992,1.58679 9.624132,2.67702 9.807828,4.34098 8.366148,3.602629 6.867848,4.34098 7.169815,2.67702 5.941395,1.58344 l 1.65453,0 z"
   id="path3887"
   inkscape:connector-curvature="0"
   style="fill:#0000ff" />
 </g>
<path
   sodipodi:type="arc"
   style="fill:none;stroke:#0000ff;stroke-width:3.5;stroke-miterlimit:4;stroke-dasharray:none"
   id="path4175"
   sodipodi:cx="50.845425"
   sodipodi:cy="48.303154"
   sodipodi:rx="46.608307"
   sodipodi:ry="46.184593"
   d="m 97.453732,48.303154 a 46.608307,46.184593 0 1 1 -93.2166142,0 46.608307,46.184593 0 1 1 93.2166142,0 z"
   transform="matrix(0.18445093,0,0,0.18614314,-0.5177254,-0.07008814)" /></svg>