<?xml version="1.0" encoding="UTF-8" standalone="no"?>
<svg
   xmlns:dc="http://purl.org/dc/elements/1.1/"
   xmlns:cc="http://creativecommons.org/ns#"
   xmlns:rdf="http://www.w3.org/1999/02/22-rdf-syntax-ns#"
   xmlns:svg="http://www.w3.org/2000/svg"
   xmlns="http://www.w3.org/2000/svg"
   xmlns:sodipodi="http://sodipodi.sourceforge.net/DTD/sodipodi-0.dtd"
   xmlns:inkscape="http://www.inkscape.org/namespaces/inkscape"
   version="1.1"
   id="Layer_1"
   x="0px"
   y="0px"
   width="100px"
   height="100px"
   viewBox="0 0 100 100"
   enable-background="new 0 0 100 100"
   xml:space="preserve"
   inkscape:version="0.48.3.1 r9886"
   sodipodi:docname="53.svg"><metadata
   id="metadata3952"><rdf:RDF><cc:Work
       rdf:about=""><dc:format>image/svg+xml</dc:format><dc:type
         rdf:resource="http://purl.org/dc/dcmitype/StillImage" /></cc:Work></rdf:RDF></metadata><defs
   id="defs3950" /><sodipodi:namedview
   pagecolor="#ffffff"
   bordercolor="#666666"
   borderopacity="1"
   objecttolerance="10"
   gridtolerance="10"
   guidetolerance="10"
   inkscape:pageopacity="0"
   inkscape:pageshadow="2"
   inkscape:window-width="640"
   inkscape:window-height="480"
   id="namedview3948"
   showgrid="false"
   inkscape:zoom="2.36"
   inkscape:cx="50"
   inkscape:cy="50"
   inkscape:window-x="0"
   inkscape:window-y="0"
   inkscape:window-maximized="0"
   inkscape:current-layer="Layer_1" />
<path
   d="m 12.020554,79.619492 v -6.827378 c 0,0 0.444309,-4.191041 5.491422,-5.491422 0,0 8.128516,-2.967866 14.494932,-5.738934 3.292583,-1.432084 4.001056,-2.292697 7.322401,-3.760356 0,0 0.346668,-1.705331 0.221776,-2.720355 h 2.597735 c 0,0 0.593421,0.345911 0,-3.6612 0,0 -3.166178,-0.840176 -3.313777,-7.222488 0,0 -2.378228,0.800816 -2.523556,-3.067022 -0.09916,-2.621955 -2.12769,-4.898 0.791734,-6.777422 l -1.484312,-4.00711 c 0,0 -2.967866,-16.176799 5.5656,-13.802355 -3.59989,-4.303822 20.406443,-8.6068875 21.965689,5.046356 0,0 1.111909,7.3716 0,12.417199 0,0 3.506033,-0.405707 1.161865,6.333112 0,0 -1.285999,4.848044 -3.265333,3.7596 0,0 0.323203,6.134043 -2.793776,7.174045 0,0 0.221777,3.264577 0.221777,3.48711 l 2.969379,0.445066 c 0,0 -0.44658,2.671912 0.07418,2.967866 0,0 3.520414,2.411533 7.716754,3.488624 8.089156,2.076219 17.66111,5.639021 17.66111,8.755999 0,0 0.816712,4.155466 0.816712,9.201065 H 12.020554 z"
   id="path3946"
   inkscape:connector-curvature="0"
   style="fill:#0000ff" />
<path
   sodipodi:type="arc"
   style="fill:none;stroke:#0000ff;stroke-width:3.5;stroke-miterlimit:4;stroke-dasharray:none"
   id="path4175"
   sodipodi:cx="50.845425"
   sodipodi:cy="48.303154"
   sodipodi:rx="46.608307"
   sodipodi:ry="46.184593"
   d="m 97.453732,48.303154 a 46.608307,46.184593 0 1 1 -93.2166142,0 46.608307,46.184593 0 1 1 93.2166142,0 z"
   transform="matrix(1.0337773,0,0,1.0432615,-2.5628462,-0.39281887)" /></svg>