<?xml version="1.0" encoding="UTF-8" standalone="no"?>
<svg
   xmlns:dc="http://purl.org/dc/elements/1.1/"
   xmlns:cc="http://creativecommons.org/ns#"
   xmlns:rdf="http://www.w3.org/1999/02/22-rdf-syntax-ns#"
   xmlns:svg="http://www.w3.org/2000/svg"
   xmlns="http://www.w3.org/2000/svg"
   xmlns:sodipodi="http://sodipodi.sourceforge.net/DTD/sodipodi-0.dtd"
   xmlns:inkscape="http://www.inkscape.org/namespaces/inkscape"
   version="1.1"
   id="Livello_1"
   x="0px"
   y="0px"
   width="100"
   height="100"
   viewBox="0 0 100 100"
   enable-background="new 0 0 46.363 100"
   xml:space="preserve"
   inkscape:version="0.48.3.1 r9886"
   sodipodi:docname="57.svg"><metadata
   id="metadata3994"><rdf:RDF><cc:Work
       rdf:about=""><dc:format>image/svg+xml</dc:format><dc:type
         rdf:resource="http://purl.org/dc/dcmitype/StillImage" /></cc:Work></rdf:RDF></metadata><defs
   id="defs3992" /><sodipodi:namedview
   pagecolor="#ffffff"
   bordercolor="#666666"
   borderopacity="1"
   objecttolerance="10"
   gridtolerance="10"
   guidetolerance="10"
   inkscape:pageopacity="0"
   inkscape:pageshadow="2"
   inkscape:window-width="640"
   inkscape:window-height="480"
   id="namedview3990"
   showgrid="false"
   inkscape:zoom="2.36"
   inkscape:cx="23.181499"
   inkscape:cy="50"
   inkscape:window-x="0"
   inkscape:window-y="0"
   inkscape:window-maximized="0"
   inkscape:current-layer="Livello_1" />




<path
   sodipodi:type="arc"
   style="fill:none;stroke:#0000ff;stroke-width:3.5;stroke-miterlimit:4;stroke-dasharray:none"
   id="path4175"
   sodipodi:cx="50.845425"
   sodipodi:cy="48.303154"
   sodipodi:rx="46.608307"
   sodipodi:ry="46.184593"
   d="m 97.453732,48.303154 a 46.608307,46.184593 0 1 1 -93.2166142,0 46.608307,46.184593 0 1 1 93.2166142,0 z"
   transform="matrix(1.0337773,0,0,1.0432615,-2.5628462,-0.39281885)" /><path
   d="M 63.54847,43.945914 58.80867,28.364229 C 58.224367,26.61132 56.658598,23.431568 52.799747,23.431568 h -9.332503 c -3.894808,0 -5.449136,3.154419 -5.956621,4.932661 l -4.737349,15.596395 c -0.984734,3.353817 3.316226,4.638466 4.332831,1.509381 l 4.26582,-14.357509 h 1.148993 l -0.70198,7.747122 c 1.670371,1.349209 3.809818,2.161512 6.145396,2.161512 2.465513,0 4.706295,-0.911185 6.412623,-2.397685 l -0.67011,-7.510949 h 1.242155 l 4.265003,14.306842 c 1.015788,3.266376 5.279974,1.878759 4.334465,-1.473424 z"
   id="path3982"
   inkscape:connector-curvature="0"
   style="fill:#0000ff" /><path
   d="m 67.938506,25.245768 c -2.549686,2.379706 -5.156576,-0.0523 -7.611466,-1.918802 1.352478,-0.406152 2.626504,-1.020692 3.663539,-1.915533 0.0997,-0.08744 0.179786,-0.179786 0.244345,-0.273765 0.308904,-0.221463 0.612088,-0.483786 0.908734,-0.791056 1.191488,-1.235617 -0.689723,-3.120096 -1.882845,-1.882845 -1.993167,2.067534 -4.02883,0.407786 -5.972965,-1.265853 2.409126,-0.206754 4.905693,-0.929982 6.701914,-2.480224 0.0997,-0.08744 0.179785,-0.179785 0.244345,-0.273764 0.308904,-0.221463 0.612088,-0.483787 0.908734,-0.791056 1.191488,-1.235617 -0.689723,-3.119279 -1.882845,-1.882028 -3.024483,3.137258 -6.143762,-2.3045233 -8.896932,-3.3587203 -2.401771,-0.918541 -5.427071,-1.252779 -6.61529,0.795959 -1.206197,-0.491958 -2.362545,-0.499313 -3.670076,-0.400431 -2.773601,0.210839 -5.004576,2.9354073 -5.482642,5.1018233 -0.581851,2.638761 -0.197764,4.562466 1.576393,6.263074 -0.171614,0.400431 -0.256603,0.837637 -0.223915,1.294456 0.04249,0.600647 0.124215,1.166154 0.247614,1.700607 0.899744,-0.43884 1.978457,-0.715873 3.270462,-0.715873 h 0.507485 c -1.510198,-1.223359 -2.478588,-3.090677 -2.478588,-5.180275 0,-3.67498 2.989343,-6.664323 6.664322,-6.664323 3.674162,0 6.664323,2.989343 6.664323,6.664323 0,2.089598 -0.968391,3.956916 -2.478589,5.180275 h 0.45355 c 3.465775,0 6.179719,2.174588 7.443938,5.966428 l 0.733035,2.412395 c 2.792396,-0.19613 5.706556,-0.94224 7.79125,-2.563578 0.114409,-0.08826 0.204302,-0.183872 0.277851,-0.279485 0.353033,-0.228001 0.697895,-0.496045 1.036218,-0.811487 1.359015,-1.26667 -0.782884,-3.200182 -2.141899,-1.930242 z"
   id="path3984"
   inkscape:connector-curvature="0"
   style="fill:#0000ff" /><circle
   transform="matrix(0.81720694,0,0,0.81720694,32.627812,7.6790867)"
   cx="19.007"
   cy="11.738"
   r="6.7659998"
   id="circle3986"
   sodipodi:cx="19.007"
   sodipodi:cy="11.738"
   sodipodi:rx="6.7659998"
   sodipodi:ry="6.7659998"
   style="fill:#0000ff" /><path
   d="m 52.014411,80.106504 c 10.863132,-20.968713 6.54828,-34.02768 2.793214,-40.142022 -0.03596,0.02779 -0.07273,0.05148 -0.108689,0.07845 -1.796221,1.314886 -4.156314,2.120652 -6.750946,2.120652 -2.459793,0 -4.712015,-0.718325 -6.469828,-1.91063 -0.01308,-0.009 -0.02779,-0.01716 -0.04168,-0.02697 -9.91844,16.340053 2.606073,39.881333 2.605256,39.881333 l -5.470384,8.369833 c -0.05557,0.08009 -0.09234,0.1757 -0.09234,0.26641 0,0.362023 0.394711,0.656217 0.861336,0.656217 0.174065,0 0.321162,-0.04168 0.46826,-0.09561 l 8.211295,-4.937565 8.238263,4.937565 c 0.136474,0.05393 0.284388,0.09561 0.439657,0.09561 0.486239,0 0.878498,-0.294194 0.878498,-0.656217 0,-0.09071 -0.03596,-0.187141 -0.09153,-0.26641 L 52.014409,80.1065 z"
   id="path3988"
   inkscape:connector-curvature="0"
   style="fill:#0000ff" /></svg>