<?xml version="1.0" encoding="UTF-8" standalone="no"?>
<!-- Generator: Adobe Illustrator 14.0.0, SVG Export Plug-In . SVG Version: 6.00 Build 43363)  -->

<svg
   xmlns:dc="http://purl.org/dc/elements/1.1/"
   xmlns:cc="http://creativecommons.org/ns#"
   xmlns:rdf="http://www.w3.org/1999/02/22-rdf-syntax-ns#"
   xmlns:svg="http://www.w3.org/2000/svg"
   xmlns="http://www.w3.org/2000/svg"
   xmlns:sodipodi="http://sodipodi.sourceforge.net/DTD/sodipodi-0.dtd"
   xmlns:inkscape="http://www.inkscape.org/namespaces/inkscape"
   version="1.0"
   id="Layer_1"
   x="0px"
   y="0px"
   width="100"
   height="100"
   viewBox="0 0 99.999995 100"
   enable-background="new 0 0 75.646 100"
   xml:space="preserve"
   inkscape:version="0.48.3.1 r9886"
   sodipodi:docname="40.svg"><metadata
   id="metadata3780"><rdf:RDF><cc:Work
       rdf:about=""><dc:format>image/svg+xml</dc:format><dc:type
         rdf:resource="http://purl.org/dc/dcmitype/StillImage" /></cc:Work></rdf:RDF></metadata><defs
   id="defs3778" /><sodipodi:namedview
   pagecolor="#ffffff"
   bordercolor="#666666"
   borderopacity="1"
   objecttolerance="10"
   gridtolerance="10"
   guidetolerance="10"
   inkscape:pageopacity="0"
   inkscape:pageshadow="2"
   inkscape:window-width="640"
   inkscape:window-height="480"
   id="namedview3776"
   showgrid="false"
   inkscape:zoom="2.36"
   inkscape:cx="37.823002"
   inkscape:cy="50"
   inkscape:window-x="0"
   inkscape:window-y="0"
   inkscape:window-maximized="0"
   inkscape:current-layer="Layer_1" />
<path
   d="M 54.378742,24.62357 C 56.31063,18.661019 59.939974,14.542146 63.997656,14.542146 V 9.5141494 c -6.981342,0 -12.792902,6.4886346 -15.075249,15.8373546 C 9.5360359,13.048926 20.184072,55.707031 26.865816,67.148963 c 4.375558,7.493916 1.214285,22.005729 17.414814,21.832488 2.4389,-0.02623 4.463767,0.206621 6.11672,-2.139303 1.652158,2.345924 3.677025,2.113079 6.115926,2.139303 C 72.71301,89.155485 69.551736,74.642879 73.928089,67.148963 80.46361,55.95577 90.794566,14.894988 54.378742,24.62357 z"
   id="path3774"
   inkscape:connector-curvature="0"
   style="fill:#ff0000" />
<path
   sodipodi:type="arc"
   style="fill:none;stroke:#ff0000;stroke-width:3.5;stroke-miterlimit:4;stroke-dasharray:none"
   id="path4175"
   sodipodi:cx="50.845425"
   sodipodi:cy="48.303154"
   sodipodi:rx="46.608307"
   sodipodi:ry="46.184593"
   d="m 97.453732,48.303154 a 46.608307,46.184593 0 1 1 -93.2166142,0 46.608307,46.184593 0 1 1 93.2166142,0 z"
   transform="matrix(1.0337773,0,0,1.0432615,-2.5628487,-0.39281887)" /></svg>
