<?xml version="1.0" encoding="UTF-8" standalone="no"?>
<svg
   xmlns:dc="http://purl.org/dc/elements/1.1/"
   xmlns:cc="http://creativecommons.org/ns#"
   xmlns:rdf="http://www.w3.org/1999/02/22-rdf-syntax-ns#"
   xmlns:svg="http://www.w3.org/2000/svg"
   xmlns="http://www.w3.org/2000/svg"
   xmlns:sodipodi="http://sodipodi.sourceforge.net/DTD/sodipodi-0.dtd"
   xmlns:inkscape="http://www.inkscape.org/namespaces/inkscape"
   version="1.1"
   id="Layer_1"
   x="0px"
   y="0px"
   width="100px"
   height="100px"
   viewBox="0 0 100 100"
   enable-background="new 0 0 100 100"
   xml:space="preserve"
   inkscape:version="0.48.3.1 r9886"
   sodipodi:docname="48.svg"><metadata
   id="metadata3860"><rdf:RDF><cc:Work
       rdf:about=""><dc:format>image/svg+xml</dc:format><dc:type
         rdf:resource="http://purl.org/dc/dcmitype/StillImage" /></cc:Work></rdf:RDF></metadata><defs
   id="defs3858" /><sodipodi:namedview
   pagecolor="#ffffff"
   bordercolor="#666666"
   borderopacity="1"
   objecttolerance="10"
   gridtolerance="10"
   guidetolerance="10"
   inkscape:pageopacity="0"
   inkscape:pageshadow="2"
   inkscape:window-width="1024"
   inkscape:window-height="550"
   id="namedview3856"
   showgrid="false"
   inkscape:zoom="2.36"
   inkscape:cx="-18.220339"
   inkscape:cy="38.767495"
   inkscape:window-x="0"
   inkscape:window-y="0"
   inkscape:window-maximized="1"
   inkscape:current-layer="Layer_1" />
<path
   d="M 82.09375 17.9375 C 81.400693 18.214918 77.197222 22.09543 71.9375 27.28125 C 67.172237 23.589769 55.837327 28.224463 46.0625 38 C 44.705359 39.357141 43.43173 40.760759 42.28125 42.15625 C 38.014528 39.568378 29.7161 42.532478 22.875 49.375 C 15.453688 56.797022 12.55995 65.934951 16.40625 69.78125 C 27.871999 58.31479 29.551483 56.637383 34.125 60.71875 C 34.14631 60.901265 34.18608 61.105838 34.21875 61.28125 C 33.272089 60.407737 32.450223 59.757784 31.65625 59.375 L 27.75 60.78125 L 29.46875 62.5 L 26.6875 63.5 L 28.375 65.21875 L 25.78125 66.15625 L 33.96875 74.34375 L 34.90625 71.75 L 36.625 73.4375 L 37.625 70.65625 L 39.34375 72.40625 L 40.75 68.46875 C 40.365796 67.674777 39.717264 66.854331 38.84375 65.90625 C 39.021294 65.93892 39.221604 65.9787 39.40625 66 C 43.487616 70.574937 41.810211 72.253 30.34375 83.71875 C 34.19076 87.565049 43.328687 84.670602 50.75 77.25 C 57.5911 70.408899 60.589292 62.111893 58 57.84375 C 59.39549 56.693979 60.768569 55.450181 62.125 54.09375 C 71.899116 44.319634 76.53097 32.954184 72.84375 28.1875 C 78.375291 22.57784 82.415465 18.164756 82.1875 17.9375 C 82.173341 17.923297 82.139954 17.919005 82.09375 17.9375 z M 61.1875 35.40625 C 62.217429 35.406339 63.245443 35.807943 64.03125 36.59375 C 65.602864 38.164653 65.602864 40.710346 64.03125 42.28125 C 62.459636 43.852863 59.914654 43.852153 58.34375 42.28125 C 56.772136 40.709636 56.772136 38.134825 58.34375 36.5625 C 59.129557 35.777048 60.157571 35.406161 61.1875 35.40625 z M 53.9375 42.75 C 54.291466 42.758456 54.626447 42.836123 54.96875 42.9375 C 55.591573 43.121435 56.196059 43.44677 56.6875 43.9375 C 58.259823 45.509114 58.259113 48.053386 56.6875 49.625 C 55.115886 51.197324 52.571614 51.196615 51 49.625 C 50.50927 49.134271 50.153395 48.559612 49.96875 47.9375 C 49.563951 46.568286 49.919112 45.018384 51 43.9375 C 51.81013 43.12737 52.875602 42.724633 53.9375 42.75 z M 46.46875 50.125 C 47.498768 50.125 48.526693 50.526692 49.3125 51.3125 C 50.884114 52.884113 50.884114 55.429096 49.3125 57 C 47.741596 58.572324 45.196614 58.571614 43.625 57 C 42.053386 55.428386 42.053386 52.884113 43.625 51.3125 C 44.410452 50.526692 45.438732 50.125 46.46875 50.125 z "
   id="path3854"
   style="fill:#ff0000" />
<path
   sodipodi:type="arc"
   style="fill:none;stroke:#ff0000;stroke-width:3.5;stroke-miterlimit:4;stroke-dasharray:none"
   id="path4175"
   sodipodi:cx="50.845425"
   sodipodi:cy="48.303154"
   sodipodi:rx="46.608307"
   sodipodi:ry="46.184593"
   d="m 97.453732,48.303154 a 46.608307,46.184593 0 1 1 -93.2166142,0 46.608307,46.184593 0 1 1 93.2166142,0 z"
   transform="matrix(1.0337773,0,0,1.0432615,-2.5628462,-0.39281887)" /></svg>
